0
SECTION
2
ENTITIES
0
TEXT
8
Cmts
62
1
10
246.79514
20
-94.11
1
 
40
1.5
41
1.5
7
SIMPLEX
72
0
73
0
11
246.79514
21
-94.11
0
TEXT
8
Cmts
62
1
10
174.227714
20
-120.11
1
copper 
40
1.5
41
1.5
7
SIMPLEX
72
0
73
0
11
174.227714
21
-120.11
0
TEXT
8
Cmts
62
1
10
174.227714
20
-107.11
1
copper 
40
1.5
41
1.5
7
SIMPLEX
72
0
73
0
11
174.227714
21
-107.11
0
TEXT
8
Cmts
62
1
10
280.529142
20
-123.314
1
2x2116+3x7628 
40
1.5
41
1.5
7
SIMPLEX
72
0
73
0
11
280.529142
21
-123.314
0
TEXT
8
Cmts
62
1
10
215.699143
20
-149.36
1
0.5 mils 
40
1.5
41
1.5
7
SIMPLEX
72
0
73
0
11
215.699143
21
-149.36
0
TEXT
8
Cmts
62
1
10
246.79514
20
-146.11
1
 
40
1.5
41
1.5
7
SIMPLEX
72
0
73
0
11
246.79514
21
-146.11
0
TEXT
8
Cmts
62
1
10
195.117143
20
-57.77
1
8 
40
1.5
41
1.5
7
SIMPLEX
72
0
73
0
11
195.117143
21
-57.77
0
TEXT
8
Cmts
62
1
10
162.56
20
-68.27
1
Copper Finish:  
40
1.5
41
1.5
7
SIMPLEX
72
0
73
0
11
162.56
21
-68.27
0
TEXT
8
Cmts
62
1
10
174.227714
20
-97.36
1
Top Solder Mask 
40
1.5
41
1.5
7
SIMPLEX
72
0
73
0
11
174.227714
21
-97.36
0
TEXT
8
Cmts
62
1
10
174.227714
20
-136.36
1
core 
40
1.5
41
1.5
7
SIMPLEX
72
0
73
0
11
174.227714
21
-136.36
0
TEXT
8
Cmts
62
1
10
174.227714
20
-116.86
1
prepreg 
40
1.5
41
1.5
7
SIMPLEX
72
0
73
0
11
174.227714
21
-116.86
0
TEXT
8
Cmts
62
1
10
215.699143
20
-123.36
1
28 mils 
40
1.5
41
1.5
7
SIMPLEX
72
0
73
0
11
215.699143
21
-123.36
0
TEXT
8
Cmts
62
1
10
174.227714
20
-149.36
1
Bottom Solder Mask 
40
1.5
41
1.5
7
SIMPLEX
72
0
73
0
11
174.227714
21
-149.36
0
TEXT
8
Cmts
62
1
10
230.602853
20
-61.27
1
 
40
1.5
41
1.5
7
SIMPLEX
72
0
73
0
11
230.602853
21
-61.27
0
TEXT
8
Cmts
62
1
10
199.249142
20
-87.11
1
Material 
40
1.5
41
1.5
7
SIMPLEX
72
0
73
0
11
199.249142
21
-87.11
0
TEXT
8
Cmts
62
1
10
246.79514
20
-129.86
1
7.8 mils 
40
1.5
41
1.5
7
SIMPLEX
72
0
73
0
11
246.79514
21
-129.86
0
TEXT
8
Cmts
62
1
10
230.602853
20
-64.77
1
Min hole diameter:  
40
1.5
41
1.5
7
SIMPLEX
72
0
73
0
11
230.602853
21
-64.77
0
TEXT
8
Cmts
62
1
10
174.227714
20
-146.11
1
copper 
40
1.5
41
1.5
7
SIMPLEX
72
0
73
0
11
174.227714
21
-146.11
0
TEXT
8
Cmts
62
1
10
158.992
20
-139.61
1
In6.Cu 
40
1.5
41
1.5
7
SIMPLEX
72
0
73
0
11
158.992
21
-139.61
0
TEXT
8
Cmts
62
1
10
279.894142
20
-142.872
1
1x1080 
40
1.5
41
1.5
7
SIMPLEX
72
0
73
0
11
279.894142
21
-142.872
0
TEXT
8
Cmts
62
1
10
158.992
20
-116.86
1
Dielectric 3 
40
1.5
41
1.5
7
SIMPLEX
72
0
73
0
11
158.992
21
-116.86
0
TEXT
8
Cmts
62
1
10
195.117143
20
-64.77
1
0.006{dblquote} / 0.006{dblquote} 
40
1.5
41
1.5
7
SIMPLEX
72
0
73
0
11
195.117143
21
-64.77
0
TEXT
8
Cmts
62
1
10
199.249142
20
-146.11
1
 
40
1.5
41
1.5
7
SIMPLEX
72
0
73
0
11
199.249142
21
-146.11
0
TEXT
8
Cmts
62
1
10
230.602853
20
-68.27
1
Impedance Control:  
40
1.5
41
1.5
7
SIMPLEX
72
0
73
0
11
230.602853
21
-68.27
0
TEXT
8
Cmts
62
1
10
199.249142
20
-94.11
1
 
40
1.5
41
1.5
7
SIMPLEX
72
0
73
0
11
199.249142
21
-94.11
0
TEXT
8
Cmts
62
1
10
166.878
20
-172.847
1
FAB NOTES: 
40
2.0
41
2.0
7
SIMPLEX
72
0
73
0
11
166.878
21
-172.847
0
TEXT
8
Cmts
62
1
10
174.227714
20
-123.36
1
core 
40
1.5
41
1.5
7
SIMPLEX
72
0
73
0
11
174.227714
21
-123.36
0
TEXT
8
Cmts
62
1
10
246.79514
20
-116.86
1
7.8 mils 
40
1.5
41
1.5
7
SIMPLEX
72
0
73
0
11
246.79514
21
-116.86
0
TEXT
8
Cmts
62
1
10
162.56
20
-64.77
1
Min track/spacing:  
40
1.5
41
1.5
7
SIMPLEX
72
0
73
0
11
162.56
21
-64.77
0
TEXT
8
Cmts
62
1
10
279.894142
20
-136.395
1
1x106+1x1080 
40
1.5
41
1.5
7
SIMPLEX
72
0
73
0
11
279.894142
21
-136.395
0
TEXT
8
Cmts
62
1
10
215.699143
20
-103.86
1
3.648 mils 
40
1.5
41
1.5
7
SIMPLEX
72
0
73
0
11
215.699143
21
-103.86
0
TEXT
8
Cmts
62
1
10
215.699143
20
-129.86
1
7.016 mils 
40
1.5
41
1.5
7
SIMPLEX
72
0
73
0
11
215.699143
21
-129.86
0
TEXT
8
Cmts
62
1
10
246.874142
20
-146.174
1
0.35 mils (0.25oz) 
40
1.5
41
1.5
7
SIMPLEX
72
0
73
0
11
246.874142
21
-146.174
0
TEXT
8
Cmts
62
1
10
174.227714
20
-87.11
1
Type 
40
1.5
41
1.5
7
SIMPLEX
72
0
73
0
11
174.227714
21
-87.11
0
TEXT
8
Cmts
62
1
10
246.79514
20
-133.11
1
 
40
1.5
41
1.5
7
SIMPLEX
72
0
73
0
11
246.79514
21
-133.11
0
TEXT
8
Cmts
62
1
10
158.992
20
-120.11
1
In3.Cu 
40
1.5
41
1.5
7
SIMPLEX
72
0
73
0
11
158.992
21
-120.11
0
TEXT
8
Cmts
62
1
10
158.992
20
-113.61
1
In2.Cu 
40
1.5
41
1.5
7
SIMPLEX
72
0
73
0
11
158.992
21
-113.61
0
TEXT
8
Cmts
62
1
10
246.79514
20
-152.61
1
 
40
1.5
41
1.5
7
SIMPLEX
72
0
73
0
11
246.79514
21
-152.61
0
TEXT
8
Cmts
62
1
10
158.992
20
-107.11
1
In1.Cu 
40
1.5
41
1.5
7
SIMPLEX
72
0
73
0
11
158.992
21
-107.11
0
TEXT
8
Cmts
62
1
10
199.249142
20
-107.11
1
 
40
1.5
41
1.5
7
SIMPLEX
72
0
73
0
11
199.249142
21
-107.11
0
TEXT
8
Cmts
62
1
10
199.249142
20
-152.61
1
 
40
1.5
41
1.5
7
SIMPLEX
72
0
73
0
11
199.249142
21
-152.61
0
TEXT
8
Cmts
62
1
10
215.699143
20
-139.61
1
0.7 mils 
40
1.5
41
1.5
7
SIMPLEX
72
0
73
0
11
215.699143
21
-139.61
0
TEXT
8
Cmts
62
1
10
158.992
20
-136.36
1
Dielectric 6 
40
1.5
41
1.5
7
SIMPLEX
72
0
73
0
11
158.992
21
-136.36
0
TEXT
8
Cmts
62
1
10
215.699143
20
-113.61
1
0.7 mils 
40
1.5
41
1.5
7
SIMPLEX
72
0
73
0
11
215.699143
21
-113.61
0
TEXT
8
Cmts
62
1
10
246.79514
20
-100.61
1
 
40
1.5
41
1.5
7
SIMPLEX
72
0
73
0
11
246.79514
21
-100.61
0
TEXT
8
Cmts
62
1
10
158.992
20
-87.11
1
Layer Name 
40
1.5
41
1.5
7
SIMPLEX
72
0
73
0
11
158.992
21
-87.11
0
TEXT
8
Cmts
62
1
10
199.249142
20
-116.86
1
N7000-2HT 
40
1.5
41
1.5
7
SIMPLEX
72
0
73
0
11
199.249142
21
-116.86
0
TEXT
8
Cmts
62
1
10
172.212
20
-210.693
1
ASSEMBLY NOTES: 
40
2.0
41
2.0
7
SIMPLEX
72
0
73
0
11
172.212
21
-210.693
0
TEXT
8
Cmts
62
1
10
246.79514
20
-126.61
1
 
40
1.5
41
1.5
7
SIMPLEX
72
0
73
0
11
246.79514
21
-126.61
0
TEXT
8
Cmts
62
1
10
246.79514
20
-103.86
1
3.9 mils 
40
1.5
41
1.5
7
SIMPLEX
72
0
73
0
11
246.79514
21
-103.86
0
TEXT
8
Cmts
62
1
10
246.79514
20
-123.36
1
28 mils (0.5oz/0.5oz core) 
40
1.5
41
1.5
7
SIMPLEX
72
0
73
0
11
246.79514
21
-123.36
0
TEXT
8
Cmts
62
1
10
246.79514
20
-110.36
1
4 mils (0.5oz/0.5oz core) 
40
1.5
41
1.5
7
SIMPLEX
72
0
73
0
11
246.79514
21
-110.36
0
TEXT
8
Cmts
62
1
10
174.227714
20
-139.61
1
copper 
40
1.5
41
1.5
7
SIMPLEX
72
0
73
0
11
174.227714
21
-139.61
0
TEXT
8
Cmts
62
1
10
215.699143
20
-87.11
1
Finished Thickness (mils) 
40
1.5
41
1.5
7
SIMPLEX
72
0
73
0
11
215.699143
21
-87.11
0
TEXT
8
Cmts
62
1
10
174.227714
20
-113.61
1
copper 
40
1.5
41
1.5
7
SIMPLEX
72
0
73
0
11
174.227714
21
-113.61
0
TEXT
8
Cmts
62
1
10
174.227714
20
-129.86
1
prepreg 
40
1.5
41
1.5
7
SIMPLEX
72
0
73
0
11
174.227714
21
-129.86
0
TEXT
8
Cmts
62
1
10
199.249142
20
-139.61
1
 
40
1.5
41
1.5
7
SIMPLEX
72
0
73
0
11
199.249142
21
-139.61
0
TEXT
8
Cmts
62
1
10
174.227714
20
-110.36
1
core 
40
1.5
41
1.5
7
SIMPLEX
72
0
73
0
11
174.227714
21
-110.36
0
TEXT
8
Cmts
62
1
10
215.699143
20
-136.36
1
4 mils 
40
1.5
41
1.5
7
SIMPLEX
72
0
73
0
11
215.699143
21
-136.36
0
TEXT
8
Cmts
62
1
10
280.275142
20
-116.837
1
2x1080 
40
1.5
41
1.5
7
SIMPLEX
72
0
73
0
11
280.275142
21
-116.837
0
TEXT
8
Cmts
62
1
10
246.79514
20
-139.61
1
 
40
1.5
41
1.5
7
SIMPLEX
72
0
73
0
11
246.79514
21
-139.61
0
TEXT
8
Cmts
62
1
10
174.227714
20
-133.11
1
copper 
40
1.5
41
1.5
7
SIMPLEX
72
0
73
0
11
174.227714
21
-133.11
0
TEXT
8
Edge
62
2
10
230.602853
20
-71.77
1
Plated Board Edge:  
40
1.5
41
1.5
7
SIMPLEX
72
0
73
0
11
230.602853
21
-71.77
0
TEXT
8
Cmts
62
1
10
199.249142
20
-123.36
1
N7000-2HT 
40
1.5
41
1.5
7
SIMPLEX
72
0
73
0
11
199.249142
21
-123.36
0
TEXT
8
Cmts
62
1
10
174.227714
20
-142.86
1
prepreg 
40
1.5
41
1.5
7
SIMPLEX
72
0
73
0
11
174.227714
21
-142.86
0
TEXT
8
Cmts
62
1
10
162.56
20
-71.77
1
Castellated pads:  
40
1.5
41
1.5
7
SIMPLEX
72
0
73
0
11
162.56
21
-71.77
0
TEXT
8
Cmts
62
1
10
215.699143
20
-110.36
1
4 mils 
40
1.5
41
1.5
7
SIMPLEX
72
0
73
0
11
215.699143
21
-110.36
0
TEXT
8
Cmts
62
1
10
255.44571
20
-61.27
1
 
40
1.5
41
1.5
7
SIMPLEX
72
0
73
0
11
255.44571
21
-61.27
0
TEXT
8
Cmts
62
1
10
215.699143
20
-142.86
1
3.648 mils 
40
1.5
41
1.5
7
SIMPLEX
72
0
73
0
11
215.699143
21
-142.86
0
TEXT
8
Cmts
62
1
10
279.767142
20
-100.708
1
1x1080 
40
1.5
41
1.5
7
SIMPLEX
72
0
73
0
11
279.767142
21
-100.708
0
TEXT
8
Cmts
62
1
10
246.79514
20
-149.36
1
0.5 mils 
40
1.5
41
1.5
7
SIMPLEX
72
0
73
0
11
246.79514
21
-149.36
0
TEXT
8
Cmts
62
1
10
158.992
20
-100.61
1
F.Cu 
40
1.5
41
1.5
7
SIMPLEX
72
0
73
0
11
158.992
21
-100.61
0
TEXT
8
Cmts
62
1
10
246.79514
20
-107.11
1
 
40
1.5
41
1.5
7
SIMPLEX
72
0
73
0
11
246.79514
21
-107.11
0
TEXT
8
Cmts
62
1
10
255.44571
20
-68.27
1
Yes 
40
1.5
41
1.5
7
SIMPLEX
72
0
73
0
11
255.44571
21
-68.27
0
TEXT
8
Cmts
62
1
10
246.874142
20
-100.581
1
0.35 mils (0.25oz) 
40
1.5
41
1.5
7
SIMPLEX
72
0
73
0
11
246.874142
21
-100.581
0
TEXT
8
Cmts
62
1
10
158.992
20
-126.61
1
In4.Cu 
40
1.5
41
1.5
7
SIMPLEX
72
0
73
0
11
158.992
21
-126.61
0
TEXT
8
Cmts
62
1
10
246.79514
20
-120.11
1
 
40
1.5
41
1.5
7
SIMPLEX
72
0
73
0
11
246.79514
21
-120.11
0
TEXT
8
Cmts
62
1
10
174.227714
20
-103.86
1
prepreg 
40
1.5
41
1.5
7
SIMPLEX
72
0
73
0
11
174.227714
21
-103.86
0
TEXT
8
Cmts
62
1
10
199.249142
20
-100.61
1
 
40
1.5
41
1.5
7
SIMPLEX
72
0
73
0
11
199.249142
21
-100.61
0
TEXT
8
Cmts
62
1
10
215.699143
20
-126.61
1
0.7 mils 
40
1.5
41
1.5
7
SIMPLEX
72
0
73
0
11
215.699143
21
-126.61
0
TEXT
8
Cmts
62
1
10
158.992
20
-123.36
1
Dielectric 4 
40
1.5
41
1.5
7
SIMPLEX
72
0
73
0
11
158.992
21
-123.36
0
TEXT
8
Cmts
62
1
10
279.259142
20
-87.119
1
Construction Details 
40
1.5
41
1.5
7
SIMPLEX
72
0
73
0
11
279.259142
21
-87.119
0
TEXT
8
Cmts
62
1
10
246.79514
20
-136.36
1
4 mils (0.5oz/0.5oz core) 
40
1.5
41
1.5
7
SIMPLEX
72
0
73
0
11
246.79514
21
-136.36
0
TEXT
8
Cmts
62
1
10
195.117143
20
-75.27
1
Yes, Bevelled, 30 degrees. 
40
1.5
41
1.5
7
SIMPLEX
72
0
73
0
11
195.117143
21
-75.27
0
TEXT
8
Cmts
62
1
10
246.79514
20
-113.61
1
 
40
1.5
41
1.5
7
SIMPLEX
72
0
73
0
11
246.79514
21
-113.61
0
TEXT
8
Cmts
62
1
10
215.699143
20
-116.86
1
7.016 mils 
40
1.5
41
1.5
7
SIMPLEX
72
0
73
0
11
215.699143
21
-116.86
0
TEXT
8
Cmts
62
1
10
199.249142
20
-113.61
1
 
40
1.5
41
1.5
7
SIMPLEX
72
0
73
0
11
199.249142
21
-113.61
0
TEXT
8
Cmts
62
1
10
230.602853
20
-57.77
1
Board Thickness:  
40
1.5
41
1.5
7
SIMPLEX
72
0
73
0
11
230.602853
21
-57.77
0
TEXT
8
Cmts
62
1
10
215.699143
20
-133.11
1
0.7 mils 
40
1.5
41
1.5
7
SIMPLEX
72
0
73
0
11
215.699143
21
-133.11
0
TEXT
8
Cmts
62
1
10
158.992
20
-146.11
1
B.Cu 
40
1.5
41
1.5
7
SIMPLEX
72
0
73
0
11
158.992
21
-146.11
0
TEXT
8
Cmts
62
1
10
215.699143
20
-107.11
1
0.7 mils 
40
1.5
41
1.5
7
SIMPLEX
72
0
73
0
11
215.699143
21
-107.11
0
TEXT
8
Cmts
62
1
10
279.894142
20
-107.185
1
1x106+1x1080 
40
1.5
41
1.5
7
SIMPLEX
72
0
73
0
11
279.894142
21
-107.185
0
TEXT
8
Cmts
62
1
10
199.249142
20
-103.86
1
N7000-2HT 
40
1.5
41
1.5
7
SIMPLEX
72
0
73
0
11
199.249142
21
-103.86
0
TEXT
8
Cmts
62
1
10
255.44571
20
-71.77
1
No 
40
1.5
41
1.5
7
SIMPLEX
72
0
73
0
11
255.44571
21
-71.77
0
TEXT
8
Cmts
62
1
10
162.56
20
-61.27
1
Board overall dimensions:  
40
1.5
41
1.5
7
SIMPLEX
72
0
73
0
11
162.56
21
-61.27
0
TEXT
8
Cmts
62
1
10
215.699143
20
-100.61
1
1.45 mils 
40
1.5
41
1.5
7
SIMPLEX
72
0
73
0
11
215.699143
21
-100.61
0
TEXT
8
Cmts
62
1
10
199.249142
20
-133.11
1
 
40
1.5
41
1.5
7
SIMPLEX
72
0
73
0
11
199.249142
21
-133.11
0
TEXT
8
Cmts
62
1
10
158.992
20
-110.36
1
Dielectric 2 
40
1.5
41
1.5
7
SIMPLEX
72
0
73
0
11
158.992
21
-110.36
0
TEXT
8
Cmts
62
1
10
199.249142
20
-126.61
1
 
40
1.5
41
1.5
7
SIMPLEX
72
0
73
0
11
199.249142
21
-126.61
0
TEXT
8
Cmts
62
1
10
174.227714
20
-126.61
1
copper 
40
1.5
41
1.5
7
SIMPLEX
72
0
73
0
11
174.227714
21
-126.61
0
TEXT
8
Cmts
62
1
10
174.227714
20
-100.61
1
copper 
40
1.5
41
1.5
7
SIMPLEX
72
0
73
0
11
174.227714
21
-100.61
0
TEXT
8
Cmts
62
1
10
255.44571
20
-64.77
1
10.00 mils 
40
1.5
41
1.5
7
SIMPLEX
72
0
73
0
11
255.44571
21
-64.77
0
TEXT
8
Cmts
62
1
10
158.992
20
-142.86
1
Dielectric 7 
40
1.5
41
1.5
7
SIMPLEX
72
0
73
0
11
158.992
21
-142.86
0
TEXT
8
Cmts
62
1
10
199.249142
20
-136.36
1
N7000-2HT 
40
1.5
41
1.5
7
SIMPLEX
72
0
73
0
11
199.249142
21
-136.36
0
TEXT
8
Cmts
62
1
10
158.369
20
-185.801
1
1. IPC-6012E Class 2
40
2.0
41
2.0
7
SIMPLEX
72
0
73
0
11
158.369
21
-185.801
0
TEXT
8
Cmts
62
1
10
158.369
20
-188.401
1
2. Matte Green soldermask, White silkscreen.
40
2.0
41
2.0
7
SIMPLEX
72
0
73
0
11
158.369
21
-188.401
0
TEXT
8
Cmts
62
1
10
158.369
20
-191.001
1
3. Fabricate on Nelco N7000-2HT
40
2.0
41
2.0
7
SIMPLEX
72
0
73
0
11
158.369
21
-191.001
0
TEXT
8
Cmts
62
1
10
158.369
20
-193.601
1
4. 1oz outer, 1oz inner copper.
40
2.0
41
2.0
7
SIMPLEX
72
0
73
0
11
158.369
21
-193.601
0
TEXT
8
Cmts
62
1
10
158.369
20
-196.201
1
5. Bevel edge connector 30 degrees minimum.
40
2.0
41
2.0
7
SIMPLEX
72
0
73
0
11
158.369
21
-196.201
0
TEXT
8
Cmts
62
1
10
158.369
20
-198.801
1
6. Fill all vias with non-conductive material.
40
2.0
41
2.0
7
SIMPLEX
72
0
73
0
11
158.369
21
-198.801
0
TEXT
8
Cmts
62
1
10
158.369
20
-201.401
1
7. Board target thickness shall be 0.062{dblquote} 
40
2.0
41
2.0
7
SIMPLEX
72
0
73
0
11
158.369
21
-201.401
0
TEXT
8
Cmts
62
1
10
158.992
20
-97.36
1
F.Mask 
40
1.5
41
1.5
7
SIMPLEX
72
0
73
0
11
158.992
21
-97.36
0
TEXT
8
Cmts
62
1
10
162.56
20
-57.77
1
Copper Layer Count:  
40
1.5
41
1.5
7
SIMPLEX
72
0
73
0
11
162.56
21
-57.77
0
TEXT
8
Cmts
62
1
10
246.79514
20
-97.36
1
0.5 mils 
40
1.5
41
1.5
7
SIMPLEX
72
0
73
0
11
246.79514
21
-97.36
0
TEXT
8
Cmts
62
1
10
158.115
20
-222.758
1
1. J-STD-001G Class 2
40
2.0
41
2.0
7
SIMPLEX
72
0
73
0
11
158.115
21
-222.758
0
TEXT
8
Cmts
62
1
10
158.115
20
-225.358
1
2. BOM provided with submitted files shall be the controlling document for component information.
40
2.0
41
2.0
7
SIMPLEX
72
0
73
0
11
158.115
21
-225.358
0
TEXT
8
Cmts
62
1
10
158.115
20
-227.958
1
3. Do not apply solder to pads of DNP components
40
2.0
41
2.0
7
SIMPLEX
72
0
73
0
11
158.115
21
-227.958
0
TEXT
8
Cmts
62
1
10
158.115
20
-230.558
1
4. Stake components specified in BOM with 3M 2216
40
2.0
41
2.0
7
SIMPLEX
72
0
73
0
11
158.115
21
-230.558
0
TEXT
8
Cmts
62
1
10
158.115
20
-233.158
1
5. Conformal Coat with Arathane 5750:
40
2.0
41
2.0
7
SIMPLEX
72
0
73
0
11
158.115
21
-233.158
0
TEXT
8
Cmts
62
1
10
158.115
20
-235.758
1
	Ensure coating does not prevent electrical contact with connectors and mounting holes. 
40
2.0
41
2.0
7
SIMPLEX
72
0
73
0
11
158.115
21
-235.758
0
TEXT
8
Cmts
62
1
10
158.992
20
-103.86
1
Dielectric 1 
40
1.5
41
1.5
7
SIMPLEX
72
0
73
0
11
158.992
21
-103.86
0
TEXT
8
Edge
62
2
10
162.56
20
-75.27
1
Edge card connectors:  
40
1.5
41
1.5
7
SIMPLEX
72
0
73
0
11
162.56
21
-75.27
0
TEXT
8
Cmts
62
1
10
246.79514
20
-87.11
1
Base Thickness (mils) 
40
1.5
41
1.5
7
SIMPLEX
72
0
73
0
11
246.79514
21
-87.11
0
TEXT
8
Cmts
62
1
10
255.44571
20
-57.77
1
0.062{dblquote} 
40
1.5
41
1.5
7
SIMPLEX
72
0
73
0
11
255.44571
21
-57.77
0
TEXT
8
Cmts
62
1
10
199.249142
20
-129.86
1
N7000-2HT 
40
1.5
41
1.5
7
SIMPLEX
72
0
73
0
11
199.249142
21
-129.86
0
TEXT
8
Cmts
62
1
10
246.79514
20
-142.86
1
3.9 mils 
40
1.5
41
1.5
7
SIMPLEX
72
0
73
0
11
246.79514
21
-142.86
0
TEXT
8
Cmts
62
1
10
199.249142
20
-110.36
1
N7000-2HT 
40
1.5
41
1.5
7
SIMPLEX
72
0
73
0
11
199.249142
21
-110.36
0
TEXT
8
Cmts
62
1
10
280.021142
20
-130.045
1
2x1080 
40
1.5
41
1.5
7
SIMPLEX
72
0
73
0
11
280.021142
21
-130.045
0
TEXT
8
Cmts
62
1
10
158.992
20
-129.86
1
Dielectric 5 
40
1.5
41
1.5
7
SIMPLEX
72
0
73
0
11
158.992
21
-129.86
0
TEXT
8
Cmts
62
1
10
195.117143
20
-61.27
1
3.550{dblquote} x 3.982{dblquote} 
40
1.5
41
1.5
7
SIMPLEX
72
0
73
0
11
195.117143
21
-61.27
0
TEXT
8
Cmts
62
1
10
215.699143
20
-146.11
1
1.45 mils 
40
1.5
41
1.5
7
SIMPLEX
72
0
73
0
11
215.699143
21
-146.11
0
TEXT
8
Cmts
62
1
10
161.81
20
-53.02
1
BOARD CHARACTERISTICS 
40
2.0
41
2.0
7
SIMPLEX
72
0
73
0
11
161.81
21
-53.02
0
TEXT
8
Cmts
62
1
10
195.117143
20
-71.77
1
No 
40
1.5
41
1.5
7
SIMPLEX
72
0
73
0
11
195.117143
21
-71.77
0
TEXT
8
Cmts
62
1
10
195.117143
20
-68.27
1
ENIG 
40
1.5
41
1.5
7
SIMPLEX
72
0
73
0
11
195.117143
21
-68.27
0
TEXT
8
Cmts
62
1
10
199.249142
20
-142.86
1
N7000-2HT 
40
1.5
41
1.5
7
SIMPLEX
72
0
73
0
11
199.249142
21
-142.86
0
TEXT
8
Cmts
62
1
10
158.992
20
-149.36
1
B.Mask 
40
1.5
41
1.5
7
SIMPLEX
72
0
73
0
11
158.992
21
-149.36
0
TEXT
8
Cmts
62
1
10
215.699143
20
-97.36
1
0.5 mils 
40
1.5
41
1.5
7
SIMPLEX
72
0
73
0
11
215.699143
21
-97.36
0
TEXT
8
Cmts
62
1
10
158.992
20
-133.11
1
In5.Cu 
40
1.5
41
1.5
7
SIMPLEX
72
0
73
0
11
158.992
21
-133.11
0
TEXT
8
Cmts
62
1
10
215.699143
20
-120.11
1
0.7 mils 
40
1.5
41
1.5
7
SIMPLEX
72
0
73
0
11
215.699143
21
-120.11
0
TEXT
8
Cmts
62
1
10
199.249142
20
-120.11
1
 
40
1.5
41
1.5
7
SIMPLEX
72
0
73
0
11
199.249142
21
-120.11
0
TEXT
8
BFab
62
6
10
61.214
20
-102.87
1
J1 
40
1.0
7
SIMPLEX
72
0
73
0
11
61.214
21
-102.87
0
TEXT
8
BFab
62
6
10
61.595
20
-52.324
1
LED8 
40
0.254
41
0.254
7
SIMPLEX
72
0
73
0
11
61.595
21
-52.324
0
TEXT
8
BFab
62
6
10
88.9
20
-120.65
1
BT1 
40
1.0
7
SIMPLEX
72
0
73
0
11
88.9
21
-120.65
0
TEXT
8
BFab
62
6
10
64.516
20
-52.324
1
LED10 
40
0.254
41
0.254
7
SIMPLEX
72
0
73
0
11
64.516
21
-52.324
0
TEXT
8
BFab
62
6
10
67.056
20
-118.618
1
U26 
40
1.0
7
SIMPLEX
72
0
73
0
11
67.056
21
-118.618
0
TEXT
8
BFab
62
6
10
86.36
20
-138.176
1
U27 
40
1.0
7
SIMPLEX
72
0
73
0
11
86.36
21
-138.176
0
TEXT
8
BFab
62
6
10
129.794
20
-55.372
1
J5 
40
0.762
41
0.762
7
SIMPLEX
72
0
73
0
11
129.794
21
-55.372
0
TEXT
8
BFab
62
6
10
58.674
20
-52.197
1
LED11 
40
0.254
41
0.254
7
SIMPLEX
72
0
73
0
11
58.674
21
-52.197
0
TEXT
8
FFab
62
5
10
130.81
20
-125.476
1
U20 
40
0.889
41
0.889
50
90.0
7
SIMPLEX
72
0
73
0
11
130.81
21
-125.476
0
TEXT
8
FFab
62
5
10
86.614
20
-123.952
1
SW2 
40
0.635
41
0.635
7
SIMPLEX
72
0
73
0
11
86.614
21
-123.952
0
TEXT
8
FFab
62
5
10
55.118
20
-127.0
1
J3 
40
1.27
41
1.27
7
SIMPLEX
72
0
73
0
11
55.118
21
-127.0
0
TEXT
8
FFab
62
5
10
55.118
20
-139.7
1
J4 
40
1.27
41
1.27
7
SIMPLEX
72
0
73
0
11
55.118
21
-139.7
0
TEXT
8
FFab
62
5
10
64.262
20
-83.82
1
U8 
40
1.27
41
1.27
7
SIMPLEX
72
0
73
0
11
64.262
21
-83.82
0
TEXT
8
FFab
62
5
10
128.778
20
-109.22
1
U22 
40
1.27
41
1.27
7
SIMPLEX
72
0
73
0
11
128.778
21
-109.22
0
TEXT
8
FFab
62
5
10
90.17
20
-123.952
1
SW3 
40
0.635
41
0.635
7
SIMPLEX
72
0
73
0
11
90.17
21
-123.952
0
TEXT
8
FFab
62
5
10
63.246
20
-71.374
1
K1 
40
1.27
41
1.27
7
SIMPLEX
72
0
73
0
11
63.246
21
-71.374
0
TEXT
8
FFab
62
5
10
84.836
20
-140.208
1
U24 
40
1.27
41
1.27
7
SIMPLEX
72
0
73
0
11
84.836
21
-140.208
0
TEXT
8
FFab
62
5
10
130.81
20
-139.446
1
U17 
40
0.889
41
0.889
50
90.0
7
SIMPLEX
72
0
73
0
11
130.81
21
-139.446
0
TEXT
8
FFab
62
5
10
55.118
20
-133.35
1
J2 
40
1.27
41
1.27
7
SIMPLEX
72
0
73
0
11
55.118
21
-133.35
0
TEXT
8
FFab
62
5
10
60.325
20
-52.07
1
LED9 
40
0.254
41
0.254
7
SIMPLEX
72
0
73
0
11
60.325
21
-52.07
0
ENDSEC
0
EOF
