G04 #@! TF.GenerationSoftware,KiCad,Pcbnew,7.0.1*
G04 #@! TF.CreationDate,2023-06-20T21:39:35-04:00*
G04 #@! TF.ProjectId,mainboard,6d61696e-626f-4617-9264-2e6b69636164,C*
G04 #@! TF.SameCoordinates,Original*
G04 #@! TF.FileFunction,Soldermask,Bot*
G04 #@! TF.FilePolarity,Negative*
%FSLAX46Y46*%
G04 Gerber Fmt 4.6, Leading zero omitted, Abs format (unit mm)*
G04 Created by KiCad (PCBNEW 7.0.1) date 2023-06-20 21:39:35*
%MOMM*%
%LPD*%
G01*
G04 APERTURE LIST*
G04 Aperture macros list*
%AMRoundRect*
0 Rectangle with rounded corners*
0 $1 Rounding radius*
0 $2 $3 $4 $5 $6 $7 $8 $9 X,Y pos of 4 corners*
0 Add a 4 corners polygon primitive as box body*
4,1,4,$2,$3,$4,$5,$6,$7,$8,$9,$2,$3,0*
0 Add four circle primitives for the rounded corners*
1,1,$1+$1,$2,$3*
1,1,$1+$1,$4,$5*
1,1,$1+$1,$6,$7*
1,1,$1+$1,$8,$9*
0 Add four rect primitives between the rounded corners*
20,1,$1+$1,$2,$3,$4,$5,0*
20,1,$1+$1,$4,$5,$6,$7,0*
20,1,$1+$1,$6,$7,$8,$9,0*
20,1,$1+$1,$8,$9,$2,$3,0*%
%AMFreePoly0*
4,1,12,0.105238,2.379067,0.194454,2.319454,0.254067,2.230238,0.275000,2.125000,0.275000,-1.400000,-0.275000,-1.400000,-0.275000,2.125000,-0.254067,2.230238,-0.194454,2.319454,-0.105238,2.379067,0.000000,2.400000,0.105238,2.379067,0.105238,2.379067,$1*%
G04 Aperture macros list end*
%ADD10C,0.177800*%
%ADD11C,0.100000*%
%ADD12C,2.133600*%
%ADD13FreePoly0,0.000000*%
%ADD14C,0.700000*%
%ADD15C,1.334000*%
%ADD16C,1.268000*%
%ADD17C,1.524000*%
%ADD18C,5.080000*%
%ADD19RoundRect,0.063500X0.406400X0.812800X-0.406400X0.812800X-0.406400X-0.812800X0.406400X-0.812800X0*%
%ADD20RoundRect,0.135000X0.185000X-0.135000X0.185000X0.135000X-0.185000X0.135000X-0.185000X-0.135000X0*%
%ADD21RoundRect,0.135000X0.135000X0.185000X-0.135000X0.185000X-0.135000X-0.185000X0.135000X-0.185000X0*%
%ADD22RoundRect,0.140000X-0.021213X0.219203X-0.219203X0.021213X0.021213X-0.219203X0.219203X-0.021213X0*%
%ADD23RoundRect,0.250000X-0.159099X0.512652X-0.512652X0.159099X0.159099X-0.512652X0.512652X-0.159099X0*%
%ADD24R,0.750000X0.340000*%
%ADD25R,0.400000X1.640000*%
%ADD26R,1.150000X0.340000*%
%ADD27R,0.850000X0.340000*%
%ADD28R,1.760000X2.290000*%
%ADD29RoundRect,0.135000X-0.135000X-0.185000X0.135000X-0.185000X0.135000X0.185000X-0.135000X0.185000X0*%
%ADD30RoundRect,0.225000X0.335876X0.017678X0.017678X0.335876X-0.335876X-0.017678X-0.017678X-0.335876X0*%
%ADD31RoundRect,0.225000X-0.017678X0.335876X-0.335876X0.017678X0.017678X-0.335876X0.335876X-0.017678X0*%
%ADD32RoundRect,0.200000X-0.335876X-0.053033X-0.053033X-0.335876X0.335876X0.053033X0.053033X0.335876X0*%
%ADD33R,0.800000X0.300000*%
%ADD34R,0.300000X0.800000*%
%ADD35R,2.800000X2.800000*%
%ADD36RoundRect,0.200000X0.200000X0.275000X-0.200000X0.275000X-0.200000X-0.275000X0.200000X-0.275000X0*%
%ADD37RoundRect,0.225000X0.225000X0.250000X-0.225000X0.250000X-0.225000X-0.250000X0.225000X-0.250000X0*%
%ADD38RoundRect,0.250000X-0.475000X0.250000X-0.475000X-0.250000X0.475000X-0.250000X0.475000X0.250000X0*%
%ADD39RoundRect,0.250000X-0.250000X-0.475000X0.250000X-0.475000X0.250000X0.475000X-0.250000X0.475000X0*%
%ADD40RoundRect,0.200000X0.275000X-0.200000X0.275000X0.200000X-0.275000X0.200000X-0.275000X-0.200000X0*%
%ADD41RoundRect,0.250000X0.475000X-0.250000X0.475000X0.250000X-0.475000X0.250000X-0.475000X-0.250000X0*%
%ADD42RoundRect,0.135000X-0.226274X-0.035355X-0.035355X-0.226274X0.226274X0.035355X0.035355X0.226274X0*%
%ADD43RoundRect,0.140000X0.140000X0.170000X-0.140000X0.170000X-0.140000X-0.170000X0.140000X-0.170000X0*%
%ADD44RoundRect,0.250000X0.250000X1.100000X-0.250000X1.100000X-0.250000X-1.100000X0.250000X-1.100000X0*%
%ADD45RoundRect,0.150000X-0.587500X-0.150000X0.587500X-0.150000X0.587500X0.150000X-0.587500X0.150000X0*%
%ADD46RoundRect,0.250000X0.159099X-0.512652X0.512652X-0.159099X-0.159099X0.512652X-0.512652X0.159099X0*%
%ADD47RoundRect,0.140000X-0.170000X0.140000X-0.170000X-0.140000X0.170000X-0.140000X0.170000X0.140000X0*%
%ADD48R,0.370000X1.000000*%
%ADD49RoundRect,0.135000X-0.185000X0.135000X-0.185000X-0.135000X0.185000X-0.135000X0.185000X0.135000X0*%
%ADD50RoundRect,0.140000X0.219203X0.021213X0.021213X0.219203X-0.219203X-0.021213X-0.021213X-0.219203X0*%
%ADD51RoundRect,0.140000X-0.219203X-0.021213X-0.021213X-0.219203X0.219203X0.021213X0.021213X0.219203X0*%
%ADD52RoundRect,0.140000X-0.140000X-0.170000X0.140000X-0.170000X0.140000X0.170000X-0.140000X0.170000X0*%
%ADD53RoundRect,0.140000X0.170000X-0.140000X0.170000X0.140000X-0.170000X0.140000X-0.170000X-0.140000X0*%
%ADD54RoundRect,0.200000X-0.200000X-0.275000X0.200000X-0.275000X0.200000X0.275000X-0.200000X0.275000X0*%
%ADD55RoundRect,0.250000X-0.650000X0.325000X-0.650000X-0.325000X0.650000X-0.325000X0.650000X0.325000X0*%
%ADD56RoundRect,0.250000X0.250000X0.475000X-0.250000X0.475000X-0.250000X-0.475000X0.250000X-0.475000X0*%
%ADD57R,0.650000X0.400000*%
%ADD58RoundRect,0.200000X-0.275000X0.200000X-0.275000X-0.200000X0.275000X-0.200000X0.275000X0.200000X0*%
%ADD59RoundRect,0.225000X0.250000X-0.225000X0.250000X0.225000X-0.250000X0.225000X-0.250000X-0.225000X0*%
%ADD60RoundRect,0.140000X0.021213X-0.219203X0.219203X-0.021213X-0.021213X0.219203X-0.219203X0.021213X0*%
%ADD61R,0.400000X0.650000*%
%ADD62C,1.300000*%
%ADD63C,1.000000*%
%ADD64R,3.600000X2.600000*%
%ADD65RoundRect,0.063500X-0.620000X0.400000X-0.620000X-0.400000X0.620000X-0.400000X0.620000X0.400000X0*%
%ADD66RoundRect,0.063500X-0.600000X0.580000X-0.600000X-0.580000X0.600000X-0.580000X0.600000X0.580000X0*%
%ADD67RoundRect,0.063500X-1.250000X0.475000X-1.250000X-0.475000X1.250000X-0.475000X1.250000X0.475000X0*%
%ADD68RoundRect,0.063500X-1.100000X0.575000X-1.100000X-0.575000X1.100000X-0.575000X1.100000X0.575000X0*%
%ADD69RoundRect,0.063500X-0.575000X0.750000X-0.575000X-0.750000X0.575000X-0.750000X0.575000X0.750000X0*%
%ADD70RoundRect,0.063500X-0.625000X0.580000X-0.625000X-0.580000X0.625000X-0.580000X0.625000X0.580000X0*%
%ADD71RoundRect,0.150000X-0.150000X-0.200000X0.150000X-0.200000X0.150000X0.200000X-0.150000X0.200000X0*%
%ADD72R,0.340000X0.750000*%
%ADD73R,1.640000X0.400000*%
%ADD74R,0.340000X1.150000*%
%ADD75R,0.340000X0.850000*%
%ADD76R,2.290000X1.760000*%
%ADD77RoundRect,0.147500X-0.172500X0.147500X-0.172500X-0.147500X0.172500X-0.147500X0.172500X0.147500X0*%
%ADD78RoundRect,0.317500X1.157500X0.317500X-1.157500X0.317500X-1.157500X-0.317500X1.157500X-0.317500X0*%
%ADD79RoundRect,0.250000X-0.300000X0.300000X-0.300000X-0.300000X0.300000X-0.300000X0.300000X0.300000X0*%
%ADD80R,0.510000X0.400000*%
%ADD81RoundRect,0.101500X0.101500X0.571500X-0.101500X0.571500X-0.101500X-0.571500X0.101500X-0.571500X0*%
%ADD82R,0.406000X1.346000*%
%ADD83R,1.500000X1.905000*%
%ADD84R,2.108000X1.600000*%
%ADD85R,1.905000X1.905000*%
%ADD86RoundRect,0.063500X1.000000X0.650000X-1.000000X0.650000X-1.000000X-0.650000X1.000000X-0.650000X0*%
%ADD87RoundRect,0.063500X2.849999X2.400000X-2.849999X2.400000X-2.849999X-2.400000X2.849999X-2.400000X0*%
%ADD88RoundRect,0.150000X-0.150000X0.587500X-0.150000X-0.587500X0.150000X-0.587500X0.150000X0.587500X0*%
%ADD89RoundRect,0.225000X-0.225000X-0.250000X0.225000X-0.250000X0.225000X0.250000X-0.225000X0.250000X0*%
%ADD90RoundRect,0.250000X-0.787500X-1.025000X0.787500X-1.025000X0.787500X1.025000X-0.787500X1.025000X0*%
%ADD91RoundRect,0.093750X0.106250X-0.093750X0.106250X0.093750X-0.106250X0.093750X-0.106250X-0.093750X0*%
%ADD92R,1.600000X1.000000*%
%ADD93RoundRect,0.250000X-0.512652X-0.159099X-0.159099X-0.512652X0.512652X0.159099X0.159099X0.512652X0*%
%ADD94R,0.400000X0.510000*%
%ADD95RoundRect,0.150000X-0.200000X0.150000X-0.200000X-0.150000X0.200000X-0.150000X0.200000X0.150000X0*%
G04 APERTURE END LIST*
D10*
G36*
X83835508Y-151149050D02*
G01*
X83835508Y-149858666D01*
X83577431Y-149858666D01*
X83577431Y-150374819D01*
X83071204Y-150374819D01*
X83071204Y-149858666D01*
X82813127Y-149858666D01*
X82813127Y-151149050D01*
X83071204Y-151149050D01*
X83071204Y-150593192D01*
X83577431Y-150593192D01*
X83577431Y-151149050D01*
X83835508Y-151149050D01*
G37*
G36*
X82561254Y-151149050D02*
G01*
X82561254Y-149858666D01*
X82303177Y-149858666D01*
X82303177Y-151149050D01*
X82561254Y-151149050D01*
G37*
G36*
X82052545Y-151149050D02*
G01*
X82052545Y-149858666D01*
X81794468Y-149858666D01*
X81794468Y-150930677D01*
X81152378Y-150930677D01*
X81152378Y-151149050D01*
X82052545Y-151149050D01*
G37*
G36*
X80966886Y-151149050D02*
G01*
X80966886Y-149858666D01*
X80708809Y-149858666D01*
X80708809Y-150930677D01*
X80066719Y-150930677D01*
X80066719Y-151149050D01*
X80966886Y-151149050D01*
G37*
G36*
X79896115Y-151149050D02*
G01*
X79896115Y-149858666D01*
X79638038Y-149858666D01*
X79638038Y-151149050D01*
X79896115Y-151149050D01*
G37*
G36*
X79459990Y-150732156D02*
G01*
X79208738Y-150712304D01*
X79205725Y-150727404D01*
X79202350Y-150741995D01*
X79198610Y-150756077D01*
X79194508Y-150769650D01*
X79190041Y-150782715D01*
X79185212Y-150795270D01*
X79180018Y-150807316D01*
X79174462Y-150818854D01*
X79168542Y-150829883D01*
X79158980Y-150845471D01*
X79148600Y-150859915D01*
X79137402Y-150873214D01*
X79125387Y-150885368D01*
X79116922Y-150892834D01*
X79103469Y-150903145D01*
X79089165Y-150912441D01*
X79074010Y-150920724D01*
X79058005Y-150927992D01*
X79041150Y-150934246D01*
X79023444Y-150939486D01*
X79011167Y-150942416D01*
X78998512Y-150944895D01*
X78985479Y-150946923D01*
X78972069Y-150948501D01*
X78958280Y-150949627D01*
X78944113Y-150950304D01*
X78929568Y-150950529D01*
X78914221Y-150950327D01*
X78899354Y-150949720D01*
X78884966Y-150948708D01*
X78871059Y-150947291D01*
X78857631Y-150945470D01*
X78844683Y-150943244D01*
X78832215Y-150940614D01*
X78814412Y-150935909D01*
X78797689Y-150930294D01*
X78782046Y-150923768D01*
X78767482Y-150916332D01*
X78753998Y-150907985D01*
X78741594Y-150898727D01*
X78730285Y-150888804D01*
X78720089Y-150878575D01*
X78711005Y-150868041D01*
X78703034Y-150857201D01*
X78696174Y-150846056D01*
X78690427Y-150834606D01*
X78685793Y-150822850D01*
X78682270Y-150810789D01*
X78679860Y-150798423D01*
X78678563Y-150785751D01*
X78678315Y-150777134D01*
X78678967Y-150763501D01*
X78680920Y-150750519D01*
X78684177Y-150738189D01*
X78688736Y-150726510D01*
X78694597Y-150715482D01*
X78701761Y-150705106D01*
X78704992Y-150701137D01*
X78714290Y-150691544D01*
X78725511Y-150682344D01*
X78735874Y-150675268D01*
X78747467Y-150668444D01*
X78760291Y-150661872D01*
X78774347Y-150655552D01*
X78789633Y-150649484D01*
X78797738Y-150646544D01*
X78810945Y-150642114D01*
X78823223Y-150638270D01*
X78837535Y-150633979D01*
X78853881Y-150629241D01*
X78865908Y-150625834D01*
X78878839Y-150622228D01*
X78892674Y-150618423D01*
X78907413Y-150614420D01*
X78923056Y-150610218D01*
X78939602Y-150605817D01*
X78957053Y-150601217D01*
X78975407Y-150596419D01*
X78994665Y-150591422D01*
X79004634Y-150588849D01*
X79017482Y-150585512D01*
X79030090Y-150582129D01*
X79042455Y-150578702D01*
X79054579Y-150575230D01*
X79078101Y-150568151D01*
X79100656Y-150560893D01*
X79122245Y-150553456D01*
X79142866Y-150545840D01*
X79162521Y-150538044D01*
X79181208Y-150530069D01*
X79198929Y-150521914D01*
X79215683Y-150513580D01*
X79231470Y-150505067D01*
X79246290Y-150496374D01*
X79260143Y-150487502D01*
X79273029Y-150478451D01*
X79284948Y-150469221D01*
X79295901Y-150459811D01*
X79310174Y-150446290D01*
X79323527Y-150432403D01*
X79335958Y-150418150D01*
X79347469Y-150403531D01*
X79358059Y-150388546D01*
X79367729Y-150373196D01*
X79376477Y-150357479D01*
X79384304Y-150341396D01*
X79391211Y-150324948D01*
X79397196Y-150308134D01*
X79402261Y-150290953D01*
X79406405Y-150273407D01*
X79409628Y-150255495D01*
X79411930Y-150237217D01*
X79413312Y-150218573D01*
X79413772Y-150199563D01*
X79413287Y-150181180D01*
X79411831Y-150163020D01*
X79409405Y-150145084D01*
X79406008Y-150127371D01*
X79401640Y-150109882D01*
X79396302Y-150092617D01*
X79389994Y-150075575D01*
X79382715Y-150058757D01*
X79374465Y-150042162D01*
X79368426Y-150031223D01*
X79361956Y-150020383D01*
X79358559Y-150015001D01*
X79351428Y-150004383D01*
X79343917Y-149994087D01*
X79336025Y-149984114D01*
X79327753Y-149974463D01*
X79319100Y-149965134D01*
X79310067Y-149956128D01*
X79300654Y-149947444D01*
X79290860Y-149939082D01*
X79280686Y-149931043D01*
X79270131Y-149923325D01*
X79259195Y-149915931D01*
X79247879Y-149908858D01*
X79236183Y-149902108D01*
X79224106Y-149895680D01*
X79211649Y-149889574D01*
X79198812Y-149883791D01*
X79185578Y-149878344D01*
X79172009Y-149873249D01*
X79158107Y-149868506D01*
X79143869Y-149864113D01*
X79129298Y-149860072D01*
X79114392Y-149856383D01*
X79099151Y-149853045D01*
X79083577Y-149850058D01*
X79067667Y-149847423D01*
X79051424Y-149845139D01*
X79034845Y-149843206D01*
X79017933Y-149841625D01*
X79000686Y-149840395D01*
X78983105Y-149839516D01*
X78965189Y-149838989D01*
X78946939Y-149838814D01*
X78932011Y-149838919D01*
X78917316Y-149839237D01*
X78902853Y-149839765D01*
X78888623Y-149840505D01*
X78874626Y-149841457D01*
X78860861Y-149842619D01*
X78847329Y-149843994D01*
X78834030Y-149845580D01*
X78820963Y-149847377D01*
X78808129Y-149849385D01*
X78795528Y-149851606D01*
X78783159Y-149854037D01*
X78771023Y-149856680D01*
X78747449Y-149862600D01*
X78724805Y-149869366D01*
X78703092Y-149876978D01*
X78682309Y-149885435D01*
X78662457Y-149894739D01*
X78643536Y-149904888D01*
X78625545Y-149915882D01*
X78608484Y-149927723D01*
X78592354Y-149940409D01*
X78584638Y-149947069D01*
X78569852Y-149960884D01*
X78555970Y-149975263D01*
X78542992Y-149990206D01*
X78530918Y-150005714D01*
X78519747Y-150021787D01*
X78509481Y-150038425D01*
X78500118Y-150055627D01*
X78491660Y-150073394D01*
X78484105Y-150091725D01*
X78477454Y-150110621D01*
X78471707Y-150130082D01*
X78466864Y-150150107D01*
X78462925Y-150170697D01*
X78459889Y-150191852D01*
X78457758Y-150213571D01*
X78456531Y-150235855D01*
X78714918Y-150235855D01*
X78718335Y-150218471D01*
X78722424Y-150202031D01*
X78727183Y-150186534D01*
X78732613Y-150171980D01*
X78738713Y-150158370D01*
X78745485Y-150145703D01*
X78752926Y-150133979D01*
X78761039Y-150123198D01*
X78769822Y-150113361D01*
X78779276Y-150104467D01*
X78785951Y-150099062D01*
X78796667Y-150091578D01*
X78808342Y-150084831D01*
X78820978Y-150078819D01*
X78834573Y-150073544D01*
X78849127Y-150069005D01*
X78864642Y-150065201D01*
X78881116Y-150062134D01*
X78898549Y-150059803D01*
X78916942Y-150058209D01*
X78929738Y-150057554D01*
X78942959Y-150057227D01*
X78949730Y-150057186D01*
X78963577Y-150057363D01*
X78977046Y-150057894D01*
X78990137Y-150058778D01*
X79002850Y-150060017D01*
X79015185Y-150061609D01*
X79032978Y-150064660D01*
X79049921Y-150068508D01*
X79066013Y-150073152D01*
X79081255Y-150078592D01*
X79095646Y-150084828D01*
X79109186Y-150091860D01*
X79121876Y-150099688D01*
X79125917Y-150102474D01*
X79137713Y-150112070D01*
X79147509Y-150122636D01*
X79155306Y-150134171D01*
X79161104Y-150146676D01*
X79164903Y-150160149D01*
X79166702Y-150174593D01*
X79166862Y-150180641D01*
X79165923Y-150194192D01*
X79163106Y-150207122D01*
X79158411Y-150219431D01*
X79151837Y-150231120D01*
X79143386Y-150242187D01*
X79133056Y-150252633D01*
X79128399Y-150256637D01*
X79118038Y-150264250D01*
X79105218Y-150271966D01*
X79089939Y-150279786D01*
X79078387Y-150285057D01*
X79065742Y-150290374D01*
X79052004Y-150295737D01*
X79037173Y-150301146D01*
X79021250Y-150306600D01*
X79004233Y-150312101D01*
X78986123Y-150317649D01*
X78966921Y-150323242D01*
X78946625Y-150328881D01*
X78925237Y-150334566D01*
X78902755Y-150340297D01*
X78891105Y-150343180D01*
X78867914Y-150348926D01*
X78845492Y-150354686D01*
X78823839Y-150360461D01*
X78802953Y-150366250D01*
X78782836Y-150372054D01*
X78763486Y-150377873D01*
X78744905Y-150383706D01*
X78727093Y-150389553D01*
X78710048Y-150395415D01*
X78693771Y-150401292D01*
X78678263Y-150407183D01*
X78663523Y-150413089D01*
X78649551Y-150419009D01*
X78636348Y-150424944D01*
X78623912Y-150430893D01*
X78612245Y-150436857D01*
X78601116Y-150442965D01*
X78590295Y-150449347D01*
X78579781Y-150456003D01*
X78564587Y-150466500D01*
X78550086Y-150477613D01*
X78536278Y-150489342D01*
X78523162Y-150501687D01*
X78510738Y-150514649D01*
X78499007Y-150528227D01*
X78487968Y-150542421D01*
X78477622Y-150557231D01*
X78471110Y-150567446D01*
X78461963Y-150583316D01*
X78453716Y-150599867D01*
X78448718Y-150611280D01*
X78444119Y-150622995D01*
X78439921Y-150635014D01*
X78436122Y-150647335D01*
X78432724Y-150659960D01*
X78429725Y-150672887D01*
X78427126Y-150686118D01*
X78424927Y-150699651D01*
X78423127Y-150713487D01*
X78421728Y-150727626D01*
X78420728Y-150742068D01*
X78420128Y-150756813D01*
X78419928Y-150771860D01*
X78420167Y-150785609D01*
X78420883Y-150799249D01*
X78422077Y-150812780D01*
X78423748Y-150826202D01*
X78425896Y-150839514D01*
X78428522Y-150852718D01*
X78431625Y-150865812D01*
X78435205Y-150878798D01*
X78439263Y-150891674D01*
X78443798Y-150904442D01*
X78448811Y-150917100D01*
X78454301Y-150929649D01*
X78460269Y-150942090D01*
X78466714Y-150954421D01*
X78473636Y-150966643D01*
X78481036Y-150978756D01*
X78488871Y-150990621D01*
X78497102Y-151002098D01*
X78505728Y-151013187D01*
X78514749Y-151023888D01*
X78524165Y-151034202D01*
X78533976Y-151044128D01*
X78544182Y-151053667D01*
X78554783Y-151062817D01*
X78565779Y-151071580D01*
X78577170Y-151079955D01*
X78588956Y-151087942D01*
X78601137Y-151095542D01*
X78613713Y-151102754D01*
X78626684Y-151109578D01*
X78640050Y-151116014D01*
X78653811Y-151122063D01*
X78667983Y-151127735D01*
X78682585Y-151133041D01*
X78697616Y-151137981D01*
X78713076Y-151142555D01*
X78728965Y-151146763D01*
X78745282Y-151150605D01*
X78762029Y-151154082D01*
X78779204Y-151157192D01*
X78796809Y-151159936D01*
X78814842Y-151162315D01*
X78833304Y-151164327D01*
X78852195Y-151165974D01*
X78871516Y-151167255D01*
X78891265Y-151168170D01*
X78911443Y-151168719D01*
X78932050Y-151168902D01*
X78947100Y-151168793D01*
X78961931Y-151168467D01*
X78976541Y-151167923D01*
X78990932Y-151167162D01*
X79005103Y-151166183D01*
X79019054Y-151164987D01*
X79032785Y-151163573D01*
X79046296Y-151161942D01*
X79059587Y-151160093D01*
X79072658Y-151158027D01*
X79085509Y-151155743D01*
X79098141Y-151153242D01*
X79110552Y-151150523D01*
X79122744Y-151147587D01*
X79146467Y-151141062D01*
X79169311Y-151133667D01*
X79191275Y-151125402D01*
X79212359Y-151116268D01*
X79232564Y-151106263D01*
X79251889Y-151095388D01*
X79270334Y-151083643D01*
X79287900Y-151071029D01*
X79304586Y-151057544D01*
X79320424Y-151043187D01*
X79335445Y-151028032D01*
X79349649Y-151012081D01*
X79363037Y-150995332D01*
X79375608Y-150977786D01*
X79387362Y-150959442D01*
X79398300Y-150940301D01*
X79408421Y-150920363D01*
X79417726Y-150899628D01*
X79426214Y-150878095D01*
X79433885Y-150855765D01*
X79440739Y-150832638D01*
X79446777Y-150808713D01*
X79449490Y-150796452D01*
X79451998Y-150783992D01*
X79454302Y-150771332D01*
X79456402Y-150758473D01*
X79458298Y-150745414D01*
X79459990Y-150732156D01*
G37*
D11*
X122283811Y-57437160D02*
X69483811Y-57437160D01*
X69483811Y-53237160D01*
X122283811Y-53237160D01*
X122283811Y-57437160D01*
G36*
X122283811Y-57437160D02*
G01*
X69483811Y-57437160D01*
X69483811Y-53237160D01*
X122283811Y-53237160D01*
X122283811Y-57437160D01*
G37*
D12*
X72478900Y-67691000D03*
X72478900Y-75311000D03*
X62318900Y-67691000D03*
X54698900Y-75311000D03*
X54698900Y-67691000D03*
D13*
X70683811Y-55837160D03*
X71483811Y-55837160D03*
X72283811Y-55837160D03*
X73083811Y-55837160D03*
X73883811Y-55837160D03*
X74683811Y-55837160D03*
X75483811Y-55837160D03*
X76283811Y-55837160D03*
X77083811Y-55837160D03*
X77883811Y-55837160D03*
X78683811Y-55837160D03*
X79483811Y-55837160D03*
X80283811Y-55837160D03*
X81083811Y-55837160D03*
X81883811Y-55837160D03*
X82683811Y-55837160D03*
X83483811Y-55837160D03*
X84283811Y-55837160D03*
X85083811Y-55837160D03*
X85883811Y-55837160D03*
X86683811Y-55837160D03*
X87483811Y-55837160D03*
X88283811Y-55837160D03*
X89083811Y-55837160D03*
X89883811Y-55837160D03*
X90683811Y-55837160D03*
X91483811Y-55837160D03*
X92283811Y-55837160D03*
X93083811Y-55837160D03*
X93883811Y-55837160D03*
X94683811Y-55837160D03*
X95483811Y-55837160D03*
X99483811Y-55837160D03*
X100283811Y-55837160D03*
X101083811Y-55837160D03*
X101883811Y-55837160D03*
X102683811Y-55837160D03*
X103483811Y-55837160D03*
X104283811Y-55837160D03*
X105083811Y-55837160D03*
X105883811Y-55837160D03*
X106683811Y-55837160D03*
X107483811Y-55837160D03*
X108283811Y-55837160D03*
X109083811Y-55837160D03*
X109883811Y-55837160D03*
X110683811Y-55837160D03*
X111483811Y-55837160D03*
X112283811Y-55837160D03*
X113083811Y-55837160D03*
X113883811Y-55837160D03*
X114683811Y-55837160D03*
X115483811Y-55837160D03*
X116283811Y-55837160D03*
X117083811Y-55837160D03*
X117883811Y-55837160D03*
X118683811Y-55837160D03*
X119483811Y-55837160D03*
X120283811Y-55837160D03*
X121083811Y-55837160D03*
D14*
X64643000Y-52474172D03*
X64643000Y-54274172D03*
D15*
X55118000Y-139700000D03*
D16*
X53848000Y-140970000D03*
X56388000Y-140970000D03*
X53848000Y-138430000D03*
X56388000Y-138430000D03*
D17*
X139192000Y-119253000D03*
X139065000Y-65278000D03*
D18*
X135890000Y-147320000D03*
D17*
X121285000Y-150456900D03*
D15*
X55118000Y-133350000D03*
D16*
X53848000Y-134620000D03*
X56388000Y-134620000D03*
X53848000Y-132080000D03*
X56388000Y-132080000D03*
D17*
X54648100Y-113157000D03*
D18*
X133350000Y-61595000D03*
D17*
X139065000Y-74549000D03*
D18*
X59690000Y-61595000D03*
D15*
X55118000Y-127000000D03*
D16*
X53848000Y-128270000D03*
X56388000Y-128270000D03*
X53848000Y-125730000D03*
X56388000Y-125730000D03*
D18*
X55880000Y-147320000D03*
D19*
X74168000Y-124976000D03*
X73068000Y-124976000D03*
X71968000Y-124976000D03*
X70868000Y-124976000D03*
X69768000Y-124976000D03*
X68668000Y-124976000D03*
X67568000Y-124976000D03*
X64568000Y-124976000D03*
X63468000Y-124976000D03*
X62368000Y-124976000D03*
X61268000Y-124976000D03*
X60168000Y-124976000D03*
X60168000Y-112776000D03*
X61268000Y-112776000D03*
X62368000Y-112776000D03*
X63468000Y-112776000D03*
X64568000Y-112776000D03*
X67568000Y-112776000D03*
X68668000Y-112776000D03*
X69768000Y-112776000D03*
X70868000Y-112776000D03*
X71968000Y-112776000D03*
X73068000Y-112776000D03*
X74168000Y-112776000D03*
D20*
X61468000Y-72519000D03*
X61468000Y-71499000D03*
D21*
X63121000Y-77978000D03*
X62101000Y-77978000D03*
D22*
X100161411Y-105959589D03*
X99482589Y-106638411D03*
D23*
X98080751Y-112739249D03*
X96737249Y-114082751D03*
D24*
X68644000Y-63967000D03*
X68644000Y-63317000D03*
D25*
X69219000Y-63317000D03*
D24*
X68644000Y-62667000D03*
D26*
X68844000Y-62017000D03*
D27*
X72044000Y-63967000D03*
X72044000Y-63327000D03*
D28*
X70739000Y-62992000D03*
D27*
X72044000Y-62667000D03*
X72044000Y-62017000D03*
D20*
X57658000Y-72519000D03*
X57658000Y-71499000D03*
X58928000Y-72519000D03*
X58928000Y-71499000D03*
D29*
X79881000Y-100965000D03*
X80901000Y-100965000D03*
D30*
X87608378Y-109575638D03*
X86512362Y-108479622D03*
D22*
X96478411Y-111674589D03*
X95799589Y-112353411D03*
D31*
X85257008Y-110703992D03*
X84160992Y-111800008D03*
D32*
X94920637Y-98349637D03*
X96087363Y-99516363D03*
D33*
X126038498Y-68443105D03*
X126038498Y-68943105D03*
X126038498Y-69443105D03*
X126038498Y-69943105D03*
X126038498Y-70443105D03*
X126038498Y-70943105D03*
D34*
X125288498Y-71693105D03*
X124788498Y-71693105D03*
X124288498Y-71693105D03*
X123788498Y-71693105D03*
X123288498Y-71693105D03*
X122788498Y-71693105D03*
D33*
X122038498Y-70943105D03*
X122038498Y-70443105D03*
X122038498Y-69943105D03*
X122038498Y-69443105D03*
X122038498Y-68943105D03*
X122038498Y-68443105D03*
D34*
X122788498Y-67693105D03*
X123288498Y-67693105D03*
X123788498Y-67693105D03*
X124288498Y-67693105D03*
X124788498Y-67693105D03*
X125288498Y-67693105D03*
D35*
X124038498Y-69693105D03*
D36*
X126936000Y-73406000D03*
X125286000Y-73406000D03*
D37*
X123584000Y-73406000D03*
X122034000Y-73406000D03*
D38*
X119380000Y-67376000D03*
X119380000Y-69276000D03*
D39*
X121836002Y-62447895D03*
X123736002Y-62447895D03*
D40*
X128684000Y-73342000D03*
X128684000Y-71692000D03*
D37*
X127267000Y-65972000D03*
X125717000Y-65972000D03*
D36*
X130238000Y-69850000D03*
X128588000Y-69850000D03*
D41*
X120109000Y-73385000D03*
X120109000Y-71485000D03*
D42*
X101493376Y-93873376D03*
X102214624Y-94594624D03*
D43*
X104280000Y-97282000D03*
X103320000Y-97282000D03*
D30*
X88686008Y-108498008D03*
X87589992Y-107401992D03*
D20*
X130302000Y-73027000D03*
X130302000Y-72007000D03*
D38*
X117348000Y-67376000D03*
X117348000Y-69276000D03*
D44*
X123755000Y-65278000D03*
X121355000Y-65278000D03*
D32*
X93777637Y-99492637D03*
X94944363Y-100659363D03*
D45*
X62689500Y-76134000D03*
X62689500Y-74234000D03*
X64564500Y-75184000D03*
D20*
X62738000Y-72519000D03*
X62738000Y-71499000D03*
D29*
X59053000Y-77978000D03*
X60073000Y-77978000D03*
D46*
X82767249Y-110653751D03*
X84110751Y-109310249D03*
D20*
X79375000Y-110238000D03*
X79375000Y-109218000D03*
X60198000Y-72519000D03*
X60198000Y-71499000D03*
D47*
X137160000Y-58067000D03*
X137160000Y-59027000D03*
X138176000Y-58067000D03*
X138176000Y-59027000D03*
D48*
X59985000Y-52324000D03*
X58125000Y-52324000D03*
X63795000Y-52324000D03*
X61935000Y-52324000D03*
X67274800Y-52324000D03*
X65414800Y-52324000D03*
D49*
X139192000Y-58037000D03*
X139192000Y-59057000D03*
D21*
X59438000Y-53467000D03*
X58418000Y-53467000D03*
X62232000Y-53467000D03*
X61212000Y-53467000D03*
D20*
X64135000Y-59565000D03*
X64135000Y-58545000D03*
D50*
X98002411Y-102574411D03*
X97323589Y-101895589D03*
D51*
X96307589Y-97196589D03*
X96986411Y-97875411D03*
D52*
X89436000Y-94107000D03*
X90396000Y-94107000D03*
D51*
X84750589Y-98212589D03*
X85429411Y-98891411D03*
D22*
X81238411Y-106213589D03*
X80559589Y-106892411D03*
D50*
X89555043Y-107211779D03*
X88876221Y-106532957D03*
D49*
X87376001Y-80179000D03*
X87376001Y-81199000D03*
D53*
X59563000Y-85570002D03*
X59563000Y-84610002D03*
D29*
X117600000Y-126746000D03*
X118620000Y-126746000D03*
D52*
X120551000Y-141728000D03*
X121511000Y-141728000D03*
D40*
X133604000Y-100266000D03*
X133604000Y-98616000D03*
D54*
X127445000Y-129159000D03*
X129095000Y-129159000D03*
D55*
X102429000Y-106221000D03*
X102429000Y-109171000D03*
D56*
X101280000Y-133096000D03*
X99380000Y-133096000D03*
D57*
X105852000Y-76058000D03*
X105852000Y-76708000D03*
X105852000Y-77358000D03*
X103952000Y-77358000D03*
X103952000Y-76708000D03*
X103952000Y-76058000D03*
D53*
X86106000Y-72235000D03*
X86106000Y-71275000D03*
D20*
X105918000Y-128526000D03*
X105918000Y-127506000D03*
D49*
X116967000Y-98042000D03*
X116967000Y-99062000D03*
X87376000Y-67435000D03*
X87376000Y-68455000D03*
D52*
X104422000Y-72009000D03*
X105382000Y-72009000D03*
D20*
X110998000Y-99062000D03*
X110998000Y-98042000D03*
D37*
X73038000Y-92202000D03*
X71488000Y-92202000D03*
D20*
X124079000Y-79504000D03*
X124079000Y-78484000D03*
D49*
X105281000Y-66544000D03*
X105281000Y-67564000D03*
D20*
X66421001Y-82933001D03*
X66421001Y-81913001D03*
D58*
X107696000Y-79058000D03*
X107696000Y-80708000D03*
D49*
X120650000Y-104138000D03*
X120650000Y-105158000D03*
D47*
X117499602Y-120170000D03*
X117499602Y-121130000D03*
D59*
X123890000Y-108920000D03*
X123890000Y-107370000D03*
D60*
X107483589Y-113839411D03*
X108162411Y-113160589D03*
D61*
X95773000Y-69403001D03*
X95123000Y-69403001D03*
X94473000Y-69403001D03*
X94473000Y-67503001D03*
X95123000Y-67503001D03*
X95773000Y-67503001D03*
D21*
X122430000Y-79121000D03*
X121410000Y-79121000D03*
D58*
X103759000Y-133033000D03*
X103759000Y-134683000D03*
D62*
X85226000Y-120650000D03*
D63*
X92716000Y-120650000D03*
D64*
X81026000Y-120650000D03*
X96816000Y-120650000D03*
D29*
X114943000Y-113411000D03*
X115963000Y-113411000D03*
D65*
X54859000Y-99716000D03*
X54859000Y-100816000D03*
X54859000Y-101916000D03*
X54859000Y-103016000D03*
X54859000Y-104116000D03*
X54859000Y-105216000D03*
X54859000Y-106316000D03*
X54859000Y-107416000D03*
D66*
X66489000Y-109356000D03*
D67*
X55489000Y-95371000D03*
D68*
X55339000Y-109761000D03*
X66819000Y-95471000D03*
D69*
X67614000Y-99776000D03*
X67614000Y-107556000D03*
D70*
X57489000Y-109356000D03*
D71*
X125033000Y-132965000D03*
X123633000Y-132965000D03*
D20*
X111389000Y-106809000D03*
X111389000Y-105789000D03*
D29*
X123823000Y-138045000D03*
X124843000Y-138045000D03*
D72*
X115992000Y-78274000D03*
X116642000Y-78274000D03*
D73*
X116642000Y-78849000D03*
D72*
X117292000Y-78274000D03*
D74*
X117942000Y-78474000D03*
D75*
X115992000Y-81674000D03*
X116632000Y-81674000D03*
D76*
X116967000Y-80369000D03*
D75*
X117292000Y-81674000D03*
X117942000Y-81674000D03*
D36*
X129222000Y-141351000D03*
X127572000Y-141351000D03*
D77*
X128778000Y-59459000D03*
X128778000Y-60429000D03*
D29*
X115187000Y-125475999D03*
X116207000Y-125475999D03*
D49*
X121920000Y-104138000D03*
X121920000Y-105158000D03*
D78*
X77883000Y-131176000D03*
X77883000Y-133176000D03*
X77883000Y-135176000D03*
X77883000Y-137176000D03*
X77883000Y-139176000D03*
X77883000Y-141176000D03*
X77883000Y-143176000D03*
X77883000Y-145176000D03*
X62833000Y-145176000D03*
X62833000Y-143176000D03*
X62833000Y-141176000D03*
X62833000Y-139176000D03*
X62833000Y-137176000D03*
X62833000Y-135176000D03*
X62833000Y-133176000D03*
X62833000Y-131176000D03*
D29*
X86231001Y-82467000D03*
X87251001Y-82467000D03*
D49*
X76327000Y-106297000D03*
X76327000Y-107317000D03*
X60833000Y-84580002D03*
X60833000Y-85600002D03*
D24*
X112876000Y-64997000D03*
X112876000Y-65647000D03*
D25*
X112301000Y-65647000D03*
D24*
X112876000Y-66297000D03*
D26*
X112676000Y-66947000D03*
D27*
X109476000Y-64997000D03*
X109476000Y-65637000D03*
D28*
X110781000Y-65972000D03*
D27*
X109476000Y-66297000D03*
X109476000Y-66947000D03*
D29*
X59688000Y-86868002D03*
X60708000Y-86868002D03*
D40*
X108331000Y-131127000D03*
X108331000Y-129477000D03*
D47*
X117475000Y-134009000D03*
X117475000Y-134969000D03*
D49*
X105537000Y-78991999D03*
X105537000Y-80011999D03*
D79*
X69088000Y-70228000D03*
X69088000Y-73028000D03*
D57*
X65593000Y-55865000D03*
X65593000Y-56515000D03*
X65593000Y-57165000D03*
X63693000Y-57165000D03*
X63693000Y-56515000D03*
X63693000Y-55865000D03*
D21*
X105414000Y-82171000D03*
X104394000Y-82171000D03*
D54*
X137224000Y-91186000D03*
X138874000Y-91186000D03*
D20*
X92964001Y-78532000D03*
X92964001Y-77512000D03*
D80*
X76845000Y-109101000D03*
X76845000Y-110101000D03*
X75555000Y-109601000D03*
D61*
X90185001Y-82274000D03*
X89535001Y-82274000D03*
X88885001Y-82274000D03*
X88885001Y-80374000D03*
X89535001Y-80374000D03*
X90185001Y-80374000D03*
D77*
X129921000Y-59459000D03*
X129921000Y-60429000D03*
D81*
X127764000Y-56769000D03*
D82*
X128414000Y-56769000D03*
X129064000Y-56769000D03*
X129714000Y-56769000D03*
X130364000Y-56769000D03*
D83*
X125263000Y-54102000D03*
D84*
X125965000Y-56602000D03*
D85*
X127889000Y-54102000D03*
X130289000Y-54102000D03*
D84*
X132213000Y-56602000D03*
D83*
X132915000Y-54102000D03*
D29*
X116965000Y-91821000D03*
X117985000Y-91821000D03*
D59*
X136271000Y-132792000D03*
X136271000Y-131242000D03*
D86*
X60632000Y-145168000D03*
X60632000Y-143168000D03*
X60632000Y-141168000D03*
X60632000Y-139168000D03*
X60632000Y-137168000D03*
X60632000Y-135168000D03*
X60632000Y-133168000D03*
X60632000Y-131168000D03*
X95632000Y-131168000D03*
X95632000Y-133168000D03*
X95632000Y-135168000D03*
X95632000Y-137168000D03*
X95632000Y-139168000D03*
X95632000Y-141168000D03*
X95632000Y-143168000D03*
X95632000Y-145168000D03*
D87*
X72199500Y-139918000D03*
D52*
X109121000Y-80899000D03*
X110081000Y-80899000D03*
D40*
X137033000Y-69278000D03*
X137033000Y-67628000D03*
D61*
X114031000Y-97602000D03*
X114681000Y-97602000D03*
X115331000Y-97602000D03*
X115331000Y-99502000D03*
X114681000Y-99502000D03*
X114031000Y-99502000D03*
D49*
X87376000Y-71245000D03*
X87376000Y-72265000D03*
D29*
X108201999Y-83947000D03*
X109221999Y-83947000D03*
D61*
X114031000Y-93792000D03*
X114681000Y-93792000D03*
X115331000Y-93792000D03*
X115331000Y-95692000D03*
X114681000Y-95692000D03*
X114031000Y-95692000D03*
D20*
X103378000Y-87377999D03*
X103378000Y-86357999D03*
D40*
X102108000Y-77533000D03*
X102108000Y-75883000D03*
D21*
X100840000Y-139573000D03*
X99820000Y-139573000D03*
D61*
X90185000Y-69403000D03*
X89535000Y-69403000D03*
X88885000Y-69403000D03*
X88885000Y-67503000D03*
X89535000Y-67503000D03*
X90185000Y-67503000D03*
D88*
X123637000Y-93042500D03*
X125537000Y-93042500D03*
X124587000Y-94917500D03*
D58*
X133985000Y-84773000D03*
X133985000Y-86423000D03*
D20*
X66421000Y-86870000D03*
X66421000Y-85850000D03*
D40*
X134874000Y-69278000D03*
X134874000Y-67628000D03*
D80*
X111115000Y-142994000D03*
X111115000Y-141994000D03*
X112405000Y-142494000D03*
D53*
X86106000Y-77359000D03*
X86106000Y-76399000D03*
D20*
X120396000Y-95381000D03*
X120396000Y-94361000D03*
D49*
X112659000Y-105789000D03*
X112659000Y-106809000D03*
X91693999Y-68578000D03*
X91693999Y-69598000D03*
D58*
X115453000Y-107189000D03*
X115453000Y-108839000D03*
D29*
X108202001Y-87376000D03*
X109222001Y-87376000D03*
D49*
X91694000Y-81449001D03*
X91694000Y-82469001D03*
D58*
X101600000Y-85726000D03*
X101600000Y-87376000D03*
D61*
X112156000Y-91628000D03*
X111506000Y-91628000D03*
X110856000Y-91628000D03*
X110856000Y-89728000D03*
X111506000Y-89728000D03*
X112156000Y-89728000D03*
D21*
X124462000Y-88519000D03*
X123442000Y-88519000D03*
X120906001Y-75438000D03*
X119886001Y-75438000D03*
D29*
X91819001Y-76244000D03*
X92839001Y-76244000D03*
D49*
X122555000Y-110615000D03*
X122555000Y-111635000D03*
X91694000Y-77512000D03*
X91694000Y-78532000D03*
D58*
X137922000Y-71692000D03*
X137922000Y-73342000D03*
D49*
X60833000Y-80770000D03*
X60833000Y-81790000D03*
D57*
X117038000Y-110475000D03*
X117038000Y-111125000D03*
X117038000Y-111775000D03*
X115138000Y-111775000D03*
X115138000Y-111125000D03*
X115138000Y-110475000D03*
D58*
X131953000Y-98616000D03*
X131953000Y-100266000D03*
D89*
X77330000Y-70104000D03*
X78880000Y-70104000D03*
D21*
X59438000Y-57785000D03*
X58418000Y-57785000D03*
D90*
X125284500Y-84836000D03*
X131509500Y-84836000D03*
D59*
X121666000Y-136407000D03*
X121666000Y-134857000D03*
D54*
X127572000Y-143002000D03*
X129222000Y-143002000D03*
D21*
X120398000Y-93218000D03*
X119378000Y-93218000D03*
D36*
X112331000Y-87884000D03*
X110681000Y-87884000D03*
D49*
X115316000Y-87247001D03*
X115316000Y-88267001D03*
D29*
X86231000Y-69723000D03*
X87251000Y-69723000D03*
D21*
X100840000Y-140843000D03*
X99820000Y-140843000D03*
D58*
X97535999Y-71565000D03*
X97535999Y-73215000D03*
X70993000Y-80963000D03*
X70993000Y-82613000D03*
D53*
X125866000Y-111375000D03*
X125866000Y-110415000D03*
D29*
X109091000Y-78359000D03*
X110111000Y-78359000D03*
D20*
X92964000Y-69598000D03*
X92964000Y-68578000D03*
D47*
X135255000Y-72674000D03*
X135255000Y-73634000D03*
D91*
X127523000Y-60958500D03*
X126873000Y-60958500D03*
X126223000Y-60958500D03*
X126223000Y-59183500D03*
X126873000Y-59183500D03*
X127523000Y-59183500D03*
D92*
X126873000Y-60071000D03*
D53*
X86106000Y-68425000D03*
X86106000Y-67465000D03*
D61*
X90185001Y-78337000D03*
X89535001Y-78337000D03*
X88885001Y-78337000D03*
X88885001Y-76437000D03*
X89535001Y-76437000D03*
X90185001Y-76437000D03*
D58*
X70992999Y-84900002D03*
X70992999Y-86550002D03*
D72*
X70907000Y-106352000D03*
X71557000Y-106352000D03*
D73*
X71557000Y-106927000D03*
D72*
X72207000Y-106352000D03*
D74*
X72857000Y-106552000D03*
D75*
X70907000Y-109752000D03*
X71547000Y-109752000D03*
D76*
X71882000Y-108447000D03*
D75*
X72207000Y-109752000D03*
X72857000Y-109752000D03*
D21*
X100840000Y-138303000D03*
X99820000Y-138303000D03*
D20*
X110998000Y-95252000D03*
X110998000Y-94232000D03*
D29*
X114679000Y-67564000D03*
X115699000Y-67564000D03*
D20*
X118080000Y-90650000D03*
X118080000Y-89630000D03*
D29*
X91819001Y-80181000D03*
X92839001Y-80181000D03*
D41*
X74295000Y-86675000D03*
X74295000Y-84775000D03*
D29*
X117092000Y-139065000D03*
X118112000Y-139065000D03*
X115187000Y-126746000D03*
X116207000Y-126746000D03*
D20*
X77597000Y-107317000D03*
X77597000Y-106297000D03*
D39*
X111582000Y-108585000D03*
X113482000Y-108585000D03*
D49*
X76454000Y-113092000D03*
X76454000Y-114112000D03*
D58*
X97536000Y-67628000D03*
X97536000Y-69278000D03*
D61*
X63641999Y-86675000D03*
X62991999Y-86675000D03*
X62341999Y-86675000D03*
X62341999Y-84775000D03*
X62991999Y-84775000D03*
X63641999Y-84775000D03*
D80*
X125974000Y-77335000D03*
X125974000Y-76335000D03*
X127264000Y-76835000D03*
D29*
X123847602Y-124206000D03*
X124867602Y-124206000D03*
D93*
X83021249Y-99150249D03*
X84364751Y-100493751D03*
D61*
X95773001Y-82274000D03*
X95123001Y-82274000D03*
X94473001Y-82274000D03*
X94473001Y-80374000D03*
X95123001Y-80374000D03*
X95773001Y-80374000D03*
D29*
X127760000Y-74803000D03*
X128780000Y-74803000D03*
D53*
X135636000Y-89507000D03*
X135636000Y-88547000D03*
D20*
X112395000Y-99062000D03*
X112395000Y-98042000D03*
D40*
X105409999Y-134683000D03*
X105409999Y-133033000D03*
D29*
X128903000Y-66802000D03*
X129923000Y-66802000D03*
X117092000Y-140208000D03*
X118112000Y-140208000D03*
D49*
X118491000Y-106678000D03*
X118491000Y-107698000D03*
X91693999Y-72515001D03*
X91693999Y-73535001D03*
D61*
X115331000Y-91628000D03*
X114681000Y-91628000D03*
X114031000Y-91628000D03*
X114031000Y-89728000D03*
X114681000Y-89728000D03*
X115331000Y-89728000D03*
D49*
X62103000Y-56005000D03*
X62103000Y-57025000D03*
D20*
X119253000Y-95379000D03*
X119253000Y-94359000D03*
D94*
X104021000Y-136261000D03*
X105021000Y-136261000D03*
X104521000Y-137551000D03*
D88*
X125669000Y-79326500D03*
X127569000Y-79326500D03*
X126619000Y-81201500D03*
D31*
X80304008Y-104861992D03*
X79207992Y-105958008D03*
D29*
X123823000Y-131441000D03*
X124843000Y-131441000D03*
D20*
X123317000Y-140337000D03*
X123317000Y-139317000D03*
D72*
X113878000Y-76898000D03*
X113228000Y-76898000D03*
D73*
X113228000Y-76323000D03*
D72*
X112578000Y-76898000D03*
D74*
X111928000Y-76698000D03*
D75*
X113878000Y-73498000D03*
X113238000Y-73498000D03*
D76*
X112903000Y-74803000D03*
D75*
X112578000Y-73498000D03*
X111928000Y-73498000D03*
D54*
X108014000Y-75565000D03*
X109664000Y-75565000D03*
D29*
X125728000Y-88519000D03*
X126748000Y-88519000D03*
D52*
X119798000Y-111662000D03*
X120758000Y-111662000D03*
D49*
X112270001Y-94232000D03*
X112270001Y-95252000D03*
D52*
X114328000Y-72009000D03*
X115288000Y-72009000D03*
D20*
X92964000Y-73535000D03*
X92964000Y-72515000D03*
D29*
X65276000Y-80645000D03*
X66296000Y-80645000D03*
D49*
X87376001Y-76369000D03*
X87376001Y-77389000D03*
D58*
X103378000Y-64961000D03*
X103378000Y-66611000D03*
D29*
X99820000Y-135763000D03*
X100840000Y-135763000D03*
D49*
X117096002Y-94232000D03*
X117096002Y-95252000D03*
D29*
X108202001Y-86233000D03*
X109222001Y-86233000D03*
D37*
X138824000Y-89408000D03*
X137274000Y-89408000D03*
D24*
X112876001Y-61060000D03*
X112876001Y-61710000D03*
D25*
X112301001Y-61710000D03*
D24*
X112876001Y-62360000D03*
D26*
X112676001Y-63010000D03*
D27*
X109476001Y-61060000D03*
X109476001Y-61700000D03*
D28*
X110781001Y-62035000D03*
D27*
X109476001Y-62360000D03*
X109476001Y-63010000D03*
D61*
X78755000Y-73660000D03*
X78105000Y-73660000D03*
X77455000Y-73660000D03*
X77455000Y-71760000D03*
X78755000Y-71760000D03*
D49*
X136495000Y-72614000D03*
X136495000Y-73634000D03*
D21*
X126494000Y-74803000D03*
X125474000Y-74803000D03*
D61*
X63642000Y-82738002D03*
X62992000Y-82738002D03*
X62342000Y-82738002D03*
X62342000Y-80838002D03*
X62992000Y-80838002D03*
X63642000Y-80838002D03*
D47*
X116967000Y-89690000D03*
X116967000Y-90650000D03*
D80*
X123942000Y-91051000D03*
X123942000Y-90051000D03*
X125232000Y-90551000D03*
D61*
X90185000Y-73340000D03*
X89535000Y-73340000D03*
X88885000Y-73340000D03*
X88885000Y-71440000D03*
X89535000Y-71440000D03*
X90185000Y-71440000D03*
D57*
X57978000Y-56276000D03*
X57978000Y-55626000D03*
X57978000Y-54976000D03*
X59878000Y-54976000D03*
X59878000Y-55626000D03*
X59878000Y-56276000D03*
D53*
X135128000Y-100429000D03*
X135128000Y-99469000D03*
D61*
X58913000Y-74361000D03*
X59563000Y-74361000D03*
X60213000Y-74361000D03*
X60213000Y-76261000D03*
X59563000Y-76261000D03*
X58913000Y-76261000D03*
D29*
X91819000Y-67310000D03*
X92839000Y-67310000D03*
D36*
X78930001Y-68453000D03*
X77280001Y-68453000D03*
D49*
X65151001Y-85850001D03*
X65151001Y-86870001D03*
D61*
X95773000Y-73340000D03*
X95123000Y-73340000D03*
X94473000Y-73340000D03*
X94473000Y-71440000D03*
X95123000Y-71440000D03*
X95773000Y-71440000D03*
D21*
X120906000Y-76581000D03*
X119886000Y-76581000D03*
D49*
X103378000Y-127506000D03*
X103378000Y-128526000D03*
D61*
X120254000Y-106617000D03*
X120904000Y-106617000D03*
X121554000Y-106617000D03*
X121554000Y-108517000D03*
X120904000Y-108517000D03*
X120254000Y-108517000D03*
D58*
X138176000Y-131192000D03*
X138176000Y-132842000D03*
D29*
X128903000Y-68199000D03*
X129923000Y-68199000D03*
D21*
X105031000Y-138938000D03*
X104011000Y-138938000D03*
D20*
X114046000Y-88267000D03*
X114046000Y-87247000D03*
D95*
X127254000Y-91251000D03*
X127254000Y-89851000D03*
X129286000Y-77535000D03*
X129286000Y-76135000D03*
D61*
X69230000Y-86675002D03*
X68580000Y-86675002D03*
X67930000Y-86675002D03*
X67930000Y-84775002D03*
X68580000Y-84775002D03*
X69230000Y-84775002D03*
D29*
X112657000Y-113411000D03*
X113677000Y-113411000D03*
D20*
X121285000Y-81663000D03*
X121285000Y-80643000D03*
D29*
X91819000Y-71247000D03*
X92839000Y-71247000D03*
X86231000Y-73533000D03*
X87251000Y-73533000D03*
X99820000Y-137033000D03*
X100840000Y-137033000D03*
X135380000Y-71501000D03*
X136400000Y-71501000D03*
D43*
X107130000Y-123258000D03*
X106170000Y-123258000D03*
D59*
X121690602Y-122568000D03*
X121690602Y-121018000D03*
D20*
X122428000Y-81665000D03*
X122428000Y-80645000D03*
D58*
X97536000Y-80499000D03*
X97536000Y-82149000D03*
D61*
X123683000Y-134682000D03*
X124333000Y-134682000D03*
X124983000Y-134682000D03*
X124983000Y-136582000D03*
X124333000Y-136582000D03*
X123683000Y-136582000D03*
D36*
X129095000Y-127508000D03*
X127445000Y-127508000D03*
D20*
X92964001Y-82469000D03*
X92964001Y-81449000D03*
D29*
X117092000Y-141478000D03*
X118112000Y-141478000D03*
D71*
X125057602Y-119126000D03*
X123657602Y-119126000D03*
D29*
X65276000Y-84582001D03*
X66296000Y-84582001D03*
D20*
X120142000Y-136142000D03*
X120142000Y-135122000D03*
X119253000Y-90678000D03*
X119253000Y-89658000D03*
D90*
X123252500Y-98552000D03*
X129477500Y-98552000D03*
D72*
X111928000Y-78274000D03*
X112578000Y-78274000D03*
D73*
X112578000Y-78849000D03*
D72*
X113228000Y-78274000D03*
D74*
X113878000Y-78474000D03*
D75*
X111928000Y-81674000D03*
X112568000Y-81674000D03*
D76*
X112903000Y-80369000D03*
D75*
X113228000Y-81674000D03*
X113878000Y-81674000D03*
D49*
X118999000Y-121283000D03*
X118999000Y-122303000D03*
X65151000Y-81913000D03*
X65151000Y-82933000D03*
X109855001Y-141984000D03*
X109855001Y-143004000D03*
D53*
X59563000Y-81760001D03*
X59563000Y-80800001D03*
D72*
X117942000Y-76898000D03*
X117292000Y-76898000D03*
D73*
X117292000Y-76323000D03*
D72*
X116642000Y-76898000D03*
D74*
X115992000Y-76698000D03*
D75*
X117942000Y-73498000D03*
X117302000Y-73498000D03*
D76*
X116967000Y-74803000D03*
D75*
X116642000Y-73498000D03*
X115992000Y-73498000D03*
D53*
X137033000Y-86713000D03*
X137033000Y-85753000D03*
X86106000Y-81169000D03*
X86106000Y-80209000D03*
D29*
X109091000Y-79629000D03*
X110111000Y-79629000D03*
D61*
X69230000Y-82738000D03*
X68580000Y-82738000D03*
X67930000Y-82738000D03*
X67930000Y-80838000D03*
X68580000Y-80838000D03*
X69230000Y-80838000D03*
D72*
X99355000Y-127664000D03*
X100005000Y-127664000D03*
D73*
X100005000Y-128239000D03*
D72*
X100655000Y-127664000D03*
D74*
X101305000Y-127864000D03*
D75*
X99355000Y-131064000D03*
X99995000Y-131064000D03*
D76*
X100330000Y-129759000D03*
D75*
X100655000Y-131064000D03*
X101305000Y-131064000D03*
D20*
X124079000Y-81663000D03*
X124079000Y-80643000D03*
D57*
X104841001Y-85232000D03*
X104841001Y-84582000D03*
X104841001Y-83932000D03*
X106741001Y-83932000D03*
X106741001Y-84582000D03*
X106741001Y-85232000D03*
D43*
X107668000Y-119126000D03*
X106708000Y-119126000D03*
D29*
X104392000Y-81153000D03*
X105412000Y-81153000D03*
X123847602Y-117602000D03*
X124867602Y-117602000D03*
X59688000Y-83058002D03*
X60708000Y-83058002D03*
D61*
X123707602Y-120843000D03*
X124357602Y-120843000D03*
X125007602Y-120843000D03*
X125007602Y-122743000D03*
X124357602Y-122743000D03*
X123707602Y-122743000D03*
D80*
X105293000Y-130183000D03*
X105293000Y-131183000D03*
X104003000Y-130683000D03*
D40*
X135636000Y-86423000D03*
X135636000Y-84773000D03*
D52*
X108204000Y-85090000D03*
X109164000Y-85090000D03*
D29*
X109089001Y-77087000D03*
X110109001Y-77087000D03*
D57*
X113482000Y-110475000D03*
X113482000Y-111125000D03*
X113482000Y-111775000D03*
X111582000Y-111775000D03*
X111582000Y-111125000D03*
X111582000Y-110475000D03*
D54*
X71438000Y-103124000D03*
X73088000Y-103124000D03*
D20*
X122047000Y-95379000D03*
X122047000Y-94359000D03*
D55*
X105029000Y-106221000D03*
X105029000Y-109171000D03*
D20*
X122047000Y-93220000D03*
X122047000Y-92200000D03*
X120166602Y-122303000D03*
X120166602Y-121283000D03*
D49*
X104648000Y-127506000D03*
X104648000Y-128526000D03*
X123890000Y-110635000D03*
X123890000Y-111655000D03*
X113929000Y-105789000D03*
X113929000Y-106809000D03*
D47*
X104267000Y-79022000D03*
X104267000Y-79982000D03*
D58*
X97536001Y-76562000D03*
X97536001Y-78212000D03*
D52*
X77244000Y-75057000D03*
X78204000Y-75057000D03*
D20*
X102997000Y-80011999D03*
X102997000Y-78991999D03*
X129667000Y-81155000D03*
X129667000Y-80135000D03*
D49*
X75057000Y-106297000D03*
X75057000Y-107317000D03*
D61*
X95773001Y-78337001D03*
X95123001Y-78337001D03*
X94473001Y-78337001D03*
X94473001Y-76437001D03*
X95123001Y-76437001D03*
X95773001Y-76437001D03*
D20*
X127635000Y-94871000D03*
X127635000Y-93851000D03*
D52*
X120575602Y-127889000D03*
X121535602Y-127889000D03*
D61*
X132446000Y-71567000D03*
X133096000Y-71567000D03*
X133746000Y-71567000D03*
X133746000Y-73467000D03*
X133096000Y-73467000D03*
X132446000Y-73467000D03*
D20*
X113664999Y-143004000D03*
X113664999Y-141984000D03*
D29*
X86231001Y-78657000D03*
X87251001Y-78657000D03*
D20*
X119253000Y-105158000D03*
X119253000Y-104138000D03*
D53*
X73787000Y-95984000D03*
X73787000Y-95024000D03*
M02*
