%TF.GenerationSoftware,KiCad,Pcbnew,7.0.1*%
%TF.CreationDate,2023-06-13T18:19:23-04:00*%
%TF.ProjectId,mainboard,6d61696e-626f-4617-9264-2e6b69636164,rev?*%
%TF.SameCoordinates,Original*%
%TF.FileFunction,Drillmap*%
%TF.FilePolarity,Positive*%
%FSLAX45Y45*%
G04 Gerber Fmt 4.5, Leading zero omitted, Abs format (unit mm)*
G04 Created by KiCad (PCBNEW 7.0.1) date 2023-06-13 18:19:23*
%MOMM*%
%LPD*%
G01*
G04 APERTURE LIST*
%ADD10C,0.127000*%
%ADD11C,0.200000*%
%ADD12C,0.070000*%
%ADD13C,0.100000*%
%ADD14C,0.130000*%
G04 APERTURE END LIST*
D10*
X13586460Y-5674360D02*
X13985240Y-5674360D01*
X5194300Y-11460480D02*
G75*
G03*
X5270500Y-11384280I0J76200D01*
G01*
X14097000Y-9354820D02*
X14097000Y-5786120D01*
X10718800Y-15067280D02*
G75*
G03*
X10599420Y-14947900I-119380J0D01*
G01*
X9626600Y-5880100D02*
X9626600Y-5344160D01*
X12400280Y-5125720D02*
X12529820Y-5125720D01*
X13538200Y-5626100D02*
G75*
G03*
X13586460Y-5674360I48260J0D01*
G01*
X9867900Y-5344160D02*
X12198350Y-5344160D01*
X12590780Y-5184140D02*
G75*
G03*
X12651740Y-5245100I60960J0D01*
G01*
X6779260Y-5938520D02*
X6779260Y-5125720D01*
X9867900Y-5880100D02*
X9867900Y-5344160D01*
X5588000Y-5674360D02*
G75*
G03*
X5638800Y-5628640I2540J48260D01*
G01*
X5189220Y-5674360D02*
G75*
G03*
X5080000Y-5786120I1270J-110490D01*
G01*
X12198350Y-5880100D02*
X12198350Y-5344160D01*
X5697220Y-5125720D02*
G75*
G03*
X5638800Y-5184140I0J-58420D01*
G01*
X8686800Y-15120620D02*
X8686800Y-15067280D01*
X5156200Y-11460480D02*
G75*
G03*
X5080000Y-11536680I0J-76200D01*
G01*
X5080000Y-15113000D02*
G75*
G03*
X5191760Y-15240000I119380J-7620D01*
G01*
X13271500Y-5125720D02*
G75*
G03*
X13210540Y-5186680I0J-60960D01*
G01*
X5080000Y-15113000D02*
X5080000Y-11536680D01*
X5191760Y-15240000D02*
X8567420Y-15240000D01*
X13538200Y-5181600D02*
G75*
G03*
X13482320Y-5125720I-55880J0D01*
G01*
X5270500Y-9507220D02*
G75*
G03*
X5194300Y-9431020I-76200J0D01*
G01*
X13271500Y-5125720D02*
X13482320Y-5125720D01*
X12400280Y-5943600D02*
X12400280Y-5125720D01*
X14097000Y-11536680D02*
G75*
G03*
X14020800Y-11460480I-76200J0D01*
G01*
X8567420Y-15240000D02*
G75*
G03*
X8686800Y-15120620I0J119380D01*
G01*
X5080000Y-9354820D02*
G75*
G03*
X5156200Y-9431020I76200J0D01*
G01*
X12590780Y-5184140D02*
G75*
G03*
X12529820Y-5125720I-59690J-1270D01*
G01*
X13149580Y-5245100D02*
G75*
G03*
X13210540Y-5186680I1270J59690D01*
G01*
X6979920Y-5344160D02*
X9626600Y-5344160D01*
X12651740Y-5245100D02*
X13149580Y-5245100D01*
X14097000Y-5786120D02*
G75*
G03*
X13985240Y-5674360I-111760J0D01*
G01*
X6979920Y-5875020D02*
X6979920Y-5344160D01*
X12319000Y-6002020D02*
X12339320Y-6002020D01*
X6779261Y-5938520D02*
G75*
G03*
X6835140Y-6002020I59679J-3820D01*
G01*
X9626600Y-5880100D02*
G75*
G03*
X9867900Y-5880100I120650J0D01*
G01*
X10718800Y-15120620D02*
X10718800Y-15067280D01*
X5697220Y-5125720D02*
X6779260Y-5125720D01*
X6835140Y-6002020D02*
X6858000Y-6002020D01*
X13906500Y-11384280D02*
X13906500Y-9507220D01*
X10718800Y-15120620D02*
G75*
G03*
X10838180Y-15240000I119380J0D01*
G01*
X12198350Y-5880100D02*
G75*
G03*
X12319000Y-6002020I121280J-640D01*
G01*
X12339320Y-6002019D02*
G75*
G03*
X12400280Y-5943600I1280J59680D01*
G01*
X13906500Y-11384280D02*
G75*
G03*
X13982700Y-11460480I76200J0D01*
G01*
X6858000Y-6002020D02*
G75*
G03*
X6979920Y-5875020I-2540J124460D01*
G01*
X8806180Y-14947900D02*
X10599420Y-14947900D01*
X5156200Y-11460480D02*
X5194300Y-11460480D01*
X10838180Y-15240000D02*
X13977620Y-15240000D01*
X5270500Y-11384280D02*
X5270500Y-9507220D01*
X5156200Y-9431020D02*
X5194300Y-9431020D01*
X5080000Y-9354820D02*
X5080000Y-5786120D01*
X5638800Y-5628640D02*
X5638800Y-5184140D01*
X13538200Y-5626100D02*
X13538200Y-5181600D01*
X5189220Y-5674360D02*
X5588000Y-5674360D01*
X14097000Y-15113000D02*
X14097000Y-11536680D01*
X8806180Y-14947900D02*
G75*
G03*
X8686800Y-15067280I0J-119380D01*
G01*
X13982700Y-11460480D02*
X14020800Y-11460480D01*
X13977620Y-15240000D02*
G75*
G03*
X14097000Y-15113000I-3810J123190D01*
G01*
X14020800Y-9431020D02*
G75*
G03*
X14097000Y-9354820I0J76200D01*
G01*
X13982700Y-9431020D02*
G75*
G03*
X13906500Y-9507220I0J-76200D01*
G01*
X13982700Y-9431020D02*
X14020800Y-9431020D01*
D11*
D12*
X6430377Y-5212417D02*
X6500377Y-5282417D01*
X6500377Y-5212417D02*
X6430377Y-5282417D01*
X6430377Y-5392417D02*
X6500377Y-5462417D01*
X6500377Y-5392417D02*
X6430377Y-5462417D01*
D13*
X9321600Y-12065000D02*
G75*
G03*
X9321600Y-12065000I-50000J0D01*
G01*
D14*
X8522600Y-12000000D02*
X8522600Y-12130000D01*
X8457600Y-12065000D02*
X8587600Y-12065000D01*
D11*
X5321026Y-15558874D02*
X5321026Y-15358874D01*
X5321026Y-15358874D02*
X5368645Y-15358874D01*
X5368645Y-15358874D02*
X5397217Y-15368398D01*
X5397217Y-15368398D02*
X5416264Y-15387445D01*
X5416264Y-15387445D02*
X5425788Y-15406493D01*
X5425788Y-15406493D02*
X5435312Y-15444588D01*
X5435312Y-15444588D02*
X5435312Y-15473159D01*
X5435312Y-15473159D02*
X5425788Y-15511255D01*
X5425788Y-15511255D02*
X5416264Y-15530302D01*
X5416264Y-15530302D02*
X5397217Y-15549350D01*
X5397217Y-15549350D02*
X5368645Y-15558874D01*
X5368645Y-15558874D02*
X5321026Y-15558874D01*
X5521026Y-15558874D02*
X5521026Y-15425540D01*
X5521026Y-15463636D02*
X5530550Y-15444588D01*
X5530550Y-15444588D02*
X5540074Y-15435064D01*
X5540074Y-15435064D02*
X5559121Y-15425540D01*
X5559121Y-15425540D02*
X5578169Y-15425540D01*
X5644836Y-15558874D02*
X5644836Y-15425540D01*
X5644836Y-15358874D02*
X5635312Y-15368398D01*
X5635312Y-15368398D02*
X5644836Y-15377921D01*
X5644836Y-15377921D02*
X5654359Y-15368398D01*
X5654359Y-15368398D02*
X5644836Y-15358874D01*
X5644836Y-15358874D02*
X5644836Y-15377921D01*
X5768645Y-15558874D02*
X5749597Y-15549350D01*
X5749597Y-15549350D02*
X5740074Y-15530302D01*
X5740074Y-15530302D02*
X5740074Y-15358874D01*
X5873407Y-15558874D02*
X5854359Y-15549350D01*
X5854359Y-15549350D02*
X5844836Y-15530302D01*
X5844836Y-15530302D02*
X5844836Y-15358874D01*
X6101978Y-15558874D02*
X6101978Y-15358874D01*
X6101978Y-15358874D02*
X6168645Y-15501731D01*
X6168645Y-15501731D02*
X6235312Y-15358874D01*
X6235312Y-15358874D02*
X6235312Y-15558874D01*
X6416264Y-15558874D02*
X6416264Y-15454112D01*
X6416264Y-15454112D02*
X6406740Y-15435064D01*
X6406740Y-15435064D02*
X6387693Y-15425540D01*
X6387693Y-15425540D02*
X6349597Y-15425540D01*
X6349597Y-15425540D02*
X6330550Y-15435064D01*
X6416264Y-15549350D02*
X6397217Y-15558874D01*
X6397217Y-15558874D02*
X6349597Y-15558874D01*
X6349597Y-15558874D02*
X6330550Y-15549350D01*
X6330550Y-15549350D02*
X6321026Y-15530302D01*
X6321026Y-15530302D02*
X6321026Y-15511255D01*
X6321026Y-15511255D02*
X6330550Y-15492207D01*
X6330550Y-15492207D02*
X6349597Y-15482683D01*
X6349597Y-15482683D02*
X6397217Y-15482683D01*
X6397217Y-15482683D02*
X6416264Y-15473159D01*
X6511502Y-15425540D02*
X6511502Y-15625540D01*
X6511502Y-15435064D02*
X6530550Y-15425540D01*
X6530550Y-15425540D02*
X6568645Y-15425540D01*
X6568645Y-15425540D02*
X6587693Y-15435064D01*
X6587693Y-15435064D02*
X6597217Y-15444588D01*
X6597217Y-15444588D02*
X6606740Y-15463636D01*
X6606740Y-15463636D02*
X6606740Y-15520778D01*
X6606740Y-15520778D02*
X6597217Y-15539826D01*
X6597217Y-15539826D02*
X6587693Y-15549350D01*
X6587693Y-15549350D02*
X6568645Y-15558874D01*
X6568645Y-15558874D02*
X6530550Y-15558874D01*
X6530550Y-15558874D02*
X6511502Y-15549350D01*
X6692455Y-15539826D02*
X6701978Y-15549350D01*
X6701978Y-15549350D02*
X6692455Y-15558874D01*
X6692455Y-15558874D02*
X6682931Y-15549350D01*
X6682931Y-15549350D02*
X6692455Y-15539826D01*
X6692455Y-15539826D02*
X6692455Y-15558874D01*
X6692455Y-15435064D02*
X6701978Y-15444588D01*
X6701978Y-15444588D02*
X6692455Y-15454112D01*
X6692455Y-15454112D02*
X6682931Y-15444588D01*
X6682931Y-15444588D02*
X6692455Y-15435064D01*
X6692455Y-15435064D02*
X6692455Y-15454112D01*
D12*
X5003407Y-15851350D02*
X5073407Y-15921350D01*
X5073407Y-15851350D02*
X5003407Y-15921350D01*
D11*
X5359121Y-15778874D02*
X5378169Y-15778874D01*
X5378169Y-15778874D02*
X5397217Y-15788398D01*
X5397217Y-15788398D02*
X5406740Y-15797921D01*
X5406740Y-15797921D02*
X5416264Y-15816969D01*
X5416264Y-15816969D02*
X5425788Y-15855064D01*
X5425788Y-15855064D02*
X5425788Y-15902683D01*
X5425788Y-15902683D02*
X5416264Y-15940778D01*
X5416264Y-15940778D02*
X5406740Y-15959826D01*
X5406740Y-15959826D02*
X5397217Y-15969350D01*
X5397217Y-15969350D02*
X5378169Y-15978874D01*
X5378169Y-15978874D02*
X5359121Y-15978874D01*
X5359121Y-15978874D02*
X5340074Y-15969350D01*
X5340074Y-15969350D02*
X5330550Y-15959826D01*
X5330550Y-15959826D02*
X5321026Y-15940778D01*
X5321026Y-15940778D02*
X5311502Y-15902683D01*
X5311502Y-15902683D02*
X5311502Y-15855064D01*
X5311502Y-15855064D02*
X5321026Y-15816969D01*
X5321026Y-15816969D02*
X5330550Y-15797921D01*
X5330550Y-15797921D02*
X5340074Y-15788398D01*
X5340074Y-15788398D02*
X5359121Y-15778874D01*
X5511502Y-15959826D02*
X5521026Y-15969350D01*
X5521026Y-15969350D02*
X5511502Y-15978874D01*
X5511502Y-15978874D02*
X5501979Y-15969350D01*
X5501979Y-15969350D02*
X5511502Y-15959826D01*
X5511502Y-15959826D02*
X5511502Y-15978874D01*
X5587693Y-15778874D02*
X5721026Y-15778874D01*
X5721026Y-15778874D02*
X5635312Y-15978874D01*
X5835312Y-15778874D02*
X5854359Y-15778874D01*
X5854359Y-15778874D02*
X5873407Y-15788398D01*
X5873407Y-15788398D02*
X5882931Y-15797921D01*
X5882931Y-15797921D02*
X5892455Y-15816969D01*
X5892455Y-15816969D02*
X5901978Y-15855064D01*
X5901978Y-15855064D02*
X5901978Y-15902683D01*
X5901978Y-15902683D02*
X5892455Y-15940778D01*
X5892455Y-15940778D02*
X5882931Y-15959826D01*
X5882931Y-15959826D02*
X5873407Y-15969350D01*
X5873407Y-15969350D02*
X5854359Y-15978874D01*
X5854359Y-15978874D02*
X5835312Y-15978874D01*
X5835312Y-15978874D02*
X5816264Y-15969350D01*
X5816264Y-15969350D02*
X5806740Y-15959826D01*
X5806740Y-15959826D02*
X5797217Y-15940778D01*
X5797217Y-15940778D02*
X5787693Y-15902683D01*
X5787693Y-15902683D02*
X5787693Y-15855064D01*
X5787693Y-15855064D02*
X5797217Y-15816969D01*
X5797217Y-15816969D02*
X5806740Y-15797921D01*
X5806740Y-15797921D02*
X5816264Y-15788398D01*
X5816264Y-15788398D02*
X5835312Y-15778874D01*
X6025788Y-15778874D02*
X6044836Y-15778874D01*
X6044836Y-15778874D02*
X6063883Y-15788398D01*
X6063883Y-15788398D02*
X6073407Y-15797921D01*
X6073407Y-15797921D02*
X6082931Y-15816969D01*
X6082931Y-15816969D02*
X6092455Y-15855064D01*
X6092455Y-15855064D02*
X6092455Y-15902683D01*
X6092455Y-15902683D02*
X6082931Y-15940778D01*
X6082931Y-15940778D02*
X6073407Y-15959826D01*
X6073407Y-15959826D02*
X6063883Y-15969350D01*
X6063883Y-15969350D02*
X6044836Y-15978874D01*
X6044836Y-15978874D02*
X6025788Y-15978874D01*
X6025788Y-15978874D02*
X6006740Y-15969350D01*
X6006740Y-15969350D02*
X5997217Y-15959826D01*
X5997217Y-15959826D02*
X5987693Y-15940778D01*
X5987693Y-15940778D02*
X5978169Y-15902683D01*
X5978169Y-15902683D02*
X5978169Y-15855064D01*
X5978169Y-15855064D02*
X5987693Y-15816969D01*
X5987693Y-15816969D02*
X5997217Y-15797921D01*
X5997217Y-15797921D02*
X6006740Y-15788398D01*
X6006740Y-15788398D02*
X6025788Y-15778874D01*
X6178169Y-15978874D02*
X6178169Y-15845540D01*
X6178169Y-15864588D02*
X6187693Y-15855064D01*
X6187693Y-15855064D02*
X6206740Y-15845540D01*
X6206740Y-15845540D02*
X6235312Y-15845540D01*
X6235312Y-15845540D02*
X6254359Y-15855064D01*
X6254359Y-15855064D02*
X6263883Y-15874112D01*
X6263883Y-15874112D02*
X6263883Y-15978874D01*
X6263883Y-15874112D02*
X6273407Y-15855064D01*
X6273407Y-15855064D02*
X6292455Y-15845540D01*
X6292455Y-15845540D02*
X6321026Y-15845540D01*
X6321026Y-15845540D02*
X6340074Y-15855064D01*
X6340074Y-15855064D02*
X6349598Y-15874112D01*
X6349598Y-15874112D02*
X6349598Y-15978874D01*
X6444836Y-15978874D02*
X6444836Y-15845540D01*
X6444836Y-15864588D02*
X6454359Y-15855064D01*
X6454359Y-15855064D02*
X6473407Y-15845540D01*
X6473407Y-15845540D02*
X6501979Y-15845540D01*
X6501979Y-15845540D02*
X6521026Y-15855064D01*
X6521026Y-15855064D02*
X6530550Y-15874112D01*
X6530550Y-15874112D02*
X6530550Y-15978874D01*
X6530550Y-15874112D02*
X6540074Y-15855064D01*
X6540074Y-15855064D02*
X6559121Y-15845540D01*
X6559121Y-15845540D02*
X6587693Y-15845540D01*
X6587693Y-15845540D02*
X6606740Y-15855064D01*
X6606740Y-15855064D02*
X6616264Y-15874112D01*
X6616264Y-15874112D02*
X6616264Y-15978874D01*
X7006740Y-15769350D02*
X6835312Y-16026493D01*
X7263883Y-15778874D02*
X7282931Y-15778874D01*
X7282931Y-15778874D02*
X7301979Y-15788398D01*
X7301979Y-15788398D02*
X7311502Y-15797921D01*
X7311502Y-15797921D02*
X7321026Y-15816969D01*
X7321026Y-15816969D02*
X7330550Y-15855064D01*
X7330550Y-15855064D02*
X7330550Y-15902683D01*
X7330550Y-15902683D02*
X7321026Y-15940778D01*
X7321026Y-15940778D02*
X7311502Y-15959826D01*
X7311502Y-15959826D02*
X7301979Y-15969350D01*
X7301979Y-15969350D02*
X7282931Y-15978874D01*
X7282931Y-15978874D02*
X7263883Y-15978874D01*
X7263883Y-15978874D02*
X7244836Y-15969350D01*
X7244836Y-15969350D02*
X7235312Y-15959826D01*
X7235312Y-15959826D02*
X7225788Y-15940778D01*
X7225788Y-15940778D02*
X7216264Y-15902683D01*
X7216264Y-15902683D02*
X7216264Y-15855064D01*
X7216264Y-15855064D02*
X7225788Y-15816969D01*
X7225788Y-15816969D02*
X7235312Y-15797921D01*
X7235312Y-15797921D02*
X7244836Y-15788398D01*
X7244836Y-15788398D02*
X7263883Y-15778874D01*
X7416264Y-15959826D02*
X7425788Y-15969350D01*
X7425788Y-15969350D02*
X7416264Y-15978874D01*
X7416264Y-15978874D02*
X7406741Y-15969350D01*
X7406741Y-15969350D02*
X7416264Y-15959826D01*
X7416264Y-15959826D02*
X7416264Y-15978874D01*
X7549598Y-15778874D02*
X7568645Y-15778874D01*
X7568645Y-15778874D02*
X7587693Y-15788398D01*
X7587693Y-15788398D02*
X7597217Y-15797921D01*
X7597217Y-15797921D02*
X7606741Y-15816969D01*
X7606741Y-15816969D02*
X7616264Y-15855064D01*
X7616264Y-15855064D02*
X7616264Y-15902683D01*
X7616264Y-15902683D02*
X7606741Y-15940778D01*
X7606741Y-15940778D02*
X7597217Y-15959826D01*
X7597217Y-15959826D02*
X7587693Y-15969350D01*
X7587693Y-15969350D02*
X7568645Y-15978874D01*
X7568645Y-15978874D02*
X7549598Y-15978874D01*
X7549598Y-15978874D02*
X7530550Y-15969350D01*
X7530550Y-15969350D02*
X7521026Y-15959826D01*
X7521026Y-15959826D02*
X7511502Y-15940778D01*
X7511502Y-15940778D02*
X7501979Y-15902683D01*
X7501979Y-15902683D02*
X7501979Y-15855064D01*
X7501979Y-15855064D02*
X7511502Y-15816969D01*
X7511502Y-15816969D02*
X7521026Y-15797921D01*
X7521026Y-15797921D02*
X7530550Y-15788398D01*
X7530550Y-15788398D02*
X7549598Y-15778874D01*
X7692455Y-15797921D02*
X7701979Y-15788398D01*
X7701979Y-15788398D02*
X7721026Y-15778874D01*
X7721026Y-15778874D02*
X7768645Y-15778874D01*
X7768645Y-15778874D02*
X7787693Y-15788398D01*
X7787693Y-15788398D02*
X7797217Y-15797921D01*
X7797217Y-15797921D02*
X7806741Y-15816969D01*
X7806741Y-15816969D02*
X7806741Y-15836017D01*
X7806741Y-15836017D02*
X7797217Y-15864588D01*
X7797217Y-15864588D02*
X7682931Y-15978874D01*
X7682931Y-15978874D02*
X7806741Y-15978874D01*
X7873407Y-15778874D02*
X8006741Y-15778874D01*
X8006741Y-15778874D02*
X7921026Y-15978874D01*
X8168645Y-15778874D02*
X8130550Y-15778874D01*
X8130550Y-15778874D02*
X8111502Y-15788398D01*
X8111502Y-15788398D02*
X8101979Y-15797921D01*
X8101979Y-15797921D02*
X8082931Y-15826493D01*
X8082931Y-15826493D02*
X8073407Y-15864588D01*
X8073407Y-15864588D02*
X8073407Y-15940778D01*
X8073407Y-15940778D02*
X8082931Y-15959826D01*
X8082931Y-15959826D02*
X8092455Y-15969350D01*
X8092455Y-15969350D02*
X8111502Y-15978874D01*
X8111502Y-15978874D02*
X8149598Y-15978874D01*
X8149598Y-15978874D02*
X8168645Y-15969350D01*
X8168645Y-15969350D02*
X8178169Y-15959826D01*
X8178169Y-15959826D02*
X8187693Y-15940778D01*
X8187693Y-15940778D02*
X8187693Y-15893159D01*
X8187693Y-15893159D02*
X8178169Y-15874112D01*
X8178169Y-15874112D02*
X8168645Y-15864588D01*
X8168645Y-15864588D02*
X8149598Y-15855064D01*
X8149598Y-15855064D02*
X8111502Y-15855064D01*
X8111502Y-15855064D02*
X8092455Y-15864588D01*
X8092455Y-15864588D02*
X8082931Y-15874112D01*
X8082931Y-15874112D02*
X8073407Y-15893159D01*
X8263883Y-15778874D02*
X8263883Y-15816969D01*
X8340074Y-15778874D02*
X8340074Y-15816969D01*
X8635312Y-16055064D02*
X8625788Y-16045540D01*
X8625788Y-16045540D02*
X8606741Y-16016969D01*
X8606741Y-16016969D02*
X8597217Y-15997921D01*
X8597217Y-15997921D02*
X8587693Y-15969350D01*
X8587693Y-15969350D02*
X8578169Y-15921731D01*
X8578169Y-15921731D02*
X8578169Y-15883636D01*
X8578169Y-15883636D02*
X8587693Y-15836017D01*
X8587693Y-15836017D02*
X8597217Y-15807445D01*
X8597217Y-15807445D02*
X8606741Y-15788398D01*
X8606741Y-15788398D02*
X8625788Y-15759826D01*
X8625788Y-15759826D02*
X8635312Y-15750302D01*
X8701979Y-15797921D02*
X8711503Y-15788398D01*
X8711503Y-15788398D02*
X8730550Y-15778874D01*
X8730550Y-15778874D02*
X8778169Y-15778874D01*
X8778169Y-15778874D02*
X8797217Y-15788398D01*
X8797217Y-15788398D02*
X8806741Y-15797921D01*
X8806741Y-15797921D02*
X8816265Y-15816969D01*
X8816265Y-15816969D02*
X8816265Y-15836017D01*
X8816265Y-15836017D02*
X8806741Y-15864588D01*
X8806741Y-15864588D02*
X8692455Y-15978874D01*
X8692455Y-15978874D02*
X8816265Y-15978874D01*
X9054360Y-15978874D02*
X9054360Y-15778874D01*
X9140074Y-15978874D02*
X9140074Y-15874112D01*
X9140074Y-15874112D02*
X9130550Y-15855064D01*
X9130550Y-15855064D02*
X9111503Y-15845540D01*
X9111503Y-15845540D02*
X9082931Y-15845540D01*
X9082931Y-15845540D02*
X9063884Y-15855064D01*
X9063884Y-15855064D02*
X9054360Y-15864588D01*
X9263884Y-15978874D02*
X9244836Y-15969350D01*
X9244836Y-15969350D02*
X9235312Y-15959826D01*
X9235312Y-15959826D02*
X9225788Y-15940778D01*
X9225788Y-15940778D02*
X9225788Y-15883636D01*
X9225788Y-15883636D02*
X9235312Y-15864588D01*
X9235312Y-15864588D02*
X9244836Y-15855064D01*
X9244836Y-15855064D02*
X9263884Y-15845540D01*
X9263884Y-15845540D02*
X9292455Y-15845540D01*
X9292455Y-15845540D02*
X9311503Y-15855064D01*
X9311503Y-15855064D02*
X9321027Y-15864588D01*
X9321027Y-15864588D02*
X9330550Y-15883636D01*
X9330550Y-15883636D02*
X9330550Y-15940778D01*
X9330550Y-15940778D02*
X9321027Y-15959826D01*
X9321027Y-15959826D02*
X9311503Y-15969350D01*
X9311503Y-15969350D02*
X9292455Y-15978874D01*
X9292455Y-15978874D02*
X9263884Y-15978874D01*
X9444836Y-15978874D02*
X9425788Y-15969350D01*
X9425788Y-15969350D02*
X9416265Y-15950302D01*
X9416265Y-15950302D02*
X9416265Y-15778874D01*
X9597217Y-15969350D02*
X9578169Y-15978874D01*
X9578169Y-15978874D02*
X9540074Y-15978874D01*
X9540074Y-15978874D02*
X9521027Y-15969350D01*
X9521027Y-15969350D02*
X9511503Y-15950302D01*
X9511503Y-15950302D02*
X9511503Y-15874112D01*
X9511503Y-15874112D02*
X9521027Y-15855064D01*
X9521027Y-15855064D02*
X9540074Y-15845540D01*
X9540074Y-15845540D02*
X9578169Y-15845540D01*
X9578169Y-15845540D02*
X9597217Y-15855064D01*
X9597217Y-15855064D02*
X9606741Y-15874112D01*
X9606741Y-15874112D02*
X9606741Y-15893159D01*
X9606741Y-15893159D02*
X9511503Y-15912207D01*
X9682931Y-15969350D02*
X9701979Y-15978874D01*
X9701979Y-15978874D02*
X9740074Y-15978874D01*
X9740074Y-15978874D02*
X9759122Y-15969350D01*
X9759122Y-15969350D02*
X9768646Y-15950302D01*
X9768646Y-15950302D02*
X9768646Y-15940778D01*
X9768646Y-15940778D02*
X9759122Y-15921731D01*
X9759122Y-15921731D02*
X9740074Y-15912207D01*
X9740074Y-15912207D02*
X9711503Y-15912207D01*
X9711503Y-15912207D02*
X9692455Y-15902683D01*
X9692455Y-15902683D02*
X9682931Y-15883636D01*
X9682931Y-15883636D02*
X9682931Y-15874112D01*
X9682931Y-15874112D02*
X9692455Y-15855064D01*
X9692455Y-15855064D02*
X9711503Y-15845540D01*
X9711503Y-15845540D02*
X9740074Y-15845540D01*
X9740074Y-15845540D02*
X9759122Y-15855064D01*
X9835312Y-16055064D02*
X9844836Y-16045540D01*
X9844836Y-16045540D02*
X9863884Y-16016969D01*
X9863884Y-16016969D02*
X9873408Y-15997921D01*
X9873408Y-15997921D02*
X9882931Y-15969350D01*
X9882931Y-15969350D02*
X9892455Y-15921731D01*
X9892455Y-15921731D02*
X9892455Y-15883636D01*
X9892455Y-15883636D02*
X9882931Y-15836017D01*
X9882931Y-15836017D02*
X9873408Y-15807445D01*
X9873408Y-15807445D02*
X9863884Y-15788398D01*
X9863884Y-15788398D02*
X9844836Y-15759826D01*
X9844836Y-15759826D02*
X9835312Y-15750302D01*
X10197217Y-16055064D02*
X10187693Y-16045540D01*
X10187693Y-16045540D02*
X10168646Y-16016969D01*
X10168646Y-16016969D02*
X10159122Y-15997921D01*
X10159122Y-15997921D02*
X10149598Y-15969350D01*
X10149598Y-15969350D02*
X10140074Y-15921731D01*
X10140074Y-15921731D02*
X10140074Y-15883636D01*
X10140074Y-15883636D02*
X10149598Y-15836017D01*
X10149598Y-15836017D02*
X10159122Y-15807445D01*
X10159122Y-15807445D02*
X10168646Y-15788398D01*
X10168646Y-15788398D02*
X10187693Y-15759826D01*
X10187693Y-15759826D02*
X10197217Y-15750302D01*
X10273408Y-15845540D02*
X10273408Y-15978874D01*
X10273408Y-15864588D02*
X10282931Y-15855064D01*
X10282931Y-15855064D02*
X10301979Y-15845540D01*
X10301979Y-15845540D02*
X10330550Y-15845540D01*
X10330550Y-15845540D02*
X10349598Y-15855064D01*
X10349598Y-15855064D02*
X10359122Y-15874112D01*
X10359122Y-15874112D02*
X10359122Y-15978874D01*
X10482931Y-15978874D02*
X10463884Y-15969350D01*
X10463884Y-15969350D02*
X10454360Y-15959826D01*
X10454360Y-15959826D02*
X10444836Y-15940778D01*
X10444836Y-15940778D02*
X10444836Y-15883636D01*
X10444836Y-15883636D02*
X10454360Y-15864588D01*
X10454360Y-15864588D02*
X10463884Y-15855064D01*
X10463884Y-15855064D02*
X10482931Y-15845540D01*
X10482931Y-15845540D02*
X10511503Y-15845540D01*
X10511503Y-15845540D02*
X10530550Y-15855064D01*
X10530550Y-15855064D02*
X10540074Y-15864588D01*
X10540074Y-15864588D02*
X10549598Y-15883636D01*
X10549598Y-15883636D02*
X10549598Y-15940778D01*
X10549598Y-15940778D02*
X10540074Y-15959826D01*
X10540074Y-15959826D02*
X10530550Y-15969350D01*
X10530550Y-15969350D02*
X10511503Y-15978874D01*
X10511503Y-15978874D02*
X10482931Y-15978874D01*
X10606741Y-15845540D02*
X10682931Y-15845540D01*
X10635312Y-15778874D02*
X10635312Y-15950302D01*
X10635312Y-15950302D02*
X10644836Y-15969350D01*
X10644836Y-15969350D02*
X10663884Y-15978874D01*
X10663884Y-15978874D02*
X10682931Y-15978874D01*
X10901979Y-15845540D02*
X10901979Y-16045540D01*
X10901979Y-15855064D02*
X10921027Y-15845540D01*
X10921027Y-15845540D02*
X10959122Y-15845540D01*
X10959122Y-15845540D02*
X10978170Y-15855064D01*
X10978170Y-15855064D02*
X10987693Y-15864588D01*
X10987693Y-15864588D02*
X10997217Y-15883636D01*
X10997217Y-15883636D02*
X10997217Y-15940778D01*
X10997217Y-15940778D02*
X10987693Y-15959826D01*
X10987693Y-15959826D02*
X10978170Y-15969350D01*
X10978170Y-15969350D02*
X10959122Y-15978874D01*
X10959122Y-15978874D02*
X10921027Y-15978874D01*
X10921027Y-15978874D02*
X10901979Y-15969350D01*
X11111503Y-15978874D02*
X11092455Y-15969350D01*
X11092455Y-15969350D02*
X11082931Y-15950302D01*
X11082931Y-15950302D02*
X11082931Y-15778874D01*
X11273408Y-15978874D02*
X11273408Y-15874112D01*
X11273408Y-15874112D02*
X11263884Y-15855064D01*
X11263884Y-15855064D02*
X11244836Y-15845540D01*
X11244836Y-15845540D02*
X11206741Y-15845540D01*
X11206741Y-15845540D02*
X11187693Y-15855064D01*
X11273408Y-15969350D02*
X11254360Y-15978874D01*
X11254360Y-15978874D02*
X11206741Y-15978874D01*
X11206741Y-15978874D02*
X11187693Y-15969350D01*
X11187693Y-15969350D02*
X11178170Y-15950302D01*
X11178170Y-15950302D02*
X11178170Y-15931255D01*
X11178170Y-15931255D02*
X11187693Y-15912207D01*
X11187693Y-15912207D02*
X11206741Y-15902683D01*
X11206741Y-15902683D02*
X11254360Y-15902683D01*
X11254360Y-15902683D02*
X11273408Y-15893159D01*
X11340074Y-15845540D02*
X11416265Y-15845540D01*
X11368646Y-15778874D02*
X11368646Y-15950302D01*
X11368646Y-15950302D02*
X11378169Y-15969350D01*
X11378169Y-15969350D02*
X11397217Y-15978874D01*
X11397217Y-15978874D02*
X11416265Y-15978874D01*
X11559122Y-15969350D02*
X11540074Y-15978874D01*
X11540074Y-15978874D02*
X11501979Y-15978874D01*
X11501979Y-15978874D02*
X11482931Y-15969350D01*
X11482931Y-15969350D02*
X11473408Y-15950302D01*
X11473408Y-15950302D02*
X11473408Y-15874112D01*
X11473408Y-15874112D02*
X11482931Y-15855064D01*
X11482931Y-15855064D02*
X11501979Y-15845540D01*
X11501979Y-15845540D02*
X11540074Y-15845540D01*
X11540074Y-15845540D02*
X11559122Y-15855064D01*
X11559122Y-15855064D02*
X11568646Y-15874112D01*
X11568646Y-15874112D02*
X11568646Y-15893159D01*
X11568646Y-15893159D02*
X11473408Y-15912207D01*
X11740074Y-15978874D02*
X11740074Y-15778874D01*
X11740074Y-15969350D02*
X11721027Y-15978874D01*
X11721027Y-15978874D02*
X11682931Y-15978874D01*
X11682931Y-15978874D02*
X11663884Y-15969350D01*
X11663884Y-15969350D02*
X11654360Y-15959826D01*
X11654360Y-15959826D02*
X11644836Y-15940778D01*
X11644836Y-15940778D02*
X11644836Y-15883636D01*
X11644836Y-15883636D02*
X11654360Y-15864588D01*
X11654360Y-15864588D02*
X11663884Y-15855064D01*
X11663884Y-15855064D02*
X11682931Y-15845540D01*
X11682931Y-15845540D02*
X11721027Y-15845540D01*
X11721027Y-15845540D02*
X11740074Y-15855064D01*
X11816265Y-16055064D02*
X11825789Y-16045540D01*
X11825789Y-16045540D02*
X11844836Y-16016969D01*
X11844836Y-16016969D02*
X11854360Y-15997921D01*
X11854360Y-15997921D02*
X11863884Y-15969350D01*
X11863884Y-15969350D02*
X11873408Y-15921731D01*
X11873408Y-15921731D02*
X11873408Y-15883636D01*
X11873408Y-15883636D02*
X11863884Y-15836017D01*
X11863884Y-15836017D02*
X11854360Y-15807445D01*
X11854360Y-15807445D02*
X11844836Y-15788398D01*
X11844836Y-15788398D02*
X11825789Y-15759826D01*
X11825789Y-15759826D02*
X11816265Y-15750302D01*
D13*
X5073407Y-16150350D02*
G75*
G03*
X5073407Y-16150350I-50000J0D01*
G01*
D11*
X5425788Y-16242874D02*
X5311502Y-16242874D01*
X5368645Y-16242874D02*
X5368645Y-16042874D01*
X5368645Y-16042874D02*
X5349598Y-16071445D01*
X5349598Y-16071445D02*
X5330550Y-16090493D01*
X5330550Y-16090493D02*
X5311502Y-16100017D01*
X5511502Y-16223826D02*
X5521026Y-16233350D01*
X5521026Y-16233350D02*
X5511502Y-16242874D01*
X5511502Y-16242874D02*
X5501979Y-16233350D01*
X5501979Y-16233350D02*
X5511502Y-16223826D01*
X5511502Y-16223826D02*
X5511502Y-16242874D01*
X5644836Y-16042874D02*
X5663883Y-16042874D01*
X5663883Y-16042874D02*
X5682931Y-16052398D01*
X5682931Y-16052398D02*
X5692455Y-16061921D01*
X5692455Y-16061921D02*
X5701978Y-16080969D01*
X5701978Y-16080969D02*
X5711502Y-16119064D01*
X5711502Y-16119064D02*
X5711502Y-16166683D01*
X5711502Y-16166683D02*
X5701978Y-16204778D01*
X5701978Y-16204778D02*
X5692455Y-16223826D01*
X5692455Y-16223826D02*
X5682931Y-16233350D01*
X5682931Y-16233350D02*
X5663883Y-16242874D01*
X5663883Y-16242874D02*
X5644836Y-16242874D01*
X5644836Y-16242874D02*
X5625788Y-16233350D01*
X5625788Y-16233350D02*
X5616264Y-16223826D01*
X5616264Y-16223826D02*
X5606740Y-16204778D01*
X5606740Y-16204778D02*
X5597217Y-16166683D01*
X5597217Y-16166683D02*
X5597217Y-16119064D01*
X5597217Y-16119064D02*
X5606740Y-16080969D01*
X5606740Y-16080969D02*
X5616264Y-16061921D01*
X5616264Y-16061921D02*
X5625788Y-16052398D01*
X5625788Y-16052398D02*
X5644836Y-16042874D01*
X5835312Y-16042874D02*
X5854359Y-16042874D01*
X5854359Y-16042874D02*
X5873407Y-16052398D01*
X5873407Y-16052398D02*
X5882931Y-16061921D01*
X5882931Y-16061921D02*
X5892455Y-16080969D01*
X5892455Y-16080969D02*
X5901978Y-16119064D01*
X5901978Y-16119064D02*
X5901978Y-16166683D01*
X5901978Y-16166683D02*
X5892455Y-16204778D01*
X5892455Y-16204778D02*
X5882931Y-16223826D01*
X5882931Y-16223826D02*
X5873407Y-16233350D01*
X5873407Y-16233350D02*
X5854359Y-16242874D01*
X5854359Y-16242874D02*
X5835312Y-16242874D01*
X5835312Y-16242874D02*
X5816264Y-16233350D01*
X5816264Y-16233350D02*
X5806740Y-16223826D01*
X5806740Y-16223826D02*
X5797217Y-16204778D01*
X5797217Y-16204778D02*
X5787693Y-16166683D01*
X5787693Y-16166683D02*
X5787693Y-16119064D01*
X5787693Y-16119064D02*
X5797217Y-16080969D01*
X5797217Y-16080969D02*
X5806740Y-16061921D01*
X5806740Y-16061921D02*
X5816264Y-16052398D01*
X5816264Y-16052398D02*
X5835312Y-16042874D01*
X6025788Y-16042874D02*
X6044836Y-16042874D01*
X6044836Y-16042874D02*
X6063883Y-16052398D01*
X6063883Y-16052398D02*
X6073407Y-16061921D01*
X6073407Y-16061921D02*
X6082931Y-16080969D01*
X6082931Y-16080969D02*
X6092455Y-16119064D01*
X6092455Y-16119064D02*
X6092455Y-16166683D01*
X6092455Y-16166683D02*
X6082931Y-16204778D01*
X6082931Y-16204778D02*
X6073407Y-16223826D01*
X6073407Y-16223826D02*
X6063883Y-16233350D01*
X6063883Y-16233350D02*
X6044836Y-16242874D01*
X6044836Y-16242874D02*
X6025788Y-16242874D01*
X6025788Y-16242874D02*
X6006740Y-16233350D01*
X6006740Y-16233350D02*
X5997217Y-16223826D01*
X5997217Y-16223826D02*
X5987693Y-16204778D01*
X5987693Y-16204778D02*
X5978169Y-16166683D01*
X5978169Y-16166683D02*
X5978169Y-16119064D01*
X5978169Y-16119064D02*
X5987693Y-16080969D01*
X5987693Y-16080969D02*
X5997217Y-16061921D01*
X5997217Y-16061921D02*
X6006740Y-16052398D01*
X6006740Y-16052398D02*
X6025788Y-16042874D01*
X6178169Y-16242874D02*
X6178169Y-16109540D01*
X6178169Y-16128588D02*
X6187693Y-16119064D01*
X6187693Y-16119064D02*
X6206740Y-16109540D01*
X6206740Y-16109540D02*
X6235312Y-16109540D01*
X6235312Y-16109540D02*
X6254359Y-16119064D01*
X6254359Y-16119064D02*
X6263883Y-16138112D01*
X6263883Y-16138112D02*
X6263883Y-16242874D01*
X6263883Y-16138112D02*
X6273407Y-16119064D01*
X6273407Y-16119064D02*
X6292455Y-16109540D01*
X6292455Y-16109540D02*
X6321026Y-16109540D01*
X6321026Y-16109540D02*
X6340074Y-16119064D01*
X6340074Y-16119064D02*
X6349598Y-16138112D01*
X6349598Y-16138112D02*
X6349598Y-16242874D01*
X6444836Y-16242874D02*
X6444836Y-16109540D01*
X6444836Y-16128588D02*
X6454359Y-16119064D01*
X6454359Y-16119064D02*
X6473407Y-16109540D01*
X6473407Y-16109540D02*
X6501979Y-16109540D01*
X6501979Y-16109540D02*
X6521026Y-16119064D01*
X6521026Y-16119064D02*
X6530550Y-16138112D01*
X6530550Y-16138112D02*
X6530550Y-16242874D01*
X6530550Y-16138112D02*
X6540074Y-16119064D01*
X6540074Y-16119064D02*
X6559121Y-16109540D01*
X6559121Y-16109540D02*
X6587693Y-16109540D01*
X6587693Y-16109540D02*
X6606740Y-16119064D01*
X6606740Y-16119064D02*
X6616264Y-16138112D01*
X6616264Y-16138112D02*
X6616264Y-16242874D01*
X7006740Y-16033350D02*
X6835312Y-16290493D01*
X7263883Y-16042874D02*
X7282931Y-16042874D01*
X7282931Y-16042874D02*
X7301979Y-16052398D01*
X7301979Y-16052398D02*
X7311502Y-16061921D01*
X7311502Y-16061921D02*
X7321026Y-16080969D01*
X7321026Y-16080969D02*
X7330550Y-16119064D01*
X7330550Y-16119064D02*
X7330550Y-16166683D01*
X7330550Y-16166683D02*
X7321026Y-16204778D01*
X7321026Y-16204778D02*
X7311502Y-16223826D01*
X7311502Y-16223826D02*
X7301979Y-16233350D01*
X7301979Y-16233350D02*
X7282931Y-16242874D01*
X7282931Y-16242874D02*
X7263883Y-16242874D01*
X7263883Y-16242874D02*
X7244836Y-16233350D01*
X7244836Y-16233350D02*
X7235312Y-16223826D01*
X7235312Y-16223826D02*
X7225788Y-16204778D01*
X7225788Y-16204778D02*
X7216264Y-16166683D01*
X7216264Y-16166683D02*
X7216264Y-16119064D01*
X7216264Y-16119064D02*
X7225788Y-16080969D01*
X7225788Y-16080969D02*
X7235312Y-16061921D01*
X7235312Y-16061921D02*
X7244836Y-16052398D01*
X7244836Y-16052398D02*
X7263883Y-16042874D01*
X7416264Y-16223826D02*
X7425788Y-16233350D01*
X7425788Y-16233350D02*
X7416264Y-16242874D01*
X7416264Y-16242874D02*
X7406741Y-16233350D01*
X7406741Y-16233350D02*
X7416264Y-16223826D01*
X7416264Y-16223826D02*
X7416264Y-16242874D01*
X7549598Y-16042874D02*
X7568645Y-16042874D01*
X7568645Y-16042874D02*
X7587693Y-16052398D01*
X7587693Y-16052398D02*
X7597217Y-16061921D01*
X7597217Y-16061921D02*
X7606741Y-16080969D01*
X7606741Y-16080969D02*
X7616264Y-16119064D01*
X7616264Y-16119064D02*
X7616264Y-16166683D01*
X7616264Y-16166683D02*
X7606741Y-16204778D01*
X7606741Y-16204778D02*
X7597217Y-16223826D01*
X7597217Y-16223826D02*
X7587693Y-16233350D01*
X7587693Y-16233350D02*
X7568645Y-16242874D01*
X7568645Y-16242874D02*
X7549598Y-16242874D01*
X7549598Y-16242874D02*
X7530550Y-16233350D01*
X7530550Y-16233350D02*
X7521026Y-16223826D01*
X7521026Y-16223826D02*
X7511502Y-16204778D01*
X7511502Y-16204778D02*
X7501979Y-16166683D01*
X7501979Y-16166683D02*
X7501979Y-16119064D01*
X7501979Y-16119064D02*
X7511502Y-16080969D01*
X7511502Y-16080969D02*
X7521026Y-16061921D01*
X7521026Y-16061921D02*
X7530550Y-16052398D01*
X7530550Y-16052398D02*
X7549598Y-16042874D01*
X7682931Y-16042874D02*
X7806741Y-16042874D01*
X7806741Y-16042874D02*
X7740074Y-16119064D01*
X7740074Y-16119064D02*
X7768645Y-16119064D01*
X7768645Y-16119064D02*
X7787693Y-16128588D01*
X7787693Y-16128588D02*
X7797217Y-16138112D01*
X7797217Y-16138112D02*
X7806741Y-16157159D01*
X7806741Y-16157159D02*
X7806741Y-16204778D01*
X7806741Y-16204778D02*
X7797217Y-16223826D01*
X7797217Y-16223826D02*
X7787693Y-16233350D01*
X7787693Y-16233350D02*
X7768645Y-16242874D01*
X7768645Y-16242874D02*
X7711502Y-16242874D01*
X7711502Y-16242874D02*
X7692455Y-16233350D01*
X7692455Y-16233350D02*
X7682931Y-16223826D01*
X7901979Y-16242874D02*
X7940074Y-16242874D01*
X7940074Y-16242874D02*
X7959122Y-16233350D01*
X7959122Y-16233350D02*
X7968645Y-16223826D01*
X7968645Y-16223826D02*
X7987693Y-16195255D01*
X7987693Y-16195255D02*
X7997217Y-16157159D01*
X7997217Y-16157159D02*
X7997217Y-16080969D01*
X7997217Y-16080969D02*
X7987693Y-16061921D01*
X7987693Y-16061921D02*
X7978169Y-16052398D01*
X7978169Y-16052398D02*
X7959122Y-16042874D01*
X7959122Y-16042874D02*
X7921026Y-16042874D01*
X7921026Y-16042874D02*
X7901979Y-16052398D01*
X7901979Y-16052398D02*
X7892455Y-16061921D01*
X7892455Y-16061921D02*
X7882931Y-16080969D01*
X7882931Y-16080969D02*
X7882931Y-16128588D01*
X7882931Y-16128588D02*
X7892455Y-16147636D01*
X7892455Y-16147636D02*
X7901979Y-16157159D01*
X7901979Y-16157159D02*
X7921026Y-16166683D01*
X7921026Y-16166683D02*
X7959122Y-16166683D01*
X7959122Y-16166683D02*
X7978169Y-16157159D01*
X7978169Y-16157159D02*
X7987693Y-16147636D01*
X7987693Y-16147636D02*
X7997217Y-16128588D01*
X8168645Y-16109540D02*
X8168645Y-16242874D01*
X8121026Y-16033350D02*
X8073407Y-16176207D01*
X8073407Y-16176207D02*
X8197217Y-16176207D01*
X8263883Y-16042874D02*
X8263883Y-16080969D01*
X8340074Y-16042874D02*
X8340074Y-16080969D01*
X8635312Y-16319064D02*
X8625788Y-16309540D01*
X8625788Y-16309540D02*
X8606741Y-16280969D01*
X8606741Y-16280969D02*
X8597217Y-16261921D01*
X8597217Y-16261921D02*
X8587693Y-16233350D01*
X8587693Y-16233350D02*
X8578169Y-16185731D01*
X8578169Y-16185731D02*
X8578169Y-16147636D01*
X8578169Y-16147636D02*
X8587693Y-16100017D01*
X8587693Y-16100017D02*
X8597217Y-16071445D01*
X8597217Y-16071445D02*
X8606741Y-16052398D01*
X8606741Y-16052398D02*
X8625788Y-16023826D01*
X8625788Y-16023826D02*
X8635312Y-16014302D01*
X8816265Y-16242874D02*
X8701979Y-16242874D01*
X8759122Y-16242874D02*
X8759122Y-16042874D01*
X8759122Y-16042874D02*
X8740074Y-16071445D01*
X8740074Y-16071445D02*
X8721026Y-16090493D01*
X8721026Y-16090493D02*
X8701979Y-16100017D01*
X9054360Y-16242874D02*
X9054360Y-16042874D01*
X9140074Y-16242874D02*
X9140074Y-16138112D01*
X9140074Y-16138112D02*
X9130550Y-16119064D01*
X9130550Y-16119064D02*
X9111503Y-16109540D01*
X9111503Y-16109540D02*
X9082931Y-16109540D01*
X9082931Y-16109540D02*
X9063884Y-16119064D01*
X9063884Y-16119064D02*
X9054360Y-16128588D01*
X9263884Y-16242874D02*
X9244836Y-16233350D01*
X9244836Y-16233350D02*
X9235312Y-16223826D01*
X9235312Y-16223826D02*
X9225788Y-16204778D01*
X9225788Y-16204778D02*
X9225788Y-16147636D01*
X9225788Y-16147636D02*
X9235312Y-16128588D01*
X9235312Y-16128588D02*
X9244836Y-16119064D01*
X9244836Y-16119064D02*
X9263884Y-16109540D01*
X9263884Y-16109540D02*
X9292455Y-16109540D01*
X9292455Y-16109540D02*
X9311503Y-16119064D01*
X9311503Y-16119064D02*
X9321027Y-16128588D01*
X9321027Y-16128588D02*
X9330550Y-16147636D01*
X9330550Y-16147636D02*
X9330550Y-16204778D01*
X9330550Y-16204778D02*
X9321027Y-16223826D01*
X9321027Y-16223826D02*
X9311503Y-16233350D01*
X9311503Y-16233350D02*
X9292455Y-16242874D01*
X9292455Y-16242874D02*
X9263884Y-16242874D01*
X9444836Y-16242874D02*
X9425788Y-16233350D01*
X9425788Y-16233350D02*
X9416265Y-16214302D01*
X9416265Y-16214302D02*
X9416265Y-16042874D01*
X9597217Y-16233350D02*
X9578169Y-16242874D01*
X9578169Y-16242874D02*
X9540074Y-16242874D01*
X9540074Y-16242874D02*
X9521027Y-16233350D01*
X9521027Y-16233350D02*
X9511503Y-16214302D01*
X9511503Y-16214302D02*
X9511503Y-16138112D01*
X9511503Y-16138112D02*
X9521027Y-16119064D01*
X9521027Y-16119064D02*
X9540074Y-16109540D01*
X9540074Y-16109540D02*
X9578169Y-16109540D01*
X9578169Y-16109540D02*
X9597217Y-16119064D01*
X9597217Y-16119064D02*
X9606741Y-16138112D01*
X9606741Y-16138112D02*
X9606741Y-16157159D01*
X9606741Y-16157159D02*
X9511503Y-16176207D01*
X9673408Y-16319064D02*
X9682931Y-16309540D01*
X9682931Y-16309540D02*
X9701979Y-16280969D01*
X9701979Y-16280969D02*
X9711503Y-16261921D01*
X9711503Y-16261921D02*
X9721027Y-16233350D01*
X9721027Y-16233350D02*
X9730550Y-16185731D01*
X9730550Y-16185731D02*
X9730550Y-16147636D01*
X9730550Y-16147636D02*
X9721027Y-16100017D01*
X9721027Y-16100017D02*
X9711503Y-16071445D01*
X9711503Y-16071445D02*
X9701979Y-16052398D01*
X9701979Y-16052398D02*
X9682931Y-16023826D01*
X9682931Y-16023826D02*
X9673408Y-16014302D01*
X10035312Y-16319064D02*
X10025788Y-16309540D01*
X10025788Y-16309540D02*
X10006741Y-16280969D01*
X10006741Y-16280969D02*
X9997217Y-16261921D01*
X9997217Y-16261921D02*
X9987693Y-16233350D01*
X9987693Y-16233350D02*
X9978169Y-16185731D01*
X9978169Y-16185731D02*
X9978169Y-16147636D01*
X9978169Y-16147636D02*
X9987693Y-16100017D01*
X9987693Y-16100017D02*
X9997217Y-16071445D01*
X9997217Y-16071445D02*
X10006741Y-16052398D01*
X10006741Y-16052398D02*
X10025788Y-16023826D01*
X10025788Y-16023826D02*
X10035312Y-16014302D01*
X10111503Y-16109540D02*
X10111503Y-16242874D01*
X10111503Y-16128588D02*
X10121027Y-16119064D01*
X10121027Y-16119064D02*
X10140074Y-16109540D01*
X10140074Y-16109540D02*
X10168646Y-16109540D01*
X10168646Y-16109540D02*
X10187693Y-16119064D01*
X10187693Y-16119064D02*
X10197217Y-16138112D01*
X10197217Y-16138112D02*
X10197217Y-16242874D01*
X10321027Y-16242874D02*
X10301979Y-16233350D01*
X10301979Y-16233350D02*
X10292455Y-16223826D01*
X10292455Y-16223826D02*
X10282931Y-16204778D01*
X10282931Y-16204778D02*
X10282931Y-16147636D01*
X10282931Y-16147636D02*
X10292455Y-16128588D01*
X10292455Y-16128588D02*
X10301979Y-16119064D01*
X10301979Y-16119064D02*
X10321027Y-16109540D01*
X10321027Y-16109540D02*
X10349598Y-16109540D01*
X10349598Y-16109540D02*
X10368646Y-16119064D01*
X10368646Y-16119064D02*
X10378169Y-16128588D01*
X10378169Y-16128588D02*
X10387693Y-16147636D01*
X10387693Y-16147636D02*
X10387693Y-16204778D01*
X10387693Y-16204778D02*
X10378169Y-16223826D01*
X10378169Y-16223826D02*
X10368646Y-16233350D01*
X10368646Y-16233350D02*
X10349598Y-16242874D01*
X10349598Y-16242874D02*
X10321027Y-16242874D01*
X10444836Y-16109540D02*
X10521027Y-16109540D01*
X10473408Y-16042874D02*
X10473408Y-16214302D01*
X10473408Y-16214302D02*
X10482931Y-16233350D01*
X10482931Y-16233350D02*
X10501979Y-16242874D01*
X10501979Y-16242874D02*
X10521027Y-16242874D01*
X10740074Y-16109540D02*
X10740074Y-16309540D01*
X10740074Y-16119064D02*
X10759122Y-16109540D01*
X10759122Y-16109540D02*
X10797217Y-16109540D01*
X10797217Y-16109540D02*
X10816265Y-16119064D01*
X10816265Y-16119064D02*
X10825789Y-16128588D01*
X10825789Y-16128588D02*
X10835312Y-16147636D01*
X10835312Y-16147636D02*
X10835312Y-16204778D01*
X10835312Y-16204778D02*
X10825789Y-16223826D01*
X10825789Y-16223826D02*
X10816265Y-16233350D01*
X10816265Y-16233350D02*
X10797217Y-16242874D01*
X10797217Y-16242874D02*
X10759122Y-16242874D01*
X10759122Y-16242874D02*
X10740074Y-16233350D01*
X10949598Y-16242874D02*
X10930550Y-16233350D01*
X10930550Y-16233350D02*
X10921027Y-16214302D01*
X10921027Y-16214302D02*
X10921027Y-16042874D01*
X11111503Y-16242874D02*
X11111503Y-16138112D01*
X11111503Y-16138112D02*
X11101979Y-16119064D01*
X11101979Y-16119064D02*
X11082931Y-16109540D01*
X11082931Y-16109540D02*
X11044836Y-16109540D01*
X11044836Y-16109540D02*
X11025789Y-16119064D01*
X11111503Y-16233350D02*
X11092455Y-16242874D01*
X11092455Y-16242874D02*
X11044836Y-16242874D01*
X11044836Y-16242874D02*
X11025789Y-16233350D01*
X11025789Y-16233350D02*
X11016265Y-16214302D01*
X11016265Y-16214302D02*
X11016265Y-16195255D01*
X11016265Y-16195255D02*
X11025789Y-16176207D01*
X11025789Y-16176207D02*
X11044836Y-16166683D01*
X11044836Y-16166683D02*
X11092455Y-16166683D01*
X11092455Y-16166683D02*
X11111503Y-16157159D01*
X11178170Y-16109540D02*
X11254360Y-16109540D01*
X11206741Y-16042874D02*
X11206741Y-16214302D01*
X11206741Y-16214302D02*
X11216265Y-16233350D01*
X11216265Y-16233350D02*
X11235312Y-16242874D01*
X11235312Y-16242874D02*
X11254360Y-16242874D01*
X11397217Y-16233350D02*
X11378169Y-16242874D01*
X11378169Y-16242874D02*
X11340074Y-16242874D01*
X11340074Y-16242874D02*
X11321027Y-16233350D01*
X11321027Y-16233350D02*
X11311503Y-16214302D01*
X11311503Y-16214302D02*
X11311503Y-16138112D01*
X11311503Y-16138112D02*
X11321027Y-16119064D01*
X11321027Y-16119064D02*
X11340074Y-16109540D01*
X11340074Y-16109540D02*
X11378169Y-16109540D01*
X11378169Y-16109540D02*
X11397217Y-16119064D01*
X11397217Y-16119064D02*
X11406741Y-16138112D01*
X11406741Y-16138112D02*
X11406741Y-16157159D01*
X11406741Y-16157159D02*
X11311503Y-16176207D01*
X11578169Y-16242874D02*
X11578169Y-16042874D01*
X11578169Y-16233350D02*
X11559122Y-16242874D01*
X11559122Y-16242874D02*
X11521027Y-16242874D01*
X11521027Y-16242874D02*
X11501979Y-16233350D01*
X11501979Y-16233350D02*
X11492455Y-16223826D01*
X11492455Y-16223826D02*
X11482931Y-16204778D01*
X11482931Y-16204778D02*
X11482931Y-16147636D01*
X11482931Y-16147636D02*
X11492455Y-16128588D01*
X11492455Y-16128588D02*
X11501979Y-16119064D01*
X11501979Y-16119064D02*
X11521027Y-16109540D01*
X11521027Y-16109540D02*
X11559122Y-16109540D01*
X11559122Y-16109540D02*
X11578169Y-16119064D01*
X11654360Y-16319064D02*
X11663884Y-16309540D01*
X11663884Y-16309540D02*
X11682931Y-16280969D01*
X11682931Y-16280969D02*
X11692455Y-16261921D01*
X11692455Y-16261921D02*
X11701979Y-16233350D01*
X11701979Y-16233350D02*
X11711503Y-16185731D01*
X11711503Y-16185731D02*
X11711503Y-16147636D01*
X11711503Y-16147636D02*
X11701979Y-16100017D01*
X11701979Y-16100017D02*
X11692455Y-16071445D01*
X11692455Y-16071445D02*
X11682931Y-16052398D01*
X11682931Y-16052398D02*
X11663884Y-16023826D01*
X11663884Y-16023826D02*
X11654360Y-16014302D01*
D14*
X5008407Y-16349350D02*
X5008407Y-16479350D01*
X4943407Y-16414350D02*
X5073407Y-16414350D01*
D11*
X5425788Y-16506874D02*
X5311502Y-16506874D01*
X5368645Y-16506874D02*
X5368645Y-16306874D01*
X5368645Y-16306874D02*
X5349598Y-16335445D01*
X5349598Y-16335445D02*
X5330550Y-16354493D01*
X5330550Y-16354493D02*
X5311502Y-16364017D01*
X5511502Y-16487826D02*
X5521026Y-16497350D01*
X5521026Y-16497350D02*
X5511502Y-16506874D01*
X5511502Y-16506874D02*
X5501979Y-16497350D01*
X5501979Y-16497350D02*
X5511502Y-16487826D01*
X5511502Y-16487826D02*
X5511502Y-16506874D01*
X5587693Y-16306874D02*
X5711502Y-16306874D01*
X5711502Y-16306874D02*
X5644836Y-16383064D01*
X5644836Y-16383064D02*
X5673407Y-16383064D01*
X5673407Y-16383064D02*
X5692455Y-16392588D01*
X5692455Y-16392588D02*
X5701978Y-16402112D01*
X5701978Y-16402112D02*
X5711502Y-16421159D01*
X5711502Y-16421159D02*
X5711502Y-16468778D01*
X5711502Y-16468778D02*
X5701978Y-16487826D01*
X5701978Y-16487826D02*
X5692455Y-16497350D01*
X5692455Y-16497350D02*
X5673407Y-16506874D01*
X5673407Y-16506874D02*
X5616264Y-16506874D01*
X5616264Y-16506874D02*
X5597217Y-16497350D01*
X5597217Y-16497350D02*
X5587693Y-16487826D01*
X5835312Y-16306874D02*
X5854359Y-16306874D01*
X5854359Y-16306874D02*
X5873407Y-16316398D01*
X5873407Y-16316398D02*
X5882931Y-16325921D01*
X5882931Y-16325921D02*
X5892455Y-16344969D01*
X5892455Y-16344969D02*
X5901978Y-16383064D01*
X5901978Y-16383064D02*
X5901978Y-16430683D01*
X5901978Y-16430683D02*
X5892455Y-16468778D01*
X5892455Y-16468778D02*
X5882931Y-16487826D01*
X5882931Y-16487826D02*
X5873407Y-16497350D01*
X5873407Y-16497350D02*
X5854359Y-16506874D01*
X5854359Y-16506874D02*
X5835312Y-16506874D01*
X5835312Y-16506874D02*
X5816264Y-16497350D01*
X5816264Y-16497350D02*
X5806740Y-16487826D01*
X5806740Y-16487826D02*
X5797217Y-16468778D01*
X5797217Y-16468778D02*
X5787693Y-16430683D01*
X5787693Y-16430683D02*
X5787693Y-16383064D01*
X5787693Y-16383064D02*
X5797217Y-16344969D01*
X5797217Y-16344969D02*
X5806740Y-16325921D01*
X5806740Y-16325921D02*
X5816264Y-16316398D01*
X5816264Y-16316398D02*
X5835312Y-16306874D01*
X6025788Y-16306874D02*
X6044836Y-16306874D01*
X6044836Y-16306874D02*
X6063883Y-16316398D01*
X6063883Y-16316398D02*
X6073407Y-16325921D01*
X6073407Y-16325921D02*
X6082931Y-16344969D01*
X6082931Y-16344969D02*
X6092455Y-16383064D01*
X6092455Y-16383064D02*
X6092455Y-16430683D01*
X6092455Y-16430683D02*
X6082931Y-16468778D01*
X6082931Y-16468778D02*
X6073407Y-16487826D01*
X6073407Y-16487826D02*
X6063883Y-16497350D01*
X6063883Y-16497350D02*
X6044836Y-16506874D01*
X6044836Y-16506874D02*
X6025788Y-16506874D01*
X6025788Y-16506874D02*
X6006740Y-16497350D01*
X6006740Y-16497350D02*
X5997217Y-16487826D01*
X5997217Y-16487826D02*
X5987693Y-16468778D01*
X5987693Y-16468778D02*
X5978169Y-16430683D01*
X5978169Y-16430683D02*
X5978169Y-16383064D01*
X5978169Y-16383064D02*
X5987693Y-16344969D01*
X5987693Y-16344969D02*
X5997217Y-16325921D01*
X5997217Y-16325921D02*
X6006740Y-16316398D01*
X6006740Y-16316398D02*
X6025788Y-16306874D01*
X6178169Y-16506874D02*
X6178169Y-16373540D01*
X6178169Y-16392588D02*
X6187693Y-16383064D01*
X6187693Y-16383064D02*
X6206740Y-16373540D01*
X6206740Y-16373540D02*
X6235312Y-16373540D01*
X6235312Y-16373540D02*
X6254359Y-16383064D01*
X6254359Y-16383064D02*
X6263883Y-16402112D01*
X6263883Y-16402112D02*
X6263883Y-16506874D01*
X6263883Y-16402112D02*
X6273407Y-16383064D01*
X6273407Y-16383064D02*
X6292455Y-16373540D01*
X6292455Y-16373540D02*
X6321026Y-16373540D01*
X6321026Y-16373540D02*
X6340074Y-16383064D01*
X6340074Y-16383064D02*
X6349598Y-16402112D01*
X6349598Y-16402112D02*
X6349598Y-16506874D01*
X6444836Y-16506874D02*
X6444836Y-16373540D01*
X6444836Y-16392588D02*
X6454359Y-16383064D01*
X6454359Y-16383064D02*
X6473407Y-16373540D01*
X6473407Y-16373540D02*
X6501979Y-16373540D01*
X6501979Y-16373540D02*
X6521026Y-16383064D01*
X6521026Y-16383064D02*
X6530550Y-16402112D01*
X6530550Y-16402112D02*
X6530550Y-16506874D01*
X6530550Y-16402112D02*
X6540074Y-16383064D01*
X6540074Y-16383064D02*
X6559121Y-16373540D01*
X6559121Y-16373540D02*
X6587693Y-16373540D01*
X6587693Y-16373540D02*
X6606740Y-16383064D01*
X6606740Y-16383064D02*
X6616264Y-16402112D01*
X6616264Y-16402112D02*
X6616264Y-16506874D01*
X7006740Y-16297350D02*
X6835312Y-16554493D01*
X7263883Y-16306874D02*
X7282931Y-16306874D01*
X7282931Y-16306874D02*
X7301979Y-16316398D01*
X7301979Y-16316398D02*
X7311502Y-16325921D01*
X7311502Y-16325921D02*
X7321026Y-16344969D01*
X7321026Y-16344969D02*
X7330550Y-16383064D01*
X7330550Y-16383064D02*
X7330550Y-16430683D01*
X7330550Y-16430683D02*
X7321026Y-16468778D01*
X7321026Y-16468778D02*
X7311502Y-16487826D01*
X7311502Y-16487826D02*
X7301979Y-16497350D01*
X7301979Y-16497350D02*
X7282931Y-16506874D01*
X7282931Y-16506874D02*
X7263883Y-16506874D01*
X7263883Y-16506874D02*
X7244836Y-16497350D01*
X7244836Y-16497350D02*
X7235312Y-16487826D01*
X7235312Y-16487826D02*
X7225788Y-16468778D01*
X7225788Y-16468778D02*
X7216264Y-16430683D01*
X7216264Y-16430683D02*
X7216264Y-16383064D01*
X7216264Y-16383064D02*
X7225788Y-16344969D01*
X7225788Y-16344969D02*
X7235312Y-16325921D01*
X7235312Y-16325921D02*
X7244836Y-16316398D01*
X7244836Y-16316398D02*
X7263883Y-16306874D01*
X7416264Y-16487826D02*
X7425788Y-16497350D01*
X7425788Y-16497350D02*
X7416264Y-16506874D01*
X7416264Y-16506874D02*
X7406741Y-16497350D01*
X7406741Y-16497350D02*
X7416264Y-16487826D01*
X7416264Y-16487826D02*
X7416264Y-16506874D01*
X7549598Y-16306874D02*
X7568645Y-16306874D01*
X7568645Y-16306874D02*
X7587693Y-16316398D01*
X7587693Y-16316398D02*
X7597217Y-16325921D01*
X7597217Y-16325921D02*
X7606741Y-16344969D01*
X7606741Y-16344969D02*
X7616264Y-16383064D01*
X7616264Y-16383064D02*
X7616264Y-16430683D01*
X7616264Y-16430683D02*
X7606741Y-16468778D01*
X7606741Y-16468778D02*
X7597217Y-16487826D01*
X7597217Y-16487826D02*
X7587693Y-16497350D01*
X7587693Y-16497350D02*
X7568645Y-16506874D01*
X7568645Y-16506874D02*
X7549598Y-16506874D01*
X7549598Y-16506874D02*
X7530550Y-16497350D01*
X7530550Y-16497350D02*
X7521026Y-16487826D01*
X7521026Y-16487826D02*
X7511502Y-16468778D01*
X7511502Y-16468778D02*
X7501979Y-16430683D01*
X7501979Y-16430683D02*
X7501979Y-16383064D01*
X7501979Y-16383064D02*
X7511502Y-16344969D01*
X7511502Y-16344969D02*
X7521026Y-16325921D01*
X7521026Y-16325921D02*
X7530550Y-16316398D01*
X7530550Y-16316398D02*
X7549598Y-16306874D01*
X7797217Y-16306874D02*
X7701979Y-16306874D01*
X7701979Y-16306874D02*
X7692455Y-16402112D01*
X7692455Y-16402112D02*
X7701979Y-16392588D01*
X7701979Y-16392588D02*
X7721026Y-16383064D01*
X7721026Y-16383064D02*
X7768645Y-16383064D01*
X7768645Y-16383064D02*
X7787693Y-16392588D01*
X7787693Y-16392588D02*
X7797217Y-16402112D01*
X7797217Y-16402112D02*
X7806741Y-16421159D01*
X7806741Y-16421159D02*
X7806741Y-16468778D01*
X7806741Y-16468778D02*
X7797217Y-16487826D01*
X7797217Y-16487826D02*
X7787693Y-16497350D01*
X7787693Y-16497350D02*
X7768645Y-16506874D01*
X7768645Y-16506874D02*
X7721026Y-16506874D01*
X7721026Y-16506874D02*
X7701979Y-16497350D01*
X7701979Y-16497350D02*
X7692455Y-16487826D01*
X7997217Y-16506874D02*
X7882931Y-16506874D01*
X7940074Y-16506874D02*
X7940074Y-16306874D01*
X7940074Y-16306874D02*
X7921026Y-16335445D01*
X7921026Y-16335445D02*
X7901979Y-16354493D01*
X7901979Y-16354493D02*
X7882931Y-16364017D01*
X8073407Y-16325921D02*
X8082931Y-16316398D01*
X8082931Y-16316398D02*
X8101979Y-16306874D01*
X8101979Y-16306874D02*
X8149598Y-16306874D01*
X8149598Y-16306874D02*
X8168645Y-16316398D01*
X8168645Y-16316398D02*
X8178169Y-16325921D01*
X8178169Y-16325921D02*
X8187693Y-16344969D01*
X8187693Y-16344969D02*
X8187693Y-16364017D01*
X8187693Y-16364017D02*
X8178169Y-16392588D01*
X8178169Y-16392588D02*
X8063883Y-16506874D01*
X8063883Y-16506874D02*
X8187693Y-16506874D01*
X8263883Y-16306874D02*
X8263883Y-16344969D01*
X8340074Y-16306874D02*
X8340074Y-16344969D01*
X8635312Y-16583064D02*
X8625788Y-16573540D01*
X8625788Y-16573540D02*
X8606741Y-16544969D01*
X8606741Y-16544969D02*
X8597217Y-16525921D01*
X8597217Y-16525921D02*
X8587693Y-16497350D01*
X8587693Y-16497350D02*
X8578169Y-16449731D01*
X8578169Y-16449731D02*
X8578169Y-16411636D01*
X8578169Y-16411636D02*
X8587693Y-16364017D01*
X8587693Y-16364017D02*
X8597217Y-16335445D01*
X8597217Y-16335445D02*
X8606741Y-16316398D01*
X8606741Y-16316398D02*
X8625788Y-16287826D01*
X8625788Y-16287826D02*
X8635312Y-16278302D01*
X8816265Y-16506874D02*
X8701979Y-16506874D01*
X8759122Y-16506874D02*
X8759122Y-16306874D01*
X8759122Y-16306874D02*
X8740074Y-16335445D01*
X8740074Y-16335445D02*
X8721026Y-16354493D01*
X8721026Y-16354493D02*
X8701979Y-16364017D01*
X9054360Y-16506874D02*
X9054360Y-16306874D01*
X9140074Y-16506874D02*
X9140074Y-16402112D01*
X9140074Y-16402112D02*
X9130550Y-16383064D01*
X9130550Y-16383064D02*
X9111503Y-16373540D01*
X9111503Y-16373540D02*
X9082931Y-16373540D01*
X9082931Y-16373540D02*
X9063884Y-16383064D01*
X9063884Y-16383064D02*
X9054360Y-16392588D01*
X9263884Y-16506874D02*
X9244836Y-16497350D01*
X9244836Y-16497350D02*
X9235312Y-16487826D01*
X9235312Y-16487826D02*
X9225788Y-16468778D01*
X9225788Y-16468778D02*
X9225788Y-16411636D01*
X9225788Y-16411636D02*
X9235312Y-16392588D01*
X9235312Y-16392588D02*
X9244836Y-16383064D01*
X9244836Y-16383064D02*
X9263884Y-16373540D01*
X9263884Y-16373540D02*
X9292455Y-16373540D01*
X9292455Y-16373540D02*
X9311503Y-16383064D01*
X9311503Y-16383064D02*
X9321027Y-16392588D01*
X9321027Y-16392588D02*
X9330550Y-16411636D01*
X9330550Y-16411636D02*
X9330550Y-16468778D01*
X9330550Y-16468778D02*
X9321027Y-16487826D01*
X9321027Y-16487826D02*
X9311503Y-16497350D01*
X9311503Y-16497350D02*
X9292455Y-16506874D01*
X9292455Y-16506874D02*
X9263884Y-16506874D01*
X9444836Y-16506874D02*
X9425788Y-16497350D01*
X9425788Y-16497350D02*
X9416265Y-16478302D01*
X9416265Y-16478302D02*
X9416265Y-16306874D01*
X9597217Y-16497350D02*
X9578169Y-16506874D01*
X9578169Y-16506874D02*
X9540074Y-16506874D01*
X9540074Y-16506874D02*
X9521027Y-16497350D01*
X9521027Y-16497350D02*
X9511503Y-16478302D01*
X9511503Y-16478302D02*
X9511503Y-16402112D01*
X9511503Y-16402112D02*
X9521027Y-16383064D01*
X9521027Y-16383064D02*
X9540074Y-16373540D01*
X9540074Y-16373540D02*
X9578169Y-16373540D01*
X9578169Y-16373540D02*
X9597217Y-16383064D01*
X9597217Y-16383064D02*
X9606741Y-16402112D01*
X9606741Y-16402112D02*
X9606741Y-16421159D01*
X9606741Y-16421159D02*
X9511503Y-16440207D01*
X9673408Y-16583064D02*
X9682931Y-16573540D01*
X9682931Y-16573540D02*
X9701979Y-16544969D01*
X9701979Y-16544969D02*
X9711503Y-16525921D01*
X9711503Y-16525921D02*
X9721027Y-16497350D01*
X9721027Y-16497350D02*
X9730550Y-16449731D01*
X9730550Y-16449731D02*
X9730550Y-16411636D01*
X9730550Y-16411636D02*
X9721027Y-16364017D01*
X9721027Y-16364017D02*
X9711503Y-16335445D01*
X9711503Y-16335445D02*
X9701979Y-16316398D01*
X9701979Y-16316398D02*
X9682931Y-16287826D01*
X9682931Y-16287826D02*
X9673408Y-16278302D01*
X10035312Y-16583064D02*
X10025788Y-16573540D01*
X10025788Y-16573540D02*
X10006741Y-16544969D01*
X10006741Y-16544969D02*
X9997217Y-16525921D01*
X9997217Y-16525921D02*
X9987693Y-16497350D01*
X9987693Y-16497350D02*
X9978169Y-16449731D01*
X9978169Y-16449731D02*
X9978169Y-16411636D01*
X9978169Y-16411636D02*
X9987693Y-16364017D01*
X9987693Y-16364017D02*
X9997217Y-16335445D01*
X9997217Y-16335445D02*
X10006741Y-16316398D01*
X10006741Y-16316398D02*
X10025788Y-16287826D01*
X10025788Y-16287826D02*
X10035312Y-16278302D01*
X10111503Y-16373540D02*
X10111503Y-16506874D01*
X10111503Y-16392588D02*
X10121027Y-16383064D01*
X10121027Y-16383064D02*
X10140074Y-16373540D01*
X10140074Y-16373540D02*
X10168646Y-16373540D01*
X10168646Y-16373540D02*
X10187693Y-16383064D01*
X10187693Y-16383064D02*
X10197217Y-16402112D01*
X10197217Y-16402112D02*
X10197217Y-16506874D01*
X10321027Y-16506874D02*
X10301979Y-16497350D01*
X10301979Y-16497350D02*
X10292455Y-16487826D01*
X10292455Y-16487826D02*
X10282931Y-16468778D01*
X10282931Y-16468778D02*
X10282931Y-16411636D01*
X10282931Y-16411636D02*
X10292455Y-16392588D01*
X10292455Y-16392588D02*
X10301979Y-16383064D01*
X10301979Y-16383064D02*
X10321027Y-16373540D01*
X10321027Y-16373540D02*
X10349598Y-16373540D01*
X10349598Y-16373540D02*
X10368646Y-16383064D01*
X10368646Y-16383064D02*
X10378169Y-16392588D01*
X10378169Y-16392588D02*
X10387693Y-16411636D01*
X10387693Y-16411636D02*
X10387693Y-16468778D01*
X10387693Y-16468778D02*
X10378169Y-16487826D01*
X10378169Y-16487826D02*
X10368646Y-16497350D01*
X10368646Y-16497350D02*
X10349598Y-16506874D01*
X10349598Y-16506874D02*
X10321027Y-16506874D01*
X10444836Y-16373540D02*
X10521027Y-16373540D01*
X10473408Y-16306874D02*
X10473408Y-16478302D01*
X10473408Y-16478302D02*
X10482931Y-16497350D01*
X10482931Y-16497350D02*
X10501979Y-16506874D01*
X10501979Y-16506874D02*
X10521027Y-16506874D01*
X10740074Y-16373540D02*
X10740074Y-16573540D01*
X10740074Y-16383064D02*
X10759122Y-16373540D01*
X10759122Y-16373540D02*
X10797217Y-16373540D01*
X10797217Y-16373540D02*
X10816265Y-16383064D01*
X10816265Y-16383064D02*
X10825789Y-16392588D01*
X10825789Y-16392588D02*
X10835312Y-16411636D01*
X10835312Y-16411636D02*
X10835312Y-16468778D01*
X10835312Y-16468778D02*
X10825789Y-16487826D01*
X10825789Y-16487826D02*
X10816265Y-16497350D01*
X10816265Y-16497350D02*
X10797217Y-16506874D01*
X10797217Y-16506874D02*
X10759122Y-16506874D01*
X10759122Y-16506874D02*
X10740074Y-16497350D01*
X10949598Y-16506874D02*
X10930550Y-16497350D01*
X10930550Y-16497350D02*
X10921027Y-16478302D01*
X10921027Y-16478302D02*
X10921027Y-16306874D01*
X11111503Y-16506874D02*
X11111503Y-16402112D01*
X11111503Y-16402112D02*
X11101979Y-16383064D01*
X11101979Y-16383064D02*
X11082931Y-16373540D01*
X11082931Y-16373540D02*
X11044836Y-16373540D01*
X11044836Y-16373540D02*
X11025789Y-16383064D01*
X11111503Y-16497350D02*
X11092455Y-16506874D01*
X11092455Y-16506874D02*
X11044836Y-16506874D01*
X11044836Y-16506874D02*
X11025789Y-16497350D01*
X11025789Y-16497350D02*
X11016265Y-16478302D01*
X11016265Y-16478302D02*
X11016265Y-16459255D01*
X11016265Y-16459255D02*
X11025789Y-16440207D01*
X11025789Y-16440207D02*
X11044836Y-16430683D01*
X11044836Y-16430683D02*
X11092455Y-16430683D01*
X11092455Y-16430683D02*
X11111503Y-16421159D01*
X11178170Y-16373540D02*
X11254360Y-16373540D01*
X11206741Y-16306874D02*
X11206741Y-16478302D01*
X11206741Y-16478302D02*
X11216265Y-16497350D01*
X11216265Y-16497350D02*
X11235312Y-16506874D01*
X11235312Y-16506874D02*
X11254360Y-16506874D01*
X11397217Y-16497350D02*
X11378169Y-16506874D01*
X11378169Y-16506874D02*
X11340074Y-16506874D01*
X11340074Y-16506874D02*
X11321027Y-16497350D01*
X11321027Y-16497350D02*
X11311503Y-16478302D01*
X11311503Y-16478302D02*
X11311503Y-16402112D01*
X11311503Y-16402112D02*
X11321027Y-16383064D01*
X11321027Y-16383064D02*
X11340074Y-16373540D01*
X11340074Y-16373540D02*
X11378169Y-16373540D01*
X11378169Y-16373540D02*
X11397217Y-16383064D01*
X11397217Y-16383064D02*
X11406741Y-16402112D01*
X11406741Y-16402112D02*
X11406741Y-16421159D01*
X11406741Y-16421159D02*
X11311503Y-16440207D01*
X11578169Y-16506874D02*
X11578169Y-16306874D01*
X11578169Y-16497350D02*
X11559122Y-16506874D01*
X11559122Y-16506874D02*
X11521027Y-16506874D01*
X11521027Y-16506874D02*
X11501979Y-16497350D01*
X11501979Y-16497350D02*
X11492455Y-16487826D01*
X11492455Y-16487826D02*
X11482931Y-16468778D01*
X11482931Y-16468778D02*
X11482931Y-16411636D01*
X11482931Y-16411636D02*
X11492455Y-16392588D01*
X11492455Y-16392588D02*
X11501979Y-16383064D01*
X11501979Y-16383064D02*
X11521027Y-16373540D01*
X11521027Y-16373540D02*
X11559122Y-16373540D01*
X11559122Y-16373540D02*
X11578169Y-16383064D01*
X11654360Y-16583064D02*
X11663884Y-16573540D01*
X11663884Y-16573540D02*
X11682931Y-16544969D01*
X11682931Y-16544969D02*
X11692455Y-16525921D01*
X11692455Y-16525921D02*
X11701979Y-16497350D01*
X11701979Y-16497350D02*
X11711503Y-16449731D01*
X11711503Y-16449731D02*
X11711503Y-16411636D01*
X11711503Y-16411636D02*
X11701979Y-16364017D01*
X11701979Y-16364017D02*
X11692455Y-16335445D01*
X11692455Y-16335445D02*
X11682931Y-16316398D01*
X11682931Y-16316398D02*
X11663884Y-16287826D01*
X11663884Y-16287826D02*
X11654360Y-16278302D01*
M02*
