G04 #@! TF.GenerationSoftware,KiCad,Pcbnew,7.0.1*
G04 #@! TF.CreationDate,2023-06-20T21:39:35-04:00*
G04 #@! TF.ProjectId,mainboard,6d61696e-626f-4617-9264-2e6b69636164,C*
G04 #@! TF.SameCoordinates,Original*
G04 #@! TF.FileFunction,Profile,NP*
%FSLAX46Y46*%
G04 Gerber Fmt 4.6, Leading zero omitted, Abs format (unit mm)*
G04 Created by KiCad (PCBNEW 7.0.1) date 2023-06-20 21:39:35*
%MOMM*%
%LPD*%
G01*
G04 APERTURE LIST*
G04 #@! TA.AperFunction,Profile*
%ADD10C,0.127000*%
G04 #@! TD*
G04 APERTURE END LIST*
D10*
X135864600Y-56743600D02*
X139852400Y-56743600D01*
X51943000Y-114604800D02*
G75*
G03*
X52705000Y-113842800I0J762000D01*
G01*
X140970000Y-93548200D02*
X140970000Y-57861200D01*
X107188000Y-150672800D02*
G75*
G03*
X105994200Y-149479000I-1193800J0D01*
G01*
X96266000Y-58801000D02*
X96266000Y-53441600D01*
X124002800Y-51257200D02*
X125349000Y-51257200D01*
X135382000Y-56261000D02*
G75*
G03*
X135864600Y-56743600I482600J0D01*
G01*
X98679000Y-53441600D02*
X121983500Y-53441600D01*
X125958592Y-51841400D02*
G75*
G03*
X126593600Y-52451000I610108J0D01*
G01*
X67792600Y-59385200D02*
X67792600Y-51257200D01*
X98679000Y-58801000D02*
X98679000Y-53441600D01*
X55880000Y-56743599D02*
G75*
G03*
X56387999Y-56286400I25400J482599D01*
G01*
X51892200Y-56743601D02*
G75*
G03*
X50800001Y-57861200I12700J-1104899D01*
G01*
X121983500Y-58801000D02*
X121983500Y-53441600D01*
X56972200Y-51257200D02*
G75*
G03*
X56388000Y-51841400I0J-584200D01*
G01*
X86868000Y-151206200D02*
X86868000Y-150672800D01*
X51562000Y-114604800D02*
G75*
G03*
X50800000Y-115366800I0J-762000D01*
G01*
X50800000Y-151130000D02*
G75*
G03*
X51917600Y-152400000I1193800J-76200D01*
G01*
X132816600Y-51257272D02*
G75*
G03*
X132181600Y-51866800I-100J-635428D01*
G01*
X50800000Y-151130000D02*
X50800000Y-115366800D01*
X51917600Y-152400000D02*
X85674200Y-152400000D01*
X135382000Y-51816000D02*
G75*
G03*
X134823200Y-51257200I-558800J0D01*
G01*
X52705000Y-95072200D02*
G75*
G03*
X51943000Y-94310200I-762000J0D01*
G01*
X132816600Y-51257200D02*
X134823200Y-51257200D01*
X124002800Y-59436000D02*
X124002800Y-51257200D01*
X140970000Y-115366800D02*
G75*
G03*
X140208000Y-114604800I-762000J0D01*
G01*
X85674200Y-152400000D02*
G75*
G03*
X86868000Y-151206200I0J1193800D01*
G01*
X50800000Y-93548200D02*
G75*
G03*
X51562000Y-94310200I762000J0D01*
G01*
X125958600Y-51841400D02*
G75*
G03*
X125349000Y-51257200I-596900J-12700D01*
G01*
X131572000Y-52451000D02*
G75*
G03*
X132181600Y-51866800I12700J596900D01*
G01*
X69799200Y-53441600D02*
X96266000Y-53441600D01*
X126593600Y-52451000D02*
X131572000Y-52451000D01*
X140970000Y-57861200D02*
G75*
G03*
X139852400Y-56743600I-1117600J0D01*
G01*
X69799200Y-58750200D02*
X69799200Y-53441600D01*
X123190000Y-60020200D02*
X123393200Y-60020200D01*
X67792613Y-59385201D02*
G75*
G03*
X68351400Y-60020199I596787J-38199D01*
G01*
X96266000Y-58801000D02*
G75*
G03*
X98679000Y-58801000I1206500J0D01*
G01*
X107188000Y-151206200D02*
X107188000Y-150672800D01*
X56972200Y-51257200D02*
X67792600Y-51257200D01*
X68351400Y-60020200D02*
X68580000Y-60020200D01*
X139065000Y-113842800D02*
X139065000Y-95072200D01*
X107188000Y-151206200D02*
G75*
G03*
X108381800Y-152400000I1193800J0D01*
G01*
X121983501Y-58801000D02*
G75*
G03*
X123190000Y-60020200I1212799J-6400D01*
G01*
X123393200Y-60020195D02*
G75*
G03*
X124002799Y-59436000I12800J596795D01*
G01*
X139065000Y-113842800D02*
G75*
G03*
X139827000Y-114604800I762000J0D01*
G01*
X68580000Y-60020200D02*
G75*
G03*
X69799200Y-58750200I-25400J1244600D01*
G01*
X88061800Y-149479000D02*
X105994200Y-149479000D01*
X51562000Y-114604800D02*
X51943000Y-114604800D01*
X108381800Y-152400000D02*
X139776200Y-152400000D01*
X52705000Y-113842800D02*
X52705000Y-95072200D01*
X51562000Y-94310200D02*
X51943000Y-94310200D01*
X50800000Y-93548200D02*
X50800000Y-57861200D01*
X56388000Y-56286400D02*
X56388000Y-51841400D01*
X135382000Y-56261000D02*
X135382000Y-51816000D01*
X51892200Y-56743600D02*
X55880000Y-56743600D01*
X140970000Y-151130000D02*
X140970000Y-115366800D01*
X88061800Y-149479000D02*
G75*
G03*
X86868000Y-150672800I0J-1193800D01*
G01*
X139827000Y-114604800D02*
X140208000Y-114604800D01*
X139776200Y-152400000D02*
G75*
G03*
X140970000Y-151130000I-38100J1231900D01*
G01*
X140208000Y-94310200D02*
G75*
G03*
X140970000Y-93548200I0J762000D01*
G01*
X139827000Y-94310200D02*
G75*
G03*
X139065000Y-95072200I0J-762000D01*
G01*
X139827000Y-94310200D02*
X140208000Y-94310200D01*
M02*
