G04 #@! TF.GenerationSoftware,KiCad,Pcbnew,7.0.1*
G04 #@! TF.CreationDate,2023-06-13T18:19:14-04:00*
G04 #@! TF.ProjectId,mainboard,6d61696e-626f-4617-9264-2e6b69636164,rev?*
G04 #@! TF.SameCoordinates,Original*
G04 #@! TF.FileFunction,Copper,L3,Inr*
G04 #@! TF.FilePolarity,Positive*
%FSLAX46Y46*%
G04 Gerber Fmt 4.6, Leading zero omitted, Abs format (unit mm)*
G04 Created by KiCad (PCBNEW 7.0.1) date 2023-06-13 18:19:14*
%MOMM*%
%LPD*%
G01*
G04 APERTURE LIST*
G04 #@! TA.AperFunction,ComponentPad*
%ADD10C,2.006600*%
G04 #@! TD*
G04 #@! TA.AperFunction,ComponentPad*
%ADD11C,1.334000*%
G04 #@! TD*
G04 #@! TA.AperFunction,ComponentPad*
%ADD12C,1.268000*%
G04 #@! TD*
G04 #@! TA.AperFunction,ComponentPad*
%ADD13C,5.080000*%
G04 #@! TD*
G04 #@! TA.AperFunction,ViaPad*
%ADD14C,0.609600*%
G04 #@! TD*
G04 #@! TA.AperFunction,ViaPad*
%ADD15C,0.457200*%
G04 #@! TD*
G04 #@! TA.AperFunction,ViaPad*
%ADD16C,0.508000*%
G04 #@! TD*
G04 #@! TA.AperFunction,Conductor*
%ADD17C,0.293370*%
G04 #@! TD*
G04 #@! TA.AperFunction,Conductor*
%ADD18C,0.508000*%
G04 #@! TD*
G04 #@! TA.AperFunction,Conductor*
%ADD19C,0.254000*%
G04 #@! TD*
G04 #@! TA.AperFunction,Conductor*
%ADD20C,0.203200*%
G04 #@! TD*
G04 APERTURE END LIST*
D10*
X72478900Y-67691000D03*
X72478900Y-75311000D03*
X62318900Y-67691000D03*
X54698900Y-75311000D03*
X54698900Y-67691000D03*
D11*
X55118000Y-139700000D03*
D12*
X53848000Y-140970000D03*
X56388000Y-140970000D03*
X53848000Y-138430000D03*
X56388000Y-138430000D03*
D13*
X135890000Y-147320000D03*
D11*
X55118000Y-133350000D03*
D12*
X53848000Y-134620000D03*
X56388000Y-134620000D03*
X53848000Y-132080000D03*
X56388000Y-132080000D03*
D13*
X133350000Y-61595000D03*
X59690000Y-61595000D03*
D11*
X55118000Y-127000000D03*
D12*
X53848000Y-128270000D03*
X56388000Y-128270000D03*
X53848000Y-125730000D03*
X56388000Y-125730000D03*
D13*
X55880000Y-147320000D03*
D14*
X109601000Y-147828000D03*
D15*
X92710000Y-119634000D03*
X95631000Y-114935000D03*
X124333000Y-138938000D03*
X87020900Y-107950000D03*
X129585204Y-123952000D03*
D14*
X133350000Y-119761000D03*
X127508000Y-83058000D03*
D15*
X110744000Y-118110000D03*
D14*
X107950000Y-63754000D03*
X132334000Y-82296000D03*
X131445000Y-116840000D03*
D15*
X99822000Y-107188000D03*
X121436602Y-126746000D03*
X73279000Y-123585379D03*
D14*
X84283811Y-57785000D03*
D15*
X90551000Y-82804000D03*
D14*
X131413000Y-112522000D03*
D15*
X59750000Y-127750000D03*
X59000000Y-126250000D03*
X71628000Y-94488000D03*
X75057000Y-93218000D03*
X88392000Y-80391000D03*
X59182000Y-124079000D03*
D14*
X132842000Y-74676000D03*
D15*
X60833000Y-99187000D03*
X85471000Y-99727902D03*
X104902000Y-122872000D03*
X105287000Y-72751000D03*
X90185000Y-69977000D03*
X105029000Y-70231000D03*
X101981000Y-109947397D03*
X60833000Y-96647000D03*
D14*
X66929000Y-115824000D03*
X132926300Y-82931000D03*
D15*
X122198602Y-125984000D03*
D14*
X106172000Y-62738000D03*
X74041000Y-136779000D03*
X137914000Y-129534000D03*
X60168000Y-110921300D03*
X128270000Y-92583000D03*
D15*
X130810000Y-79756000D03*
X110555501Y-142008397D03*
X78994000Y-62230000D03*
X59100000Y-139750000D03*
X120640000Y-112304000D03*
D14*
X101883811Y-58485000D03*
X129286000Y-82296000D03*
X130389398Y-145284000D03*
D15*
X57250000Y-134000000D03*
X102743000Y-141732000D03*
X126770602Y-126111000D03*
X59182000Y-124841000D03*
X130810000Y-80518000D03*
D14*
X133096000Y-111379000D03*
D15*
X88519000Y-123025900D03*
X57400000Y-140500000D03*
X136398000Y-88773000D03*
X122198602Y-126746000D03*
D14*
X107061000Y-61214000D03*
X129890000Y-107442000D03*
D15*
X102870000Y-109982000D03*
D14*
X132414000Y-119126000D03*
D15*
X54229000Y-143383000D03*
X62738000Y-126238000D03*
D14*
X130683000Y-88265000D03*
X130302000Y-102489000D03*
D15*
X121567602Y-128524000D03*
D14*
X127890000Y-107442000D03*
D15*
X88519000Y-126873000D03*
X122906103Y-108017897D03*
D14*
X128397000Y-112522000D03*
D15*
X57600000Y-142000000D03*
D14*
X128270000Y-102489000D03*
D15*
X59182000Y-125603000D03*
X58250000Y-127750000D03*
X89548200Y-72550593D03*
X70612000Y-100330000D03*
X57500000Y-126250000D03*
D14*
X106172000Y-63754000D03*
D15*
X130461602Y-139950000D03*
D14*
X127365000Y-116840000D03*
D15*
X59000000Y-127750000D03*
D14*
X127381000Y-112522000D03*
D15*
X115189000Y-72796900D03*
D14*
X127414000Y-131445000D03*
D15*
X61300000Y-127600000D03*
X81915000Y-70104000D03*
D14*
X97505000Y-132820000D03*
X128414000Y-119126000D03*
D15*
X69469000Y-123571000D03*
X61900000Y-127100000D03*
D14*
X75869800Y-132857000D03*
X54737000Y-59464000D03*
X130389398Y-132965000D03*
X120269000Y-118872000D03*
D15*
X102108000Y-96647000D03*
D14*
X75869800Y-133619000D03*
X58759000Y-134850000D03*
D15*
X112522000Y-122682000D03*
D14*
X130683000Y-89281000D03*
X129414000Y-119126000D03*
X114683811Y-57785000D03*
X133664000Y-125476000D03*
D15*
X61722000Y-80838002D03*
X62000000Y-126250000D03*
D14*
X134112000Y-120523000D03*
D15*
X97942900Y-95758000D03*
X105029000Y-70993000D03*
D14*
X137889398Y-143373000D03*
D15*
X63641999Y-87233998D03*
X112522000Y-124206000D03*
X71085000Y-91983000D03*
D14*
X129413000Y-112522000D03*
X135889398Y-143373000D03*
X84283811Y-58485000D03*
X136914000Y-121284000D03*
D15*
X59000000Y-134000000D03*
X53848000Y-95146000D03*
D14*
X131318000Y-78836300D03*
D15*
X118515602Y-119761000D03*
D14*
X124333000Y-102489000D03*
D15*
X88138000Y-106807000D03*
D14*
X130302000Y-82296000D03*
D15*
X102616000Y-97155000D03*
D14*
X106172000Y-61722000D03*
X137541000Y-116840000D03*
X74041000Y-140335000D03*
X70358000Y-141732000D03*
X134914000Y-121284000D03*
D15*
X130486204Y-126111000D03*
D14*
X107061000Y-62230000D03*
X107950000Y-61722000D03*
X129286000Y-102489000D03*
D15*
X102108000Y-97663000D03*
D14*
X130414000Y-131445000D03*
X79756000Y-147574000D03*
X75311000Y-85151000D03*
X132461000Y-116840000D03*
D15*
X108712000Y-112563000D03*
X59750000Y-126250000D03*
X59100000Y-143750000D03*
D14*
X130429000Y-112522000D03*
X129414000Y-131445000D03*
X100203000Y-144653000D03*
X132842000Y-77851000D03*
D15*
X121543000Y-142363000D03*
D14*
X133389398Y-134007000D03*
X135889398Y-135123000D03*
D15*
X54025000Y-109497000D03*
X53848000Y-95654000D03*
X116760999Y-120292397D03*
X57600000Y-144250000D03*
D14*
X137414000Y-102362000D03*
D15*
X54483000Y-89281000D03*
X95246000Y-127155000D03*
D14*
X131414000Y-119126000D03*
X125349000Y-96520000D03*
X101015300Y-120650000D03*
X64846200Y-143652000D03*
X125349000Y-102489000D03*
X136889398Y-143373000D03*
X136525000Y-116840000D03*
X132842000Y-76962000D03*
X127414000Y-119126000D03*
X130302000Y-96012000D03*
D15*
X59100000Y-142750000D03*
D14*
X74041000Y-141732000D03*
D15*
X91567000Y-94107000D03*
D14*
X74168000Y-111633000D03*
X132429000Y-112522000D03*
X129389398Y-145284000D03*
D15*
X122174000Y-140585000D03*
X103886000Y-109982000D03*
X96334042Y-98365277D03*
D14*
X128389398Y-145284000D03*
D15*
X122301000Y-79883000D03*
X79502000Y-106807000D03*
D14*
X128270000Y-96012000D03*
D15*
X62103000Y-123571000D03*
D14*
X126365000Y-116840000D03*
D15*
X130810000Y-81280000D03*
X98447500Y-105427500D03*
X57250000Y-132750000D03*
D14*
X105883811Y-57785000D03*
D15*
X86741000Y-77978000D03*
X117602000Y-138303000D03*
X128778000Y-94996000D03*
D14*
X131318000Y-82296000D03*
X79705200Y-131587000D03*
D15*
X59817000Y-123571000D03*
D14*
X130305638Y-78845516D03*
X129286000Y-92583000D03*
X105883811Y-58485000D03*
D15*
X85344000Y-128143000D03*
X63642000Y-83297000D03*
X60500000Y-127750000D03*
D14*
X132389398Y-132965000D03*
D15*
X121271000Y-109764000D03*
X98298000Y-72390000D03*
D14*
X132389398Y-145284000D03*
X129413000Y-116840000D03*
X54163000Y-85151000D03*
X66929000Y-117094000D03*
D15*
X60833000Y-101727000D03*
X58850000Y-145750000D03*
D14*
X130414000Y-119126000D03*
X126389602Y-119126000D03*
D15*
X118491000Y-134362000D03*
D14*
X134239000Y-130175000D03*
D15*
X129560602Y-137791000D03*
X58100000Y-145000000D03*
X128390000Y-108645000D03*
X96896287Y-102484577D03*
D14*
X79756000Y-146812000D03*
X131389398Y-132965000D03*
D15*
X58956001Y-84610002D03*
X121412000Y-139823000D03*
X57500000Y-139000000D03*
D14*
X107061000Y-63246000D03*
X127283000Y-102489000D03*
D15*
X73025000Y-94488000D03*
X130486204Y-125476000D03*
D14*
X127254000Y-96012000D03*
D15*
X58956001Y-80800001D03*
D14*
X127905000Y-111379000D03*
X100283811Y-58485000D03*
D15*
X96393000Y-114935000D03*
X60213000Y-76835000D03*
D14*
X97505000Y-133582000D03*
D15*
X81915000Y-128270000D03*
X58250000Y-126250000D03*
X68453000Y-131191000D03*
X93472000Y-65786000D03*
D14*
X58759000Y-135612000D03*
X128414000Y-131445000D03*
D15*
X133985000Y-87122000D03*
D14*
X125857000Y-117983000D03*
D15*
X118745000Y-73406000D03*
D14*
X132414000Y-131445000D03*
D15*
X129390000Y-108645000D03*
X57544001Y-90818001D03*
D14*
X72283811Y-57785000D03*
X123335000Y-102489000D03*
D15*
X71247000Y-129555000D03*
X86106000Y-70612000D03*
X58250000Y-139250000D03*
D14*
X54163000Y-86421000D03*
X114683811Y-58485000D03*
D15*
X120509000Y-109764000D03*
X115703916Y-111775000D03*
X124968000Y-110045013D03*
X61341000Y-123571000D03*
X59000000Y-132750000D03*
D14*
X132461000Y-102489000D03*
X129389398Y-132965000D03*
X131445000Y-102489000D03*
D15*
X105918000Y-70993000D03*
X130429000Y-74803000D03*
X61722000Y-74234000D03*
D14*
X137914000Y-121284000D03*
X135914000Y-129534000D03*
X107950000Y-62738000D03*
X130683000Y-91567000D03*
D15*
X118515602Y-120523000D03*
D14*
X133223000Y-144815000D03*
D15*
X53721000Y-101981000D03*
D14*
X101981000Y-133477000D03*
X75819000Y-144765000D03*
D15*
X91313000Y-126746000D03*
X121271000Y-110526000D03*
D14*
X135914000Y-121284000D03*
D15*
X54025000Y-104966000D03*
X88680700Y-71120000D03*
X58913000Y-73802000D03*
D14*
X136398000Y-102362000D03*
D15*
X57600000Y-141250000D03*
D14*
X130810000Y-96647000D03*
X133889398Y-143373000D03*
D15*
X54483000Y-98933000D03*
X54260000Y-96932000D03*
X101600000Y-97155000D03*
D14*
X128397000Y-116840000D03*
D15*
X85834500Y-109626900D03*
D14*
X131389398Y-145284000D03*
D15*
X60579000Y-123571000D03*
X107950000Y-90450500D03*
X105918000Y-70231000D03*
D14*
X129286000Y-96012000D03*
X126296000Y-102489000D03*
X137889398Y-135123000D03*
X101981000Y-132715000D03*
D15*
X60833000Y-104267000D03*
D14*
X99441000Y-144653000D03*
D15*
X54025000Y-105474000D03*
D14*
X79705200Y-130825000D03*
D15*
X93599000Y-119634000D03*
X85470933Y-66165545D03*
D14*
X75819000Y-145527000D03*
D15*
X61595000Y-54493900D03*
D14*
X54163000Y-83881000D03*
X130683000Y-90551000D03*
D15*
X128778000Y-94234000D03*
D14*
X128890000Y-107442000D03*
D15*
X61735000Y-84775000D03*
X70739000Y-123585379D03*
D14*
X133639398Y-139315000D03*
X120396000Y-132842000D03*
X74168000Y-110921300D03*
X139700000Y-149352000D03*
X134889398Y-135123000D03*
X64846200Y-142890000D03*
X127389398Y-145284000D03*
D15*
X54025000Y-110005000D03*
D14*
X133889398Y-135123000D03*
X136914000Y-129534000D03*
D15*
X88885001Y-77470000D03*
X95758000Y-114173000D03*
D14*
X135509000Y-116840000D03*
D15*
X104902000Y-118364000D03*
X60500000Y-126250000D03*
X126746000Y-139950000D03*
X106680000Y-65786000D03*
X124333000Y-124841000D03*
D14*
X72283811Y-58485000D03*
X132842000Y-75565000D03*
X134493000Y-116840000D03*
X134874000Y-102362000D03*
D15*
X57600000Y-142750000D03*
X57600000Y-143500000D03*
D14*
X133223000Y-143926000D03*
X130810000Y-97536000D03*
D15*
X130486204Y-124841000D03*
X95499830Y-111638785D03*
X128390000Y-110145000D03*
X130461602Y-139315000D03*
X59100000Y-141750000D03*
D14*
X133858000Y-102362000D03*
X138930000Y-121284000D03*
X119483811Y-58485000D03*
X100283811Y-57785000D03*
X130429000Y-116840000D03*
X131414000Y-131445000D03*
X122301000Y-102489000D03*
X138557000Y-116840000D03*
D15*
X120815000Y-107823000D03*
D14*
X128905000Y-111379000D03*
D15*
X121412000Y-140585000D03*
D14*
X119483811Y-57785000D03*
D15*
X116736397Y-134131397D03*
D14*
X128389398Y-132965000D03*
D15*
X115697000Y-90439000D03*
X62865000Y-123571000D03*
X58100000Y-132750000D03*
X114031000Y-97028000D03*
D14*
X70358000Y-140208000D03*
X136889398Y-135123000D03*
X133374602Y-130849000D03*
X70358000Y-136779000D03*
X129905000Y-111379000D03*
D15*
X71628000Y-93726000D03*
D14*
X127389398Y-132965000D03*
D15*
X122174000Y-139823000D03*
X57500000Y-127750000D03*
X114031000Y-93233000D03*
D14*
X132969000Y-83947000D03*
D15*
X118491000Y-133600000D03*
X121436602Y-125984000D03*
D14*
X134889398Y-143373000D03*
X101883811Y-57785000D03*
D15*
X130461602Y-138680000D03*
X59100000Y-140750000D03*
X120509000Y-110526000D03*
X135255000Y-131699000D03*
X129390000Y-110145000D03*
D14*
X60168000Y-111633000D03*
D15*
X73025000Y-93726000D03*
X128778000Y-93472000D03*
D14*
X134914000Y-129534000D03*
X133477000Y-116840000D03*
D15*
X58100000Y-134000000D03*
X65278000Y-85217000D03*
D14*
X119890000Y-115411000D03*
X72898000Y-105410000D03*
D15*
X116736397Y-134846603D03*
D14*
X100457000Y-69596000D03*
X95483811Y-58485000D03*
X75311000Y-86421000D03*
D15*
X102616000Y-94996000D03*
X95671999Y-65659000D03*
X104902000Y-97282000D03*
X115823500Y-118110000D03*
X126365000Y-138045000D03*
X88142173Y-109041843D03*
X114173000Y-115062000D03*
D14*
X118872000Y-115443000D03*
D15*
X77724000Y-75692000D03*
D14*
X71882000Y-105410000D03*
D15*
X76175100Y-110845100D03*
X85852000Y-73152000D03*
X136398000Y-90424000D03*
X83693000Y-98298000D03*
D14*
X117856000Y-115443000D03*
D15*
X113562602Y-120650000D03*
X108585000Y-123458000D03*
X92938100Y-111206598D03*
X63246000Y-61341000D03*
D14*
X118872000Y-113411000D03*
D15*
X106769000Y-114513000D03*
X120523000Y-142363000D03*
X137287000Y-132080000D03*
X115316500Y-100076000D03*
X95885000Y-97917000D03*
X116760999Y-121007603D03*
D14*
X95483811Y-57785000D03*
X99695000Y-71120000D03*
D15*
X115331000Y-96266000D03*
X85598001Y-82467000D03*
X61857001Y-91956001D03*
X90933040Y-67056213D03*
X110299000Y-111633000D03*
X97442299Y-102997000D03*
X95994500Y-111227101D03*
X65278000Y-81279999D03*
D14*
X118872000Y-114427000D03*
D15*
X91313000Y-71247000D03*
X119620000Y-112304000D03*
X114427000Y-72768406D03*
X54025000Y-103274000D03*
X86647300Y-110668300D03*
D14*
X117856000Y-113411000D03*
D15*
X85471000Y-66774647D03*
X105029000Y-105283000D03*
D14*
X66929000Y-111252000D03*
D15*
X88265000Y-94107000D03*
D14*
X66929000Y-114554000D03*
D15*
X66548000Y-97282000D03*
D14*
X99695000Y-68326000D03*
D15*
X113538000Y-134489000D03*
X81155070Y-105154613D03*
X89281000Y-107950000D03*
X59055000Y-86868002D03*
X100584000Y-106426000D03*
X81788000Y-117856000D03*
X59055000Y-83058002D03*
X91821000Y-80899000D03*
X84074000Y-126238000D03*
D14*
X117856000Y-114427000D03*
D15*
X68210000Y-126746000D03*
X78930001Y-67564000D03*
D14*
X93083811Y-58100000D03*
D15*
X86233000Y-79248000D03*
D14*
X100457000Y-70612000D03*
D15*
X126389602Y-124206000D03*
D14*
X119890000Y-114395000D03*
D15*
X91821000Y-76835000D03*
X88500000Y-120142000D03*
X78839000Y-64234000D03*
D14*
X119890000Y-113379000D03*
D15*
X108561900Y-118950000D03*
X83921100Y-116078000D03*
D14*
X99695000Y-69215000D03*
D15*
X104361000Y-72751000D03*
X120547602Y-128524000D03*
D14*
X70866000Y-105410000D03*
X99695000Y-70104000D03*
D15*
X54025000Y-102766000D03*
X74168000Y-126746000D03*
X73787000Y-96520000D03*
X95671999Y-72263000D03*
X85598000Y-69723000D03*
X115824000Y-131949000D03*
D14*
X100457000Y-68707000D03*
D15*
X114300000Y-68326000D03*
X62992000Y-110363000D03*
X81381100Y-110363000D03*
X60706000Y-77978000D03*
X61468000Y-109728000D03*
X60833000Y-72009000D03*
X81407000Y-109728000D03*
X79019900Y-99314000D03*
X78613000Y-122453900D03*
X85623400Y-114325900D03*
X87884000Y-111506000D03*
X78613000Y-121031000D03*
X74930000Y-126111000D03*
X98144224Y-65659000D03*
X85673700Y-108966000D03*
X75833747Y-112680783D03*
X99441000Y-57785000D03*
X98933000Y-109855000D03*
X64668900Y-58674000D03*
X75819000Y-122301000D03*
X136398000Y-89408000D03*
X109093000Y-122809000D03*
X112141000Y-89022498D03*
D14*
X128397000Y-60833000D03*
D15*
X129413000Y-67564000D03*
D14*
X117348000Y-59182000D03*
X114841000Y-60003000D03*
X116283811Y-57785000D03*
D15*
X117221000Y-65659000D03*
X114031000Y-91074000D03*
X57404000Y-56276000D03*
X123444000Y-70290000D03*
D14*
X124968000Y-52578000D03*
X126365000Y-60706000D03*
D15*
X67056000Y-55372000D03*
D14*
X121539000Y-74168000D03*
X118364000Y-59182000D03*
X122682000Y-66725300D03*
X129540000Y-72644000D03*
D15*
X136652000Y-59309000D03*
D14*
X120650000Y-74168000D03*
D15*
X137668000Y-59309000D03*
X102679500Y-86614000D03*
X124587000Y-70290000D03*
X138049000Y-59944000D03*
X84328000Y-61087000D03*
D14*
X115857000Y-60003000D03*
X126238000Y-72771000D03*
D15*
X123444000Y-69020000D03*
D14*
X133223000Y-52451000D03*
X115483811Y-57785000D03*
X128016000Y-66788222D03*
D15*
X124841000Y-59055000D03*
D14*
X116873000Y-60003000D03*
X130302000Y-57912000D03*
X126417977Y-54483000D03*
X130810000Y-58674000D03*
D15*
X75165911Y-58480128D03*
D14*
X127127000Y-60706000D03*
D15*
X124587000Y-69020000D03*
D14*
X122682000Y-65455300D03*
D15*
X64897000Y-55372000D03*
X112649000Y-91567000D03*
X135636000Y-59309000D03*
D14*
X115483811Y-58485000D03*
X116283811Y-58485000D03*
X131652015Y-55254541D03*
X117889000Y-60003000D03*
D15*
X106680000Y-77955000D03*
X60579000Y-52324000D03*
X126238000Y-67691000D03*
X77727967Y-77339033D03*
D14*
X129921000Y-58674000D03*
D15*
X78486000Y-77089000D03*
D14*
X128778000Y-58674000D03*
D15*
X125859230Y-67056000D03*
D14*
X101219000Y-126746000D03*
X120269000Y-145284000D03*
X118237000Y-143252000D03*
X107061000Y-145923000D03*
X99441000Y-126746000D03*
X93883811Y-57785000D03*
X118237000Y-145284000D03*
X119253000Y-143252000D03*
X107061000Y-145034000D03*
X119253000Y-145284000D03*
X118237000Y-144268000D03*
X120269000Y-143252000D03*
X107061000Y-146812001D03*
X120269000Y-144268000D03*
X100330000Y-126746000D03*
X119253000Y-144268000D03*
X93883811Y-58485000D03*
D15*
X68580000Y-77978000D03*
X84455000Y-107569000D03*
X68580000Y-109093000D03*
D14*
X121412000Y-84709000D03*
X121412000Y-85598000D03*
X122301000Y-83820000D03*
X120269000Y-97536000D03*
X120269000Y-99314000D03*
X122301000Y-84709000D03*
X121412000Y-83820000D03*
X120269000Y-98425000D03*
X122301000Y-85598000D03*
D15*
X82659500Y-111430301D03*
X139573000Y-89423000D03*
X76283811Y-59265811D03*
X56535250Y-106823500D03*
X75565000Y-104588818D03*
X94938000Y-128323900D03*
X107188000Y-107696000D03*
X79502000Y-107950000D03*
X94488000Y-107315000D03*
X113883811Y-58039000D03*
X72263000Y-101854000D03*
X90678000Y-96520000D03*
X66294000Y-101854000D03*
X102743000Y-136525000D03*
X101600000Y-135763000D03*
X70739000Y-98679000D03*
X101346000Y-140208000D03*
X90932000Y-97155000D03*
X78994000Y-97536000D03*
X62230000Y-99441000D03*
X71501000Y-98679000D03*
X100838000Y-135102100D03*
X101346000Y-141478000D03*
X63500000Y-99441000D03*
X91440000Y-97663000D03*
X78994000Y-98171000D03*
X98552000Y-146685000D03*
X98552000Y-138303000D03*
X101600000Y-138303000D03*
X100076000Y-133731000D03*
X106045000Y-121666000D03*
X134013000Y-132687000D03*
X98933000Y-135864100D03*
X86995000Y-113932961D03*
X92456000Y-134239000D03*
X101341778Y-137684981D03*
X88547408Y-112531384D03*
X97282000Y-98806000D03*
X97536000Y-89154000D03*
X70992999Y-87376000D03*
X98362000Y-73215000D03*
X97536000Y-82931000D03*
X98171000Y-77597000D03*
X97426214Y-99966214D03*
X98417006Y-69284987D03*
X70993000Y-83566000D03*
X98171000Y-88646000D03*
X89789000Y-95758000D03*
X65024000Y-96647000D03*
X72009000Y-82590800D03*
X72012001Y-83881000D03*
X119888000Y-138807000D03*
X119912602Y-124964000D03*
X113157000Y-69599397D03*
X103495397Y-69599397D03*
X118373000Y-108995000D03*
X127000000Y-70612000D03*
X120396000Y-138172000D03*
X127000000Y-69977000D03*
X120420602Y-124329000D03*
X103478147Y-68934147D03*
X113157000Y-68961000D03*
X119253000Y-108712000D03*
X110617000Y-100330000D03*
X88646000Y-96647000D03*
X110617000Y-105791000D03*
X63500000Y-102362000D03*
X62230000Y-103124000D03*
X64770000Y-105791000D03*
X108557401Y-122301000D03*
X73533000Y-127777000D03*
X87361211Y-114980966D03*
D14*
X118110000Y-86487000D03*
X115570000Y-124333000D03*
D15*
X113284000Y-105156000D03*
D14*
X131318000Y-106330000D03*
X116610602Y-123317000D03*
X129302000Y-106299000D03*
X132334000Y-106299000D03*
X128270000Y-106299000D03*
X115570001Y-136140000D03*
X118999000Y-87376000D03*
X117602000Y-137156000D03*
X115594603Y-123317000D03*
X115570001Y-137156000D03*
X130302000Y-106299000D03*
X136390000Y-105395000D03*
X116586000Y-136140000D03*
X117626602Y-122301000D03*
X117602000Y-136140000D03*
D15*
X123063000Y-74422000D03*
D14*
X116586000Y-124333000D03*
X116586000Y-137156000D03*
X116610602Y-122301000D03*
X133867000Y-105395000D03*
X127270000Y-106299000D03*
X118110000Y-87376000D03*
X117602000Y-124333000D03*
X125270000Y-106299000D03*
X117626602Y-123317000D03*
X115594603Y-122301000D03*
X117221000Y-87376000D03*
D15*
X110732190Y-88557613D03*
D14*
X117221000Y-86487000D03*
X126270000Y-106299000D03*
X134874000Y-105403000D03*
X118999000Y-86487000D03*
X137423000Y-105403000D03*
D15*
X74041000Y-118491000D03*
X74168000Y-78105000D03*
X105537000Y-120904000D03*
X79502000Y-111506000D03*
X93015300Y-114046000D03*
X79903844Y-59710844D03*
X74549000Y-58801000D03*
X72263000Y-116459000D03*
X108585000Y-118237000D03*
X79986520Y-99441000D03*
X92479397Y-99083397D03*
X79502000Y-93853000D03*
X87020900Y-94128600D03*
X88680700Y-60553100D03*
X92266144Y-111608874D03*
X80010000Y-60325000D03*
X95224100Y-60579000D03*
X97796981Y-106165019D03*
X76792609Y-58711935D03*
X95250000Y-93345000D03*
X85344000Y-93345000D03*
X78848011Y-58420000D03*
X97218500Y-104838500D03*
X92955877Y-59444123D03*
X97155000Y-106299000D03*
X77174958Y-58147496D03*
X94488000Y-59817000D03*
X95758000Y-94488000D03*
X78365911Y-59182000D03*
X92964000Y-60452000D03*
X121158000Y-68707000D03*
X82405662Y-57934644D03*
X95406999Y-113647459D03*
X122780998Y-72491100D03*
X89864700Y-59944000D03*
X89916000Y-58293000D03*
X82804000Y-64389000D03*
X87630000Y-64643000D03*
X106680000Y-57785000D03*
X99441000Y-64643000D03*
X89826828Y-64643000D03*
X99441000Y-65405000D03*
X106680000Y-58394103D03*
X81478000Y-65080000D03*
X119888000Y-65659000D03*
X122428000Y-74422000D03*
X133858000Y-66421000D03*
X132207000Y-72517000D03*
X85401211Y-57817745D03*
X112141000Y-64008000D03*
X110856000Y-89154000D03*
X84988400Y-64109600D03*
X97256100Y-72380643D03*
X96972000Y-68168900D03*
X86578052Y-62077100D03*
X82804000Y-62103000D03*
X96322000Y-65659000D03*
X109601000Y-57785000D03*
X110683811Y-57718189D03*
X122555000Y-136140000D03*
X122579602Y-122301000D03*
D14*
X127105905Y-57987701D03*
D15*
X60452000Y-54976000D03*
D14*
X126418168Y-58002179D03*
D15*
X108839000Y-92456000D03*
X58547000Y-96647000D03*
X115189000Y-106045000D03*
X75691850Y-58083404D03*
X114234000Y-125728000D03*
X109220000Y-88138000D03*
X61976000Y-58039000D03*
X116205000Y-92456000D03*
X75311000Y-67310000D03*
X119380000Y-78232000D03*
D14*
X113284000Y-147828000D03*
D15*
X58293000Y-90551000D03*
X58308000Y-95489000D03*
X60960000Y-54483000D03*
X113665000Y-141478000D03*
X58547000Y-99187000D03*
X120269000Y-92456000D03*
X58547000Y-101727000D03*
X74803000Y-92202000D03*
X58547000Y-104267000D03*
X138938000Y-132842000D03*
X73406000Y-62992000D03*
X120955502Y-62230000D03*
X71129634Y-59619230D03*
X70612000Y-60054263D03*
X102108000Y-78994000D03*
X71755000Y-77343000D03*
X120142000Y-60198000D03*
X103759000Y-85979000D03*
X109957729Y-86464478D03*
X133858000Y-68072000D03*
X107696000Y-73279000D03*
X125857000Y-63246000D03*
X120777500Y-59563000D03*
X76454000Y-125095000D03*
X106221700Y-125144700D03*
X77401711Y-58712816D03*
X107569000Y-124587000D03*
X77846111Y-58166000D03*
X76962000Y-124079000D03*
X79883000Y-58547000D03*
X77978000Y-123698000D03*
X108458000Y-124206000D03*
X77216000Y-125095000D03*
X105791000Y-124714000D03*
X79396705Y-58155538D03*
X92964000Y-61214000D03*
X83001711Y-58166000D03*
X96393000Y-107188000D03*
X107096319Y-58838720D03*
X99755845Y-93065100D03*
X94130397Y-94083603D03*
X99267972Y-93552972D03*
X93567946Y-96071620D03*
X107545603Y-58356620D03*
X85120748Y-96291900D03*
X86487000Y-58928000D03*
X84345214Y-96248786D03*
X85242900Y-59233300D03*
X101092000Y-107061000D03*
X101092000Y-98806000D03*
X82524100Y-106045000D03*
X82169000Y-59182000D03*
X82931000Y-106680000D03*
X82966356Y-59181500D03*
X106299000Y-139700000D03*
X97663000Y-110617000D03*
X95885000Y-102336100D03*
X96647000Y-118618000D03*
X94924899Y-108757201D03*
X95885000Y-118618000D03*
X103378000Y-139954000D03*
X84074000Y-103124000D03*
X86233000Y-126492000D03*
X117985000Y-131949000D03*
X91173188Y-112522000D03*
X87249000Y-58039000D03*
X84758700Y-108126700D03*
X107188000Y-140589000D03*
X104775000Y-129413000D03*
X65278000Y-144272000D03*
X98298000Y-126619000D03*
X96520000Y-126619000D03*
X66421000Y-139192000D03*
X65532000Y-139192000D03*
X93218000Y-126619000D03*
X64849000Y-135176000D03*
X92329000Y-126619000D03*
X86317100Y-107416100D03*
X84053271Y-102317916D03*
X118009602Y-118110000D03*
X88042750Y-58070750D03*
X91694000Y-112014000D03*
X106299000Y-120396000D03*
X109093000Y-121158000D03*
X101981000Y-123008000D03*
X82042000Y-123418100D03*
X81407000Y-98171000D03*
X87455650Y-123237350D03*
X101409000Y-123508000D03*
X88079854Y-112141000D03*
X101981000Y-124008000D03*
X86106000Y-113411000D03*
X87249000Y-123952000D03*
X85471000Y-118110000D03*
X86360000Y-99695000D03*
X101600000Y-119507000D03*
X102108000Y-118999000D03*
X83947000Y-106426000D03*
X83820000Y-118110000D03*
X81964700Y-109142700D03*
X81407000Y-117348000D03*
X101600000Y-118491000D03*
X102108000Y-117983000D03*
X80899000Y-108432100D03*
X81407000Y-116078000D03*
X111379000Y-101219000D03*
X94107000Y-101219000D03*
X111379000Y-131445000D03*
X113284000Y-119380000D03*
X87668100Y-104355900D03*
X113284000Y-106299000D03*
X85979000Y-101346000D03*
X106426000Y-115951000D03*
X82854300Y-116586000D03*
X81788000Y-62103000D03*
X83483811Y-57759100D03*
X81026000Y-116713000D03*
X80798692Y-60198500D03*
X105791000Y-116459000D03*
X82423000Y-117856000D03*
X81401711Y-57912000D03*
X108585000Y-116967000D03*
X130937000Y-94742000D03*
X134493000Y-98679000D03*
X124714000Y-100330000D03*
X108075746Y-88431774D03*
X107666998Y-109220000D03*
D14*
X113083811Y-57785000D03*
D15*
X108077000Y-77851000D03*
D14*
X112283811Y-57785000D03*
X112283811Y-58485000D03*
X113083811Y-58485000D03*
D15*
X76835000Y-101600000D03*
X77406500Y-82359500D03*
X93091000Y-98679000D03*
X100711000Y-93091000D03*
X111887000Y-132969000D03*
X84849422Y-101346000D03*
X111887000Y-101854000D03*
X110896900Y-113213000D03*
X107188000Y-125349000D03*
X107213900Y-120523000D03*
X108417000Y-114513000D03*
X103438351Y-113096649D03*
X107250000Y-115316000D03*
X99314000Y-100965000D03*
X105664000Y-99949000D03*
X104330500Y-100331388D03*
X99314000Y-100331388D03*
X73812900Y-92202000D03*
X74676000Y-119126000D03*
X112395000Y-102489000D03*
X112395000Y-119888000D03*
X84201000Y-101727000D03*
X132951000Y-81643000D03*
X124977000Y-109395000D03*
X58928000Y-56896000D03*
D14*
X102683811Y-57785000D03*
X120293602Y-129413000D03*
X119253000Y-130429000D03*
X118237000Y-130429000D03*
X117221000Y-129413000D03*
X119253000Y-129413000D03*
X118237000Y-129413000D03*
X120269000Y-130429000D03*
X117221000Y-130429000D03*
X102683811Y-58485000D03*
X126111000Y-62103000D03*
D15*
X59817000Y-54229000D03*
D14*
X126111000Y-64770000D03*
X125222000Y-64770000D03*
X132842000Y-57912000D03*
X133731000Y-57912000D03*
D15*
X63881000Y-57912000D03*
D14*
X125222000Y-62103000D03*
D15*
X64643000Y-57150000D03*
D14*
X131953000Y-57912000D03*
X101083811Y-57785000D03*
D15*
X100330000Y-60325000D03*
X87249000Y-100330000D03*
X70231000Y-103378000D03*
X131756204Y-124841000D03*
D14*
X135164000Y-122726000D03*
D15*
X132391204Y-124841000D03*
D14*
X136307000Y-122726000D03*
X136314000Y-123476000D03*
X135164000Y-123476000D03*
D15*
X131121204Y-124841000D03*
D14*
X136307000Y-124226000D03*
X135164000Y-124226000D03*
D15*
X131121204Y-126111000D03*
X132391204Y-126111000D03*
D14*
X136314000Y-127476000D03*
X135164000Y-128226000D03*
X135164000Y-126726000D03*
X135164000Y-127476000D03*
X136307000Y-126726000D03*
D15*
X131756204Y-126111000D03*
D14*
X136307000Y-128226000D03*
X136282398Y-136565000D03*
X135139398Y-136565000D03*
D15*
X131731602Y-138680000D03*
D14*
X136289398Y-137315000D03*
X135139398Y-137315000D03*
X136282398Y-138065000D03*
X135139398Y-138065000D03*
D15*
X132366602Y-138680000D03*
X131096602Y-138680000D03*
X131096602Y-139950000D03*
X132366602Y-139950000D03*
D14*
X136282398Y-142065000D03*
D15*
X131731602Y-139950000D03*
D14*
X136289398Y-141315000D03*
X136282398Y-140565000D03*
X135139398Y-142065000D03*
X135139398Y-140565000D03*
X135139398Y-141315000D03*
D15*
X137287000Y-84963000D03*
X132967318Y-80350500D03*
X62992000Y-95504000D03*
X77724000Y-116433100D03*
X57404000Y-55626000D03*
X77216000Y-95504000D03*
X78994000Y-100838000D03*
X137922000Y-74041000D03*
X119126000Y-74041000D03*
X121666000Y-74930000D03*
X115189000Y-77978000D03*
X121029526Y-92456000D03*
X102870000Y-85217000D03*
X57658000Y-70866000D03*
X63881000Y-63627000D03*
X66421000Y-72517000D03*
X70104000Y-64516000D03*
X106218340Y-81191337D03*
X125010286Y-88519000D03*
X112141000Y-90551000D03*
X117094000Y-109855000D03*
X116611900Y-128524000D03*
X114935000Y-142621000D03*
X61214000Y-90043000D03*
X116205000Y-91186000D03*
X122428000Y-82296000D03*
X123190000Y-86487000D03*
X117079000Y-141732000D03*
X126619777Y-139315082D03*
X126986256Y-74803000D03*
X125562000Y-138045000D03*
X117079000Y-127119809D03*
X126644379Y-125476082D03*
X115331000Y-97028000D03*
X124968000Y-81249282D03*
X74803000Y-79883000D03*
X74803000Y-60960000D03*
X71483811Y-57785000D03*
D14*
X122301000Y-77851000D03*
X73083811Y-57785000D03*
X122301000Y-76962000D03*
D15*
X112268000Y-85979000D03*
X113665000Y-116205000D03*
D14*
X122301000Y-76073000D03*
X73083811Y-58485000D03*
D15*
X103378000Y-64262000D03*
X118683811Y-58100000D03*
X119189500Y-60680100D03*
X122936000Y-94965282D03*
D14*
X120283811Y-57785000D03*
X120650000Y-90678000D03*
X120650000Y-91567000D03*
X120650000Y-89789000D03*
D15*
X114046000Y-94869000D03*
D14*
X120283811Y-58485000D03*
D15*
X112395000Y-121158000D03*
X109855000Y-85598000D03*
X113538000Y-63010000D03*
X113538000Y-66947000D03*
X109728000Y-87376000D03*
X111298340Y-81191337D03*
X119634000Y-78908000D03*
X120608643Y-87163357D03*
X121031000Y-87757000D03*
X118110000Y-82931000D03*
X115951000Y-132588000D03*
X120504000Y-133581000D03*
X115697000Y-118999000D03*
X120528602Y-119742000D03*
X125586602Y-124206000D03*
X137287000Y-67945000D03*
X137287000Y-66675000D03*
X86129397Y-94765397D03*
X110109000Y-95250000D03*
X112395000Y-99695000D03*
X81407000Y-95250000D03*
X129818602Y-127429602D03*
X65278000Y-126111000D03*
X75311000Y-112014000D03*
X85852000Y-115951000D03*
X129794000Y-141268602D03*
X55245000Y-90805000D03*
X79502000Y-94996000D03*
X60452000Y-55626000D03*
X129024592Y-55468293D03*
X114579897Y-77978000D03*
X110617000Y-77851000D03*
X101600000Y-84582000D03*
X102108000Y-78232000D03*
D16*
X125358000Y-113313000D03*
D15*
X124977000Y-107444966D03*
X124977000Y-108744988D03*
X124894918Y-111416918D03*
X115809000Y-110475000D03*
X124935021Y-110695021D03*
X122047000Y-108077000D03*
X121539000Y-107696000D03*
X127381000Y-86614000D03*
X132969000Y-81026000D03*
X136652000Y-84963000D03*
X123190000Y-80340106D03*
X119761000Y-107823000D03*
X117729000Y-106299000D03*
X128270000Y-127000000D03*
X128441500Y-141224000D03*
X122809000Y-124333000D03*
X122067602Y-124206000D03*
X122809000Y-138176000D03*
X122043000Y-138053000D03*
X136906000Y-70993000D03*
X121158000Y-72644000D03*
X118364000Y-68707000D03*
X129428587Y-66280574D03*
X126900765Y-68726021D03*
X62738000Y-58420000D03*
X124841000Y-92329000D03*
X130919000Y-95359000D03*
X130919000Y-95359000D03*
X126831643Y-78908357D03*
X126647498Y-95377000D03*
X121920000Y-96139000D03*
X128605500Y-81706500D03*
X123278947Y-82296000D03*
X135255000Y-98679000D03*
X130935318Y-94066500D03*
X110998000Y-99567999D03*
X122920413Y-93739426D03*
X126700500Y-94066500D03*
X114031000Y-100076000D03*
X121158000Y-100203000D03*
X120393454Y-95893596D03*
X128732500Y-80350500D03*
X122936000Y-92583000D03*
X124968000Y-80106283D03*
X114046000Y-96266000D03*
D17*
X113665000Y-143764000D02*
X113284000Y-144145000D01*
X113665000Y-141478000D02*
X113665000Y-143764000D01*
X113284000Y-144145000D02*
X113284000Y-147828000D01*
D18*
X93083811Y-57284189D02*
X93472000Y-56896000D01*
X94996000Y-56896000D02*
X95483811Y-57383811D01*
D19*
X66929000Y-114554000D02*
X66929000Y-111252000D01*
X74168000Y-126746000D02*
X72390000Y-126746000D01*
D18*
X93472000Y-56896000D02*
X94996000Y-56896000D01*
X93083811Y-58100000D02*
X93083811Y-57284189D01*
D19*
X114427000Y-72768406D02*
X114427000Y-68453000D01*
D18*
X95483811Y-58485000D02*
X95483811Y-57785000D01*
D19*
X114427000Y-68453000D02*
X114300000Y-68326000D01*
D18*
X95483811Y-57383811D02*
X95483811Y-57785000D01*
D19*
X72390000Y-126746000D02*
X68210000Y-126746000D01*
D20*
X62992000Y-110363000D02*
X60325000Y-107696000D01*
X60325000Y-107696000D02*
X60325000Y-78359000D01*
X60325000Y-78359000D02*
X60706000Y-77978000D01*
X59817000Y-108077000D02*
X59817000Y-82169000D01*
X59817000Y-82169000D02*
X59817000Y-80518000D01*
X60833000Y-77089000D02*
X60833000Y-72009000D01*
X61468000Y-109728000D02*
X59817000Y-108077000D01*
X59817000Y-82169000D02*
X59817000Y-78105000D01*
X59817000Y-78105000D02*
X60833000Y-77089000D01*
X99441000Y-60073553D02*
X99441000Y-57785000D01*
X100330000Y-95377000D02*
X95544999Y-90591999D01*
X75819000Y-112695530D02*
X75833747Y-112680783D01*
X74930000Y-126111000D02*
X75819000Y-125222000D01*
X98067397Y-61447156D02*
X99441000Y-60073553D01*
X95544999Y-73345750D02*
X96154599Y-72736150D01*
X98933000Y-106934000D02*
X100330000Y-105537000D01*
X98067397Y-65582173D02*
X98067397Y-61447156D01*
X75819000Y-125222000D02*
X75819000Y-112695530D01*
X98933000Y-109855000D02*
X98933000Y-106934000D01*
X96154599Y-67648625D02*
X98144224Y-65659000D01*
X95544999Y-90591999D02*
X95544999Y-73345750D01*
X96154599Y-72736150D02*
X96154599Y-67648625D01*
X100330000Y-105537000D02*
X100330000Y-95377000D01*
X98144224Y-65659000D02*
X98067397Y-65582173D01*
D19*
X109601000Y-120904000D02*
X109601000Y-122301000D01*
X109601000Y-91562498D02*
X109601000Y-120904000D01*
D20*
X109601000Y-121666000D02*
X109601000Y-120904000D01*
D19*
X112141000Y-89022498D02*
X109601000Y-91562498D01*
X109601000Y-122301000D02*
X109093000Y-122809000D01*
D20*
X129921000Y-58674000D02*
X129576100Y-59018900D01*
X126238000Y-67500500D02*
X126238000Y-67691000D01*
X129576100Y-59018900D02*
X129576100Y-64162400D01*
X129576100Y-64162400D02*
X126238000Y-67500500D01*
X126111000Y-67056000D02*
X125859230Y-67056000D01*
X129122900Y-64044100D02*
X126111000Y-67056000D01*
X129122900Y-59018900D02*
X129122900Y-64044100D01*
X128778000Y-58674000D02*
X129122900Y-59018900D01*
X68580000Y-77978000D02*
X68580000Y-109093000D01*
X75565000Y-87884000D02*
X75565000Y-104588818D01*
X74752200Y-81488616D02*
X74752200Y-87071200D01*
X76072850Y-80167966D02*
X74752200Y-81488616D01*
X74752200Y-87071200D02*
X75565000Y-87884000D01*
X76072850Y-59476772D02*
X76072850Y-80167966D01*
X76283811Y-59265811D02*
X76072850Y-59476772D01*
X107213400Y-65633600D02*
X113883811Y-58963189D01*
X113883811Y-58963189D02*
X113883811Y-58039000D01*
X107213400Y-107670600D02*
X107213400Y-65633600D01*
X94107000Y-107696000D02*
X94107000Y-126873000D01*
X94107000Y-126873000D02*
X94107000Y-127492900D01*
X94488000Y-107315000D02*
X94107000Y-107696000D01*
X94107000Y-127492900D02*
X94938000Y-128323900D01*
X107188000Y-107696000D02*
X107213400Y-107670600D01*
X89763600Y-97434400D02*
X90678000Y-96520000D01*
X96520000Y-136525000D02*
X89763600Y-129768600D01*
X102743000Y-136525000D02*
X96520000Y-136525000D01*
X89763600Y-129768600D02*
X89763600Y-97434400D01*
X100584000Y-135763000D02*
X101600000Y-135763000D01*
X96012000Y-135255000D02*
X100076000Y-135255000D01*
X90170000Y-97917000D02*
X90170000Y-129413000D01*
X90932000Y-97155000D02*
X90170000Y-97917000D01*
X100076000Y-135255000D02*
X100584000Y-135763000D01*
X90170000Y-129413000D02*
X96012000Y-135255000D01*
X90690588Y-127127000D02*
X90690588Y-128917588D01*
X91440000Y-97663000D02*
X90690588Y-98412412D01*
X100355900Y-134620000D02*
X100838000Y-135102100D01*
X96393000Y-134620000D02*
X100355900Y-134620000D01*
X90690588Y-127127000D02*
X90690588Y-127520588D01*
X90690588Y-128917588D02*
X96393000Y-134620000D01*
X90690588Y-98412412D02*
X90690588Y-127127000D01*
X88019700Y-126000100D02*
X88017400Y-125997800D01*
X92456000Y-134239000D02*
X88019700Y-129802700D01*
X88019700Y-129802700D02*
X88019700Y-126000100D01*
X88017400Y-125997800D02*
X88017400Y-114955361D01*
X88017400Y-114955361D02*
X86995000Y-113932961D01*
X89281000Y-113264976D02*
X89281000Y-130175000D01*
X88547408Y-112531384D02*
X89281000Y-113264976D01*
X89281000Y-130175000D02*
X96139000Y-137033000D01*
X100689797Y-137033000D02*
X101341778Y-137684981D01*
X96139000Y-137033000D02*
X100689797Y-137033000D01*
X98362000Y-73215000D02*
X97536000Y-74041000D01*
X97536000Y-89154000D02*
X97536000Y-82931000D01*
X97536000Y-74041000D02*
X97536000Y-82931000D01*
X98844600Y-69712581D02*
X98417006Y-69284987D01*
X98171000Y-88646000D02*
X98044000Y-88519000D01*
X98844600Y-71628000D02*
X98844600Y-69712581D01*
X98171000Y-77597000D02*
X98844600Y-76923400D01*
X98044000Y-77724000D02*
X98171000Y-77597000D01*
X98044000Y-88519000D02*
X98044000Y-77724000D01*
X98844600Y-76923400D02*
X98844600Y-71628000D01*
X119912602Y-124964000D02*
X119126000Y-124177398D01*
X118373000Y-108995000D02*
X118373000Y-111370000D01*
X116205000Y-113538000D02*
X116205000Y-115443000D01*
X119126000Y-118364000D02*
X119126000Y-123317000D01*
X118373000Y-108995000D02*
X118373000Y-92211000D01*
X115570000Y-83980000D02*
X113251000Y-81661000D01*
X121085002Y-136470998D02*
X121085002Y-127816002D01*
X118373000Y-111370000D02*
X116205000Y-113538000D01*
X115570000Y-89408000D02*
X115570000Y-83980000D01*
X119888000Y-137668000D02*
X121085002Y-136470998D01*
X121085002Y-127816002D02*
X119912602Y-126643602D01*
X119912602Y-126643602D02*
X119912602Y-124964000D01*
X118373000Y-92211000D02*
X115570000Y-89408000D01*
X113251000Y-81661000D02*
X113251000Y-70358000D01*
X113251000Y-69693397D02*
X113157000Y-69599397D01*
X119888000Y-138807000D02*
X119888000Y-137668000D01*
X113251000Y-70358000D02*
X113251000Y-69954000D01*
X113251000Y-70358000D02*
X113251000Y-69693397D01*
X119126000Y-124177398D02*
X119126000Y-123317000D01*
X116205000Y-115443000D02*
X119126000Y-118364000D01*
X119253000Y-108712000D02*
X119008000Y-108467000D01*
X119008000Y-108467000D02*
X119008000Y-92211000D01*
X113792000Y-81280000D02*
X113792000Y-69551897D01*
X116713000Y-115316000D02*
X119634000Y-118237000D01*
X116205000Y-83693000D02*
X113792000Y-81280000D01*
X119008000Y-92211000D02*
X116205000Y-89408000D01*
X119253000Y-111125000D02*
X116713000Y-113665000D01*
X116713000Y-113665000D02*
X116713000Y-115316000D01*
X113792000Y-69551897D02*
X113201103Y-68961000D01*
X119253000Y-108712000D02*
X119253000Y-111125000D01*
X122050202Y-129028798D02*
X121539000Y-129540000D01*
X122050202Y-128146202D02*
X122050202Y-129028798D01*
X113201103Y-68961000D02*
X113157000Y-68961000D01*
X119634000Y-118237000D02*
X119634000Y-123546398D01*
X119634000Y-123546398D02*
X120420602Y-124333000D01*
X121539000Y-129540000D02*
X121539000Y-137029000D01*
X121539000Y-137029000D02*
X120396000Y-138172000D01*
X116205000Y-89408000D02*
X116205000Y-83693000D01*
X120420602Y-124333000D02*
X120420602Y-126516602D01*
X120420602Y-126516602D02*
X122050202Y-128146202D01*
X110617000Y-105791000D02*
X110617000Y-100330000D01*
D19*
X73063100Y-98513900D02*
X73063100Y-95973900D01*
X73787000Y-95250000D02*
X73787000Y-93218000D01*
X73063100Y-95973900D02*
X73787000Y-95250000D01*
X74041000Y-118491000D02*
X73482200Y-117932200D01*
X73304900Y-92735900D02*
X73304900Y-78968100D01*
X73787000Y-93218000D02*
X73304900Y-92735900D01*
X73482200Y-98933000D02*
X73063100Y-98513900D01*
X73482200Y-117932200D02*
X73482200Y-98933000D01*
X73304900Y-78968100D02*
X74168000Y-78105000D01*
D20*
X79502000Y-92075000D02*
X79502000Y-75565000D01*
X79019400Y-111023400D02*
X79019400Y-102971600D01*
X80899000Y-101092000D02*
X80899000Y-93472000D01*
X80899000Y-93472000D02*
X79502000Y-92075000D01*
X78232000Y-61382688D02*
X79903844Y-59710844D01*
X79502000Y-111506000D02*
X79019400Y-111023400D01*
X78232000Y-74295000D02*
X78232000Y-61382688D01*
X79019400Y-102971600D02*
X80899000Y-101092000D01*
X79502000Y-75565000D02*
X78232000Y-74295000D01*
D19*
X74549000Y-58801000D02*
X74168000Y-59182000D01*
X72263000Y-108839000D02*
X72263000Y-116459000D01*
X72771000Y-78232000D02*
X72771000Y-91948000D01*
X74168000Y-76835000D02*
X72771000Y-78232000D01*
X72390000Y-92329000D02*
X72390000Y-100203000D01*
X72771000Y-91948000D02*
X72390000Y-92329000D01*
X69596000Y-102997000D02*
X69596000Y-106172000D01*
X69596000Y-106172000D02*
X72263000Y-108839000D01*
X72390000Y-100203000D02*
X69596000Y-102997000D01*
X74168000Y-59182000D02*
X74168000Y-76835000D01*
D20*
X89367601Y-73873601D02*
X88773000Y-73279000D01*
X88773000Y-72136000D02*
X89408000Y-71501000D01*
X92266144Y-111608874D02*
X92266144Y-101742356D01*
X93871451Y-100137049D02*
X93871451Y-97173451D01*
X89367601Y-92669601D02*
X89367601Y-73873601D01*
X89408000Y-70485000D02*
X88671400Y-69748400D01*
X93871451Y-97173451D02*
X89367601Y-92669601D01*
X88671400Y-69748400D02*
X88671400Y-60562400D01*
X89408000Y-71501000D02*
X89408000Y-70485000D01*
X88773000Y-73279000D02*
X88773000Y-72136000D01*
X88671400Y-60562400D02*
X88680700Y-60553100D01*
X92266144Y-101742356D02*
X93871451Y-100137049D01*
X95189399Y-90871399D02*
X99822000Y-95504000D01*
X95250000Y-60604900D02*
X95250000Y-65398499D01*
X95189399Y-65459100D02*
X95189399Y-90871399D01*
X99822000Y-104902000D02*
X98558981Y-106165019D01*
X95224100Y-60579000D02*
X95250000Y-60604900D01*
X99822000Y-95504000D02*
X99822000Y-104902000D01*
X98558981Y-106165019D02*
X97796981Y-106165019D01*
X95250000Y-65398499D02*
X95189399Y-65459100D01*
X98425000Y-95117894D02*
X98425000Y-103632000D01*
X92955877Y-59554877D02*
X94386400Y-60985400D01*
X94386400Y-91079294D02*
X98425000Y-95117894D01*
X92955877Y-59444123D02*
X92955877Y-59554877D01*
X98425000Y-103632000D02*
X97218500Y-104838500D01*
X94386400Y-60985400D02*
X94386400Y-91079294D01*
X98831400Y-104114600D02*
X98831400Y-95021400D01*
X97155000Y-106299000D02*
X97155000Y-105791000D01*
X94742000Y-60071000D02*
X94488000Y-59817000D01*
X98831400Y-95021400D02*
X94742000Y-90932000D01*
X94742000Y-90932000D02*
X94742000Y-60071000D01*
X97155000Y-105791000D02*
X98831400Y-104114600D01*
X94030800Y-91236800D02*
X94030800Y-61471300D01*
X94030800Y-61471300D02*
X93011500Y-60452000D01*
X95758000Y-94488000D02*
X95732600Y-94462600D01*
X93011500Y-60452000D02*
X92964000Y-60452000D01*
X95732600Y-94462600D02*
X95732600Y-92938600D01*
X95732600Y-92938600D02*
X94030800Y-91236800D01*
X91313000Y-93134174D02*
X95186500Y-97007674D01*
X91440000Y-60706000D02*
X91440000Y-69404500D01*
X96477100Y-108796100D02*
X96477100Y-112577358D01*
X82405662Y-57934644D02*
X83164906Y-57175400D01*
X83164906Y-57175400D02*
X87909400Y-57175400D01*
X90678000Y-70166500D02*
X90678000Y-78486000D01*
X96477100Y-112577358D02*
X95406999Y-113647459D01*
X87909400Y-57175400D02*
X91440000Y-60706000D01*
X95186500Y-97007674D02*
X95186500Y-107505500D01*
X91313000Y-79121000D02*
X91313000Y-93134174D01*
X90678000Y-78486000D02*
X91313000Y-79121000D01*
X95186500Y-107505500D02*
X96477100Y-108796100D01*
X91440000Y-69404500D02*
X90678000Y-70166500D01*
X99441000Y-64643000D02*
X99488500Y-64643000D01*
X99488500Y-64643000D02*
X104775000Y-59356500D01*
X104775000Y-57785000D02*
X105333800Y-57226200D01*
X106121200Y-57226200D02*
X106680000Y-57785000D01*
X104775000Y-59356500D02*
X104775000Y-57785000D01*
X105333800Y-57226200D02*
X106121200Y-57226200D01*
X105802200Y-59043800D02*
X106115274Y-59043800D01*
X99441000Y-65405000D02*
X105802200Y-59043800D01*
X106115274Y-59043800D02*
X106680000Y-58479074D01*
X106680000Y-58479074D02*
X106680000Y-58394103D01*
X122428000Y-73621301D02*
X122428000Y-74422000D01*
X111760000Y-80970497D02*
X111760000Y-64389000D01*
X111760000Y-81412177D02*
X111780940Y-81391237D01*
X85725000Y-63373000D02*
X84988400Y-64109600D01*
X85725000Y-58141534D02*
X85725000Y-63373000D01*
X111760000Y-64389000D02*
X112141000Y-64008000D01*
X85401211Y-57817745D02*
X85725000Y-58141534D01*
X84963000Y-64135000D02*
X84988400Y-64109600D01*
X119888000Y-65659000D02*
X121793000Y-67564000D01*
X111760000Y-88250000D02*
X111760000Y-81412177D01*
X111780940Y-81391237D02*
X111780940Y-80991437D01*
X121793000Y-72986301D02*
X122428000Y-73621301D01*
X111780940Y-80991437D02*
X111760000Y-80970497D01*
X121793000Y-67564000D02*
X121793000Y-72986301D01*
X110856000Y-89154000D02*
X111760000Y-88250000D01*
X60960000Y-57000506D02*
X60960000Y-56642000D01*
D19*
X114300000Y-130937000D02*
X114300000Y-130302000D01*
X108839000Y-91440000D02*
X109220000Y-91059000D01*
X114320376Y-125877376D02*
X114300000Y-125897752D01*
X114300000Y-125857000D02*
X114300000Y-117729000D01*
X114300000Y-125897752D02*
X114300000Y-130937000D01*
X58547000Y-95728000D02*
X58308000Y-95489000D01*
X114300000Y-117729000D02*
X115196416Y-116832584D01*
X116636800Y-88823800D02*
X120269000Y-92456000D01*
X58547000Y-96647000D02*
X58547000Y-95728000D01*
X116205000Y-100838000D02*
X115196416Y-101846584D01*
X113665000Y-141478000D02*
X114300000Y-140843000D01*
X115196416Y-116832584D02*
X115196416Y-110109000D01*
X114320376Y-125877376D02*
X114300000Y-125857000D01*
X114300000Y-140843000D02*
X114300000Y-130937000D01*
X116636800Y-80975200D02*
X116636800Y-88823800D01*
X108839000Y-92456000D02*
X108839000Y-91440000D01*
X116205000Y-92456000D02*
X116205000Y-100838000D01*
D20*
X61976000Y-58016506D02*
X60960000Y-57000506D01*
D19*
X115196416Y-110109000D02*
X115196416Y-108704584D01*
X119380000Y-78232000D02*
X116636800Y-80975200D01*
X75311000Y-59053460D02*
X75691850Y-58672610D01*
X75311000Y-80391000D02*
X75311000Y-59053460D01*
X58547000Y-96647000D02*
X58547000Y-99187000D01*
X58547000Y-99187000D02*
X58547000Y-104267000D01*
X58308000Y-95489000D02*
X58308000Y-90566000D01*
X58308000Y-90566000D02*
X58293000Y-90551000D01*
X74295000Y-91694000D02*
X74295000Y-81407000D01*
X75691850Y-58672610D02*
X75691850Y-58083404D01*
D20*
X61976000Y-58039000D02*
X61976000Y-58016506D01*
D19*
X115196416Y-101846584D02*
X115196416Y-110109000D01*
X74803000Y-92202000D02*
X74295000Y-91694000D01*
X74295000Y-81407000D02*
X75311000Y-80391000D01*
X109220000Y-91059000D02*
X109220000Y-88138000D01*
D20*
X60960000Y-56642000D02*
X60960000Y-56943500D01*
X60960000Y-54483000D02*
X60960000Y-56642000D01*
X73406000Y-62992000D02*
X71129634Y-60715634D01*
X71129634Y-60715634D02*
X71129634Y-59619230D01*
X68961000Y-66929000D02*
X70612000Y-65278000D01*
X71755000Y-77343000D02*
X68961000Y-74549000D01*
X70612000Y-65278000D02*
X70612000Y-60054263D01*
X68961000Y-74549000D02*
X68961000Y-66929000D01*
X118745000Y-60198000D02*
X120142000Y-60198000D01*
X109957729Y-86464478D02*
X110337600Y-86084607D01*
X114427000Y-60706000D02*
X118237000Y-60706000D01*
X110337600Y-86084607D02*
X110337600Y-85398100D01*
X109982000Y-65151000D02*
X114427000Y-60706000D01*
X118237000Y-60706000D02*
X118745000Y-60198000D01*
X109982000Y-85042500D02*
X109982000Y-65151000D01*
X110337600Y-85398100D02*
X109982000Y-85042500D01*
X114871737Y-59182000D02*
X116418037Y-59182000D01*
X107696000Y-66357737D02*
X114871737Y-59182000D01*
X116976837Y-58623200D02*
X118595463Y-58623200D01*
X124460000Y-66967756D02*
X125691244Y-68199000D01*
X133731000Y-68199000D02*
X133858000Y-68072000D01*
X116418037Y-59182000D02*
X116976837Y-58623200D01*
X107696000Y-73279000D02*
X107696000Y-66357737D01*
X118595463Y-58623200D02*
X119535263Y-59563000D01*
X125691244Y-68199000D02*
X133731000Y-68199000D01*
X124460000Y-64643000D02*
X124460000Y-66967756D01*
X119535263Y-59563000D02*
X120777500Y-59563000D01*
X125857000Y-63246000D02*
X124460000Y-64643000D01*
X76327000Y-121412000D02*
X76657700Y-121081300D01*
X76657700Y-121081300D02*
X76657700Y-104216700D01*
X75946000Y-80797710D02*
X76428450Y-80315260D01*
X75946000Y-103505000D02*
X75946000Y-80797710D01*
X77401711Y-59563000D02*
X77401711Y-58712816D01*
X76428450Y-60536261D02*
X77401711Y-59563000D01*
X76454000Y-125095000D02*
X76327000Y-124968000D01*
X76657700Y-104216700D02*
X75946000Y-103505000D01*
X76327000Y-124968000D02*
X76327000Y-121412000D01*
X76428450Y-80315260D02*
X76428450Y-60536261D01*
X76301600Y-102844600D02*
X76301600Y-80945004D01*
X77883811Y-59583794D02*
X77883811Y-58203700D01*
X76962000Y-124079000D02*
X77114400Y-123926600D01*
X77114400Y-123926600D02*
X77114400Y-103657400D01*
X77114400Y-103657400D02*
X76301600Y-102844600D01*
X76301600Y-80945004D02*
X76784050Y-80462554D01*
X77883811Y-58203700D02*
X77846111Y-58166000D01*
X76784050Y-60683555D02*
X77883811Y-59583794D01*
X76784050Y-80462554D02*
X76784050Y-60683555D01*
X78613000Y-78740000D02*
X79121000Y-78232000D01*
X79121000Y-76073000D02*
X77812672Y-74764672D01*
X77812672Y-61120222D02*
X79883000Y-59049894D01*
X79121000Y-78232000D02*
X79121000Y-76073000D01*
X79883000Y-59049894D02*
X79883000Y-58547000D01*
X77978000Y-123698000D02*
X77978000Y-117364494D01*
X77812672Y-74764672D02*
X77812672Y-61120222D01*
X78562200Y-116780294D02*
X78562200Y-102788694D01*
X80468620Y-100882274D02*
X80468620Y-93676620D01*
X77978000Y-117364494D02*
X78562200Y-116780294D01*
X78562200Y-102788694D02*
X80468620Y-100882274D01*
X80468620Y-93676620D02*
X78613000Y-91821000D01*
X78613000Y-91821000D02*
X78613000Y-78740000D01*
X79503420Y-101306012D02*
X79503420Y-96267420D01*
X79503420Y-96267420D02*
X77978000Y-94742000D01*
X77241400Y-81178400D02*
X77241400Y-61061600D01*
X77978000Y-94742000D02*
X77978000Y-81915000D01*
X79396705Y-58906295D02*
X79396705Y-58155538D01*
X77241400Y-61061600D02*
X79396705Y-58906295D01*
X78206600Y-116633000D02*
X78206600Y-102602832D01*
X77470000Y-117369600D02*
X78206600Y-116633000D01*
X77470000Y-124841000D02*
X77470000Y-117369600D01*
X78206600Y-102602832D02*
X79503420Y-101306012D01*
X77978000Y-81915000D02*
X77241400Y-81178400D01*
X77216000Y-125095000D02*
X77470000Y-124841000D01*
X94615000Y-94027500D02*
X97924899Y-97337399D01*
X94615000Y-92456000D02*
X94615000Y-94027500D01*
X92964000Y-61214000D02*
X92964000Y-90805000D01*
X97924899Y-103370101D02*
X96393000Y-104902000D01*
X96393000Y-104902000D02*
X96393000Y-107188000D01*
X97924899Y-97337399D02*
X97924899Y-103370101D01*
X92964000Y-90805000D02*
X94615000Y-92456000D01*
X96393000Y-89702255D02*
X96393000Y-74295000D01*
X99441000Y-66494039D02*
X107096319Y-58838720D01*
X97790000Y-72898000D02*
X97790000Y-69215000D01*
X99441000Y-67564000D02*
X99441000Y-66494039D01*
X96393000Y-74295000D02*
X97790000Y-72898000D01*
X99755845Y-93065100D02*
X96393000Y-89702255D01*
X97790000Y-69215000D02*
X99441000Y-67564000D01*
X104267000Y-58674000D02*
X104267000Y-57277000D01*
X104902000Y-56642000D02*
X107188000Y-56642000D01*
X107569000Y-57023000D02*
X107569000Y-58333223D01*
X96647000Y-69469000D02*
X98704400Y-67411600D01*
X107188000Y-56642000D02*
X107569000Y-57023000D01*
X95900599Y-73771401D02*
X96647000Y-73025000D01*
X104267000Y-57277000D02*
X104902000Y-56642000D01*
X107569000Y-58333223D02*
X107545603Y-58356620D01*
X98704400Y-67411600D02*
X98704400Y-64236600D01*
X95900599Y-90185599D02*
X95900599Y-73771401D01*
X99267972Y-93552972D02*
X95900599Y-90185599D01*
X98704400Y-64236600D02*
X104267000Y-58674000D01*
X96647000Y-73025000D02*
X96647000Y-69469000D01*
X84455000Y-95626152D02*
X85120748Y-96291900D01*
X86095952Y-63764048D02*
X84455000Y-65405000D01*
X84455000Y-65405000D02*
X84455000Y-95626152D01*
X86487000Y-58928000D02*
X86095952Y-59319048D01*
X86095952Y-59319048D02*
X86095952Y-63764048D01*
X85242900Y-59233300D02*
X85242900Y-61188100D01*
X84074000Y-62357000D02*
X84074000Y-95977572D01*
X85242900Y-61188100D02*
X84074000Y-62357000D01*
X84074000Y-95977572D02*
X84345214Y-96248786D01*
X101092000Y-107061000D02*
X101092000Y-98806000D01*
X83362800Y-88722200D02*
X82956400Y-89128600D01*
X82169000Y-59182000D02*
X83362800Y-60375800D01*
X83362800Y-60375800D02*
X83362800Y-88722200D01*
X82956400Y-105612700D02*
X82524100Y-106045000D01*
X82956400Y-89128600D02*
X82956400Y-105612700D01*
X84175600Y-97558100D02*
X84175600Y-99085400D01*
X83439000Y-99822000D02*
X83439000Y-106172000D01*
X84175600Y-99085400D02*
X83439000Y-99822000D01*
X82966356Y-59181500D02*
X83718400Y-59933544D01*
X83439000Y-106172000D02*
X82931000Y-106680000D01*
X83718400Y-59933544D02*
X83718400Y-97100900D01*
X83718400Y-97100900D02*
X84175600Y-97558100D01*
X97663000Y-130429000D02*
X97663000Y-110617000D01*
X106299000Y-139700000D02*
X106299000Y-139065000D01*
X106299000Y-139065000D02*
X97663000Y-130429000D01*
X97155000Y-108839000D02*
X95885000Y-107569000D01*
X96647000Y-118618000D02*
X96647000Y-118157500D01*
X95885000Y-107569000D02*
X95885000Y-102336100D01*
X96647000Y-118157500D02*
X97155000Y-117649500D01*
X97155000Y-117649500D02*
X97155000Y-108839000D01*
X94924899Y-117657899D02*
X94924899Y-108757201D01*
X95885000Y-118618000D02*
X94924899Y-117657899D01*
X86233000Y-119684300D02*
X84785700Y-118237000D01*
X84785700Y-118237000D02*
X84785700Y-108966900D01*
X85344000Y-104394000D02*
X84074000Y-103124000D01*
X85344000Y-108408600D02*
X85344000Y-104394000D01*
X84785700Y-108966900D02*
X85344000Y-108408600D01*
X86233000Y-126492000D02*
X86233000Y-119684300D01*
X86995000Y-63246000D02*
X86995000Y-67230500D01*
X87249000Y-58039000D02*
X87630000Y-58420000D01*
X91173188Y-98945812D02*
X91173188Y-112522000D01*
X87249000Y-92075000D02*
X92202000Y-97028000D01*
X92202000Y-97917000D02*
X91173188Y-98945812D01*
X87630000Y-62611000D02*
X86995000Y-63246000D01*
X86995000Y-67230500D02*
X87249000Y-67484500D01*
X92202000Y-97028000D02*
X92202000Y-97917000D01*
X87249000Y-67484500D02*
X87249000Y-92075000D01*
X87630000Y-58420000D02*
X87630000Y-62611000D01*
X96266000Y-139065000D02*
X104394000Y-139065000D01*
X83947000Y-119126000D02*
X83947000Y-125285500D01*
X83947000Y-125285500D02*
X87312500Y-128651000D01*
X104394000Y-139065000D02*
X105918000Y-140589000D01*
X105918000Y-140589000D02*
X107188000Y-140589000D01*
X84758700Y-108126700D02*
X84430100Y-108455300D01*
X84430100Y-118642900D02*
X83947000Y-119126000D01*
X87312500Y-130111500D02*
X96266000Y-139065000D01*
X84430100Y-108455300D02*
X84430100Y-118642900D01*
X87312500Y-128651000D02*
X87312500Y-130111500D01*
X86317100Y-104581745D02*
X84053271Y-102317916D01*
X86317100Y-107416100D02*
X86317100Y-104581745D01*
X88042750Y-58070750D02*
X88112600Y-58140600D01*
X87909400Y-92227400D02*
X92557600Y-96875600D01*
X92557600Y-96875600D02*
X92557600Y-98323400D01*
X91694000Y-99187000D02*
X91694000Y-112014000D01*
X88112600Y-70250000D02*
X87909400Y-70453200D01*
X87909400Y-70453200D02*
X87909400Y-92227400D01*
X88112600Y-58140600D02*
X88112600Y-70250000D01*
X92557600Y-98323400D02*
X91694000Y-99187000D01*
X81534000Y-101086894D02*
X81534000Y-98298000D01*
X80060800Y-121436900D02*
X80060800Y-102560094D01*
X82042000Y-123418100D02*
X80060800Y-121436900D01*
X81534000Y-98298000D02*
X81407000Y-98171000D01*
X80060800Y-102560094D02*
X81534000Y-101086894D01*
X87455650Y-123237350D02*
X87249000Y-123030700D01*
X86487000Y-113733854D02*
X88079854Y-112141000D01*
X87249000Y-115634677D02*
X86487000Y-114872677D01*
X86487000Y-114872677D02*
X86487000Y-113733854D01*
X87249000Y-123030700D02*
X87249000Y-115634677D01*
X86106000Y-115062000D02*
X86106000Y-113411000D01*
X86670000Y-123373000D02*
X86670000Y-115626000D01*
X87249000Y-123952000D02*
X86670000Y-123373000D01*
X86670000Y-115626000D02*
X86106000Y-115062000D01*
X87503500Y-105077000D02*
X85332022Y-102905522D01*
X85471000Y-118110000D02*
X85141300Y-117780300D01*
X85141300Y-117780300D02*
X85141300Y-111074200D01*
X87503500Y-108712000D02*
X87503500Y-105077000D01*
X85141300Y-111074200D02*
X87503500Y-108712000D01*
X85332022Y-100722978D02*
X86360000Y-99695000D01*
X85332022Y-102905522D02*
X85332022Y-100722978D01*
X83921600Y-106451400D02*
X83947000Y-106426000D01*
X83439000Y-117729000D02*
X83439000Y-115255053D01*
X83921600Y-114772453D02*
X83921600Y-106451400D01*
X83439000Y-115255053D02*
X83921600Y-114772453D01*
X83820000Y-118110000D02*
X83439000Y-117729000D01*
X81407000Y-117348000D02*
X82016600Y-116738400D01*
X82016600Y-116738400D02*
X82016600Y-109194600D01*
X82016600Y-109194600D02*
X81964700Y-109142700D01*
X80899000Y-115570000D02*
X80899000Y-108432100D01*
X81407000Y-116078000D02*
X80899000Y-115570000D01*
X111379000Y-101219000D02*
X111379000Y-131445000D01*
X113157000Y-106426000D02*
X113284000Y-106299000D01*
X113157000Y-119253000D02*
X113157000Y-106426000D01*
X85979000Y-102666800D02*
X85979000Y-101346000D01*
X113284000Y-119380000D02*
X113157000Y-119253000D01*
X87668100Y-104355900D02*
X85979000Y-102666800D01*
X82804000Y-115189000D02*
X82804000Y-116535700D01*
X81788000Y-62103000D02*
X80645000Y-63246000D01*
X80645000Y-91262200D02*
X82600800Y-93218000D01*
X83566000Y-114427000D02*
X82804000Y-115189000D01*
X82042000Y-107828106D02*
X83566000Y-109352106D01*
X83566000Y-109352106D02*
X83566000Y-114427000D01*
X82600800Y-93218000D02*
X82600800Y-101942900D01*
X82042000Y-102501700D02*
X82042000Y-107828106D01*
X82600800Y-101942900D02*
X82042000Y-102501700D01*
X82804000Y-116535700D02*
X82854300Y-116586000D01*
X80645000Y-63246000D02*
X80645000Y-91262200D01*
X81889600Y-93853000D02*
X81889600Y-101371400D01*
X80798692Y-60198500D02*
X80798692Y-60277884D01*
X80416400Y-114553500D02*
X80416900Y-114554000D01*
X80416900Y-114554000D02*
X80416900Y-116103900D01*
X80798692Y-60277884D02*
X79908400Y-61168176D01*
X80416400Y-102844600D02*
X80416400Y-114553500D01*
X81889600Y-101371400D02*
X80416400Y-102844600D01*
X79908400Y-61168176D02*
X79908400Y-91871800D01*
X79908400Y-91871800D02*
X81889600Y-93853000D01*
X80416900Y-116103900D02*
X81026000Y-116713000D01*
X80264000Y-61849000D02*
X80264000Y-91617800D01*
X81661000Y-102235000D02*
X81661000Y-107950000D01*
X81281292Y-60831708D02*
X80264000Y-61849000D01*
X80264000Y-91617800D02*
X82245200Y-93599000D01*
X81401711Y-57912000D02*
X81281292Y-58032419D01*
X83142100Y-114215900D02*
X82372200Y-114985800D01*
X81281292Y-58032419D02*
X81281292Y-60831708D01*
X82372200Y-117805200D02*
X82423000Y-117856000D01*
X81661000Y-107950000D02*
X83142100Y-109431100D01*
X82245200Y-101650800D02*
X81661000Y-102235000D01*
X82372200Y-114985800D02*
X82372200Y-117805200D01*
X83142100Y-109431100D02*
X83142100Y-114215900D01*
X82245200Y-93599000D02*
X82245200Y-101650800D01*
D19*
X131020421Y-94742000D02*
X130937000Y-94742000D01*
X134493000Y-98214579D02*
X131020421Y-94742000D01*
X134493000Y-98679000D02*
X134493000Y-98214579D01*
D20*
X108585000Y-90932000D02*
X108204000Y-91313000D01*
X108075746Y-88431774D02*
X108585000Y-88941028D01*
X108585000Y-88941028D02*
X108585000Y-90932000D01*
X108204000Y-108682998D02*
X107666998Y-109220000D01*
X108077000Y-77851000D02*
X108075746Y-77852254D01*
X107696000Y-109190998D02*
X107666998Y-109220000D01*
X108204000Y-91313000D02*
X108204000Y-108682998D01*
X108075746Y-77852254D02*
X108075746Y-88431774D01*
X76835000Y-89154000D02*
X76835000Y-88265000D01*
X77406500Y-82359500D02*
X77216000Y-82550000D01*
X76708000Y-89281000D02*
X76835000Y-89154000D01*
X76835000Y-101600000D02*
X76708000Y-101473000D01*
X77406500Y-82359500D02*
X76835000Y-82931000D01*
X76835000Y-82931000D02*
X76835000Y-89154000D01*
X76708000Y-101473000D02*
X76708000Y-89281000D01*
X111887000Y-101854000D02*
X111887000Y-132969000D01*
X74422000Y-110385037D02*
X74422000Y-92811100D01*
X74726800Y-110689837D02*
X74422000Y-110385037D01*
X74422000Y-92811100D02*
X73812900Y-92202000D01*
X74726800Y-119075200D02*
X74726800Y-110689837D01*
X74676000Y-119126000D02*
X74726800Y-119075200D01*
X112395000Y-102489000D02*
X112395000Y-119888000D01*
D18*
X121412000Y-60198000D02*
X123317000Y-62103000D01*
X101083811Y-57785000D02*
X101083818Y-57784993D01*
X119446193Y-55626000D02*
X121412000Y-57591807D01*
X121412000Y-57591807D02*
X121412000Y-60198000D01*
X102885403Y-55626000D02*
X119446193Y-55626000D01*
D20*
X100330000Y-60325000D02*
X101083811Y-59571189D01*
D18*
X101083818Y-57427585D02*
X102885403Y-55626000D01*
X101083818Y-57784993D02*
X101083818Y-57427585D01*
D20*
X101083811Y-59571189D02*
X101083811Y-57785000D01*
D18*
X123317000Y-62103000D02*
X126111000Y-62103000D01*
D19*
X137287000Y-84625579D02*
X133011921Y-80350500D01*
X133011921Y-80350500D02*
X132967318Y-80350500D01*
X137287000Y-84963000D02*
X137287000Y-84625579D01*
D20*
X65278000Y-77343000D02*
X65278000Y-62230000D01*
X58674000Y-55626000D02*
X57404000Y-55626000D01*
X77216000Y-95504000D02*
X77216000Y-98218500D01*
X77724000Y-102108000D02*
X77724000Y-116433100D01*
X65278000Y-62230000D02*
X58674000Y-55626000D01*
X78994000Y-99996500D02*
X78994000Y-100838000D01*
X78994000Y-100838000D02*
X77724000Y-102108000D01*
X62992000Y-95504000D02*
X62992000Y-79629000D01*
X77216000Y-98218500D02*
X78994000Y-99996500D01*
X62992000Y-79629000D02*
X65278000Y-77343000D01*
D19*
X137922000Y-74041000D02*
X124891800Y-74041000D01*
X120573800Y-75488800D02*
X119126000Y-74041000D01*
X123444000Y-75488800D02*
X120573800Y-75488800D01*
X124891800Y-74041000D02*
X123444000Y-75488800D01*
D20*
X63881000Y-69469000D02*
X62484000Y-70866000D01*
X63881000Y-63627000D02*
X63881000Y-69469000D01*
X62484000Y-70866000D02*
X57658000Y-70866000D01*
X66421000Y-72517000D02*
X66421000Y-68199000D01*
X66421000Y-68199000D02*
X70104000Y-64516000D01*
X117094000Y-111067416D02*
X117094000Y-109855000D01*
X115697000Y-112464416D02*
X117094000Y-111067416D01*
X117094000Y-92075000D02*
X116205000Y-91186000D01*
X114935000Y-117856000D02*
X115697000Y-117094000D01*
X114935000Y-126847100D02*
X114935000Y-117856000D01*
X114935000Y-130200900D02*
X116611900Y-128524000D01*
X117094000Y-109855000D02*
X117094000Y-92075000D01*
X116611900Y-128524000D02*
X114935000Y-126847100D01*
X114935000Y-142621000D02*
X114935000Y-130200900D01*
X115697000Y-117094000D02*
X115697000Y-112464416D01*
X122428000Y-82296000D02*
X123190000Y-83058000D01*
X123190000Y-83058000D02*
X123190000Y-86487000D01*
D19*
X74803000Y-79883000D02*
X74803000Y-60960000D01*
X113411000Y-103759000D02*
X113411000Y-86995000D01*
X113411000Y-86995000D02*
X113411000Y-86741000D01*
X112268000Y-85979000D02*
X112395000Y-85979000D01*
X113665000Y-116205000D02*
X113665000Y-107696000D01*
X114046000Y-104394000D02*
X113411000Y-103759000D01*
X113665000Y-107696000D02*
X114046000Y-107315000D01*
X112395000Y-85979000D02*
X113411000Y-86995000D01*
X114046000Y-107315000D02*
X114046000Y-104394000D01*
X121666000Y-93695282D02*
X122936000Y-94965282D01*
X120650000Y-77216000D02*
X120650000Y-86487000D01*
D20*
X108204000Y-57531000D02*
X109220000Y-56515000D01*
D19*
X117856000Y-74422000D02*
X120650000Y-77216000D01*
D20*
X103378000Y-64262000D02*
X103378000Y-63500000D01*
D19*
X120650000Y-86487000D02*
X121666000Y-87503000D01*
D20*
X108204000Y-58674000D02*
X108204000Y-57531000D01*
X117098811Y-56515000D02*
X118683811Y-58100000D01*
D19*
X121666000Y-87503000D02*
X121666000Y-93695282D01*
X119189500Y-60680100D02*
X117856000Y-62013600D01*
X117856000Y-62013600D02*
X117856000Y-74422000D01*
D20*
X103378000Y-63500000D02*
X108204000Y-58674000D01*
X109220000Y-56515000D02*
X117098811Y-56515000D01*
D19*
X114681000Y-115907421D02*
X114681000Y-96393000D01*
X112395000Y-121158000D02*
X112395000Y-121099181D01*
X113792000Y-119702181D02*
X113792000Y-116796421D01*
X113792000Y-116796421D02*
X114681000Y-115907421D01*
X114681000Y-95504000D02*
X114046000Y-94869000D01*
X114681000Y-96393000D02*
X114681000Y-95504000D01*
X112395000Y-121099181D02*
X113792000Y-119702181D01*
D20*
X111298340Y-84963000D02*
X111298340Y-85805660D01*
X111298340Y-84963000D02*
X111298340Y-81191337D01*
X111298340Y-85805660D02*
X109728000Y-87376000D01*
X120142000Y-79416000D02*
X119634000Y-78908000D01*
X120608643Y-87163357D02*
X120142000Y-86696714D01*
X120142000Y-86696714D02*
X120142000Y-79416000D01*
X120475500Y-87757000D02*
X119761000Y-87042500D01*
X119761000Y-87042500D02*
X119761000Y-84582000D01*
X121031000Y-87757000D02*
X120475500Y-87757000D01*
X119761000Y-84582000D02*
X118110000Y-82931000D01*
X72950000Y-126186000D02*
X65353000Y-126186000D01*
X75311000Y-112014000D02*
X75311000Y-123825000D01*
X65353000Y-126186000D02*
X65278000Y-126111000D01*
X75311000Y-123825000D02*
X72950000Y-126186000D01*
X124333000Y-112288000D02*
X124333000Y-108088966D01*
X125358000Y-113313000D02*
X124333000Y-112288000D01*
X124333000Y-108088966D02*
X124977000Y-107444966D01*
D19*
X133052421Y-81026000D02*
X132969000Y-81026000D01*
X136652000Y-84625579D02*
X133052421Y-81026000D01*
X136652000Y-84963000D02*
X136652000Y-84625579D01*
X135255000Y-98679000D02*
X135255000Y-98341579D01*
X135255000Y-98341579D02*
X130979921Y-94066500D01*
X130979921Y-94066500D02*
X130935318Y-94066500D01*
D20*
X121158000Y-96658142D02*
X121158000Y-100203000D01*
X120393454Y-95893596D02*
X121158000Y-96658142D01*
X123825000Y-81249283D02*
X123825000Y-91694000D01*
X124968000Y-80106283D02*
X123825000Y-81249283D01*
X123825000Y-91694000D02*
X122936000Y-92583000D01*
G04 #@! TA.AperFunction,Conductor*
G36*
X66548000Y-111900478D02*
G01*
X66584822Y-111937300D01*
X66598300Y-111987600D01*
X66598300Y-114121625D01*
X66591957Y-114156781D01*
X66573729Y-114187504D01*
X66496823Y-114276257D01*
X66436080Y-114409266D01*
X66415270Y-114554000D01*
X66436080Y-114698733D01*
X66496824Y-114831744D01*
X66534970Y-114875766D01*
X66592579Y-114942250D01*
X66715589Y-115021304D01*
X66855889Y-115062500D01*
X67002111Y-115062500D01*
X67142411Y-115021304D01*
X67265421Y-114942250D01*
X67361176Y-114831743D01*
X67421919Y-114698734D01*
X67442729Y-114554000D01*
X67421919Y-114409266D01*
X67361176Y-114276257D01*
X67284271Y-114187504D01*
X67266043Y-114156781D01*
X67259700Y-114121625D01*
X67259700Y-111987600D01*
X67273178Y-111937300D01*
X67310000Y-111900478D01*
X67360300Y-111887000D01*
X71831700Y-111887000D01*
X71882000Y-111900478D01*
X71918822Y-111937300D01*
X71932300Y-111987600D01*
X71932300Y-116142987D01*
X71925957Y-116178143D01*
X71907730Y-116208864D01*
X71903598Y-116213632D01*
X71895586Y-116222878D01*
X71843945Y-116335955D01*
X71826255Y-116459000D01*
X71843945Y-116582044D01*
X71895587Y-116695123D01*
X71939686Y-116746015D01*
X71976993Y-116789070D01*
X72081570Y-116856277D01*
X72200845Y-116891300D01*
X72325153Y-116891300D01*
X72325155Y-116891300D01*
X72395106Y-116870760D01*
X72456301Y-116872201D01*
X72505334Y-116908849D01*
X72524046Y-116967134D01*
X72537308Y-125779949D01*
X72523881Y-125830313D01*
X72487052Y-125867197D01*
X72436708Y-125880700D01*
X65696401Y-125880700D01*
X65654611Y-125871609D01*
X65620373Y-125845980D01*
X65606797Y-125830313D01*
X65564007Y-125780930D01*
X65459430Y-125713723D01*
X65340155Y-125678700D01*
X65215845Y-125678700D01*
X65156207Y-125696211D01*
X65096569Y-125713723D01*
X65029362Y-125756914D01*
X64991993Y-125780930D01*
X64991992Y-125780930D01*
X64991992Y-125780931D01*
X64910587Y-125874876D01*
X64858945Y-125987955D01*
X64841255Y-126110999D01*
X64858945Y-126234044D01*
X64910587Y-126347123D01*
X64912544Y-126349381D01*
X64991993Y-126441070D01*
X65096570Y-126508277D01*
X65215845Y-126543300D01*
X65340154Y-126543300D01*
X65340155Y-126543300D01*
X65459430Y-126508277D01*
X65460997Y-126507269D01*
X65515385Y-126491300D01*
X67694534Y-126491300D01*
X67742749Y-126503607D01*
X67779168Y-126537517D01*
X67794878Y-126584733D01*
X67790624Y-126608294D01*
X67793004Y-126608637D01*
X67773255Y-126746000D01*
X67790945Y-126869044D01*
X67842587Y-126982123D01*
X67886686Y-127033015D01*
X67923993Y-127076070D01*
X68028570Y-127143277D01*
X68147845Y-127178300D01*
X68272154Y-127178300D01*
X68272155Y-127178300D01*
X68391430Y-127143277D01*
X68470176Y-127092670D01*
X68524565Y-127076700D01*
X72438811Y-127076700D01*
X72489067Y-127090153D01*
X72525883Y-127126913D01*
X72539411Y-127177149D01*
X72543837Y-130119030D01*
X72536234Y-130157547D01*
X72529630Y-130167458D01*
X72571970Y-146662191D01*
X72584996Y-151737109D01*
X72585786Y-152044642D01*
X72572394Y-152095051D01*
X72535561Y-152131979D01*
X72485186Y-152145500D01*
X51938029Y-152145500D01*
X51922896Y-152144355D01*
X51841562Y-152131979D01*
X51780226Y-152122645D01*
X51763190Y-152118508D01*
X51624330Y-152071635D01*
X51608270Y-152064601D01*
X51479661Y-151994329D01*
X51465064Y-151984612D01*
X51350609Y-151893072D01*
X51337934Y-151880979D01*
X51241110Y-151770952D01*
X51230719Y-151756831D01*
X51154477Y-151631669D01*
X51146699Y-151615966D01*
X51093345Y-151479456D01*
X51088411Y-151462632D01*
X51086897Y-151455087D01*
X51059574Y-151318940D01*
X51057638Y-151301532D01*
X51054485Y-151167583D01*
X51054711Y-151165007D01*
X51054500Y-151165007D01*
X51054500Y-151141327D01*
X51054704Y-151134918D01*
X51055536Y-151121888D01*
X51056842Y-151101428D01*
X51056841Y-151101425D01*
X51057112Y-151097184D01*
X51054500Y-151078993D01*
X51054500Y-147320000D01*
X53131284Y-147320000D01*
X53151325Y-147651317D01*
X53211157Y-147977808D01*
X53309907Y-148294711D01*
X53446131Y-148597388D01*
X53617851Y-148881447D01*
X53617852Y-148881448D01*
X53822557Y-149142735D01*
X54057265Y-149377443D01*
X54318552Y-149582148D01*
X54602611Y-149753868D01*
X54905288Y-149890092D01*
X54995092Y-149918075D01*
X55222189Y-149988842D01*
X55548679Y-150048674D01*
X55880000Y-150068715D01*
X56211321Y-150048674D01*
X56537811Y-149988842D01*
X56854708Y-149890093D01*
X56854708Y-149890092D01*
X56854711Y-149890092D01*
X57157388Y-149753868D01*
X57157389Y-149753867D01*
X57157392Y-149753866D01*
X57441448Y-149582148D01*
X57702735Y-149377443D01*
X57937443Y-149142735D01*
X58142148Y-148881448D01*
X58313866Y-148597392D01*
X58450093Y-148294708D01*
X58548842Y-147977811D01*
X58608674Y-147651321D01*
X58628715Y-147320000D01*
X58608674Y-146988679D01*
X58548842Y-146662189D01*
X58450093Y-146345292D01*
X58450092Y-146345288D01*
X58313868Y-146042611D01*
X58142148Y-145758552D01*
X57937441Y-145497263D01*
X57702736Y-145262558D01*
X57441447Y-145057851D01*
X57157388Y-144886131D01*
X56854711Y-144749907D01*
X56537808Y-144651157D01*
X56211317Y-144591325D01*
X55880000Y-144571284D01*
X55548682Y-144591325D01*
X55222191Y-144651157D01*
X54905288Y-144749907D01*
X54602611Y-144886131D01*
X54318552Y-145057851D01*
X54057263Y-145262558D01*
X53822558Y-145497263D01*
X53617851Y-145758552D01*
X53446131Y-146042611D01*
X53309907Y-146345288D01*
X53211157Y-146662191D01*
X53151325Y-146988682D01*
X53131284Y-147320000D01*
X51054500Y-147320000D01*
X51054500Y-144272000D01*
X64841255Y-144272000D01*
X64858945Y-144395044D01*
X64910587Y-144508123D01*
X64954686Y-144559015D01*
X64991993Y-144602070D01*
X65096570Y-144669277D01*
X65215845Y-144704300D01*
X65340154Y-144704300D01*
X65340155Y-144704300D01*
X65459430Y-144669277D01*
X65564007Y-144602070D01*
X65645413Y-144508122D01*
X65697054Y-144395045D01*
X65714745Y-144272000D01*
X65697054Y-144148955D01*
X65645413Y-144035878D01*
X65645412Y-144035877D01*
X65645412Y-144035876D01*
X65608106Y-143992823D01*
X65564007Y-143941930D01*
X65459430Y-143874723D01*
X65340155Y-143839700D01*
X65215845Y-143839700D01*
X65156207Y-143857211D01*
X65096569Y-143874723D01*
X65029361Y-143917914D01*
X64991993Y-143941930D01*
X64991992Y-143941930D01*
X64991992Y-143941931D01*
X64910587Y-144035876D01*
X64858945Y-144148955D01*
X64841255Y-144272000D01*
X51054500Y-144272000D01*
X51054500Y-139700000D01*
X54242504Y-139700000D01*
X54261635Y-139882027D01*
X54318194Y-140056095D01*
X54318195Y-140056096D01*
X54409709Y-140214604D01*
X54532179Y-140350620D01*
X54680252Y-140458202D01*
X54847457Y-140532646D01*
X55026486Y-140570700D01*
X55209513Y-140570700D01*
X55209514Y-140570700D01*
X55388543Y-140532646D01*
X55555748Y-140458202D01*
X55703821Y-140350620D01*
X55826291Y-140214604D01*
X55917805Y-140056096D01*
X55974364Y-139882026D01*
X55993496Y-139700000D01*
X55974364Y-139517974D01*
X55974364Y-139517972D01*
X55917805Y-139343904D01*
X55830104Y-139192000D01*
X65095255Y-139192000D01*
X65112945Y-139315044D01*
X65164587Y-139428123D01*
X65208686Y-139479015D01*
X65245993Y-139522070D01*
X65350570Y-139589277D01*
X65469845Y-139624300D01*
X65594154Y-139624300D01*
X65594155Y-139624300D01*
X65713430Y-139589277D01*
X65818007Y-139522070D01*
X65899413Y-139428122D01*
X65899412Y-139428122D01*
X65900472Y-139426900D01*
X65948158Y-139396254D01*
X66004842Y-139396254D01*
X66052528Y-139426900D01*
X66053587Y-139428122D01*
X66134993Y-139522070D01*
X66239570Y-139589277D01*
X66358845Y-139624300D01*
X66483154Y-139624300D01*
X66483155Y-139624300D01*
X66602430Y-139589277D01*
X66707007Y-139522070D01*
X66788413Y-139428122D01*
X66840054Y-139315045D01*
X66857745Y-139192000D01*
X66840054Y-139068955D01*
X66788413Y-138955878D01*
X66788412Y-138955877D01*
X66788412Y-138955876D01*
X66751106Y-138912823D01*
X66707007Y-138861930D01*
X66602430Y-138794723D01*
X66483155Y-138759700D01*
X66358845Y-138759700D01*
X66299207Y-138777211D01*
X66239569Y-138794723D01*
X66134991Y-138861931D01*
X66052528Y-138957099D01*
X66004842Y-138987745D01*
X65948158Y-138987745D01*
X65900472Y-138957099D01*
X65818008Y-138861931D01*
X65818007Y-138861930D01*
X65713430Y-138794723D01*
X65594155Y-138759700D01*
X65469845Y-138759700D01*
X65410207Y-138777211D01*
X65350569Y-138794723D01*
X65283361Y-138837914D01*
X65245993Y-138861930D01*
X65245992Y-138861930D01*
X65245992Y-138861931D01*
X65164587Y-138955876D01*
X65112945Y-139068955D01*
X65095255Y-139192000D01*
X55830104Y-139192000D01*
X55826291Y-139185396D01*
X55826290Y-139185395D01*
X55703821Y-139049380D01*
X55555748Y-138941798D01*
X55555746Y-138941797D01*
X55388544Y-138867354D01*
X55299028Y-138848327D01*
X55209514Y-138829300D01*
X55026486Y-138829300D01*
X54966809Y-138841984D01*
X54847455Y-138867354D01*
X54680253Y-138941797D01*
X54532178Y-139049381D01*
X54409708Y-139185396D01*
X54318194Y-139343904D01*
X54261635Y-139517972D01*
X54242504Y-139700000D01*
X51054500Y-139700000D01*
X51054500Y-135176000D01*
X64412255Y-135176000D01*
X64429945Y-135299044D01*
X64481587Y-135412123D01*
X64525686Y-135463015D01*
X64562993Y-135506070D01*
X64667570Y-135573277D01*
X64786845Y-135608300D01*
X64911154Y-135608300D01*
X64911155Y-135608300D01*
X65030430Y-135573277D01*
X65135007Y-135506070D01*
X65216413Y-135412122D01*
X65268054Y-135299045D01*
X65285745Y-135176000D01*
X65268054Y-135052955D01*
X65216413Y-134939878D01*
X65216412Y-134939877D01*
X65216412Y-134939876D01*
X65179106Y-134896823D01*
X65135007Y-134845930D01*
X65030430Y-134778723D01*
X64911155Y-134743700D01*
X64786845Y-134743700D01*
X64727207Y-134761211D01*
X64667569Y-134778723D01*
X64600361Y-134821914D01*
X64562993Y-134845930D01*
X64562992Y-134845930D01*
X64562992Y-134845931D01*
X64481587Y-134939876D01*
X64429945Y-135052955D01*
X64412255Y-135176000D01*
X51054500Y-135176000D01*
X51054500Y-133349999D01*
X54242504Y-133349999D01*
X54261635Y-133532027D01*
X54318194Y-133706095D01*
X54318195Y-133706096D01*
X54409709Y-133864604D01*
X54532179Y-134000620D01*
X54680252Y-134108202D01*
X54847457Y-134182646D01*
X55026486Y-134220700D01*
X55209513Y-134220700D01*
X55209514Y-134220700D01*
X55388543Y-134182646D01*
X55555748Y-134108202D01*
X55703821Y-134000620D01*
X55826291Y-133864604D01*
X55917805Y-133706096D01*
X55974364Y-133532026D01*
X55993496Y-133350000D01*
X55974364Y-133167974D01*
X55974364Y-133167972D01*
X55917805Y-132993904D01*
X55826291Y-132835396D01*
X55826290Y-132835395D01*
X55703821Y-132699380D01*
X55555748Y-132591798D01*
X55555746Y-132591797D01*
X55388544Y-132517354D01*
X55299028Y-132498326D01*
X55209514Y-132479300D01*
X55026486Y-132479300D01*
X54966809Y-132491984D01*
X54847455Y-132517354D01*
X54680253Y-132591797D01*
X54532178Y-132699381D01*
X54409708Y-132835396D01*
X54318194Y-132993904D01*
X54261635Y-133167972D01*
X54242504Y-133349999D01*
X51054500Y-133349999D01*
X51054500Y-127000000D01*
X54242504Y-127000000D01*
X54244165Y-127015807D01*
X54261635Y-127182027D01*
X54318194Y-127356095D01*
X54318195Y-127356096D01*
X54409709Y-127514604D01*
X54532179Y-127650620D01*
X54680252Y-127758202D01*
X54847457Y-127832646D01*
X55026486Y-127870700D01*
X55209513Y-127870700D01*
X55209514Y-127870700D01*
X55388543Y-127832646D01*
X55555748Y-127758202D01*
X55703821Y-127650620D01*
X55826291Y-127514604D01*
X55917805Y-127356096D01*
X55974364Y-127182026D01*
X55993496Y-127000000D01*
X55974364Y-126817974D01*
X55974364Y-126817972D01*
X55917805Y-126643904D01*
X55826291Y-126485396D01*
X55786379Y-126441070D01*
X55703821Y-126349380D01*
X55555748Y-126241798D01*
X55555746Y-126241797D01*
X55388544Y-126167354D01*
X55299028Y-126148326D01*
X55209514Y-126129300D01*
X55026486Y-126129300D01*
X54966809Y-126141984D01*
X54847455Y-126167354D01*
X54680253Y-126241797D01*
X54680251Y-126241798D01*
X54680252Y-126241798D01*
X54535286Y-126347123D01*
X54532178Y-126349381D01*
X54409708Y-126485396D01*
X54318194Y-126643904D01*
X54261635Y-126817972D01*
X54244383Y-126982122D01*
X54242504Y-127000000D01*
X51054500Y-127000000D01*
X51054500Y-115372446D01*
X51055131Y-115361198D01*
X51065955Y-115265124D01*
X51070966Y-115243176D01*
X51101016Y-115157297D01*
X51110785Y-115137011D01*
X51159193Y-115059971D01*
X51173231Y-115042368D01*
X51237568Y-114978031D01*
X51255171Y-114963993D01*
X51332211Y-114915585D01*
X51352497Y-114905816D01*
X51438378Y-114875765D01*
X51460324Y-114870755D01*
X51556398Y-114859931D01*
X51567646Y-114859300D01*
X52031930Y-114859300D01*
X52031932Y-114859300D01*
X52207095Y-114828414D01*
X52374232Y-114767581D01*
X52528268Y-114678649D01*
X52664520Y-114564320D01*
X52778849Y-114428068D01*
X52867781Y-114274032D01*
X52928614Y-114106895D01*
X52959500Y-113931732D01*
X52959500Y-113842800D01*
X52959500Y-113797925D01*
X52959500Y-111987600D01*
X52972978Y-111937300D01*
X53009800Y-111900478D01*
X53060100Y-111887000D01*
X66497700Y-111887000D01*
X66548000Y-111900478D01*
G37*
G04 #@! TD.AperFunction*
M02*
