M48
; DRILL file {KiCad 7.0.1} date Wed Jun 21 10:38:57 2023
; FORMAT={-:-/ absolute / inch / decimal}
; #@! TF.CreationDate,2023-06-21T10:38:57-04:00
; #@! TF.GenerationSoftware,Kicad,Pcbnew,7.0.1
; #@! TF.FileFunction,Plated,1,8,PTH
FMAT,2
INCH
; #@! TA.AperFunction,Plated,PTH,ViaDrill
T1C0.0060
; #@! TA.AperFunction,Plated,PTH,ViaDrill
T2C0.0080
; #@! TA.AperFunction,Plated,PTH,ViaDrill
T3C0.0100
; #@! TA.AperFunction,Plated,PTH,ViaDrill
T4C0.0120
; #@! TA.AperFunction,Plated,PTH,ComponentDrill
T5C0.0299
; #@! TA.AperFunction,Plated,PTH,ComponentDrill
T6C0.0325
; #@! TA.AperFunction,Plated,PTH,ComponentDrill
T7C0.0360
; #@! TA.AperFunction,Plated,PTH,ComponentDrill
T8C0.0510
; #@! TA.AperFunction,Plated,PTH,ComponentDrill
T9C0.1250
%
G90
G05
T1
X2.1Y-3.565
X2.115Y-4.015
X2.12Y-3.7459
X2.12Y-3.7659
X2.127Y-4.0459
X2.127Y-4.0659
X2.127Y-4.1325
X2.127Y-4.1525
X2.127Y-4.3109
X2.127Y-4.3309
X2.135Y-5.645
X2.1362Y-3.8162
X2.14Y-3.89
X2.145Y-3.515
X2.2258Y-4.2056
X2.2539Y-5.2264
X2.2539Y-5.2756
X2.2598Y-5.5315
X2.2638Y-4.9705
X2.2638Y-5.0295
X2.2638Y-5.4724
X2.2655Y-3.5755
X2.2677Y-5.561
X2.2677Y-5.5906
X2.2677Y-5.6201
X2.2677Y-5.6496
X2.2677Y-5.6791
X2.27Y-2.79
X2.28Y-2.135
X2.2826Y-2.2426
X2.2874Y-5.2264
X2.2874Y-5.2756
X2.2933Y-4.9705
X2.2933Y-5.0295
X2.2933Y-5.4823
X2.295Y-3.565
X2.2956Y-3.7594
X2.3Y-5.705
X2.305Y-3.805
X2.305Y-3.905
X2.305Y-4.005
X2.305Y-4.105
X2.315Y-3.3311
X2.3183Y-2.0583
X2.3194Y-2.89
X2.3211Y-3.1811
X2.3228Y-4.9705
X2.3228Y-5.0295
X2.3228Y-5.2264
X2.3228Y-5.2756
X2.325Y-3.27
X2.325Y-3.42
X2.325Y-5.735
X2.3268Y-5.502
X2.3268Y-5.5413
X2.3268Y-5.5807
X2.3268Y-5.6201
X2.3268Y-5.6594
X2.33Y-4.885
X2.33Y-4.915
X2.33Y-4.945
X2.3524Y-4.9705
X2.3524Y-5.0295
X2.355Y-2.135
X2.355Y-4.865
X2.3706Y-3.03
X2.3819Y-4.9705
X2.3819Y-5.0295
X2.385Y-4.865
X2.39Y-3.07
X2.395Y-2.835
X2.395Y-3.805
X2.395Y-3.905
X2.395Y-4.005
X2.395Y-4.105
X2.4Y-2.155
X2.4009Y-2.2791
X2.4134Y-5.0236
X2.415Y-4.865
X2.4193Y-2.1336
X2.42Y-2.9226
X2.42Y-4.32
X2.43Y-3.1826
X2.43Y-3.3376
X2.4339Y-2.157
X2.434Y-3.6203
X2.434Y-3.76
X2.435Y-2.28
X2.437Y-5.0039
X2.4409Y-4.9705
X2.445Y-3.545
X2.445Y-4.865
X2.45Y-3.915
X2.45Y-4.06
X2.465Y-2.29
X2.47Y-4.97
X2.475Y-4.865
X2.48Y-4.345
X2.4985Y-2.3304
X2.4987Y-2.2744
X2.5Y-3.915
X2.5Y-4.03
X2.5056Y-3.445
X2.53Y-3.28
X2.535Y-2.405
X2.5353Y-2.26
X2.55Y-4.165
X2.551Y-2.4416
X2.5531Y-5.3219
X2.56Y-3.805
X2.561Y-2.3143
X2.57Y-3.2
X2.57Y-3.355
X2.57Y-4.965
X2.57Y-5.68
X2.58Y-5.48
X2.61Y-4.01
X2.615Y-5.48
X2.6155Y-2.1989
X2.62Y-2.785
X2.62Y-3.83
X2.6854Y-4.99
X2.695Y-2.555
X2.695Y-5.165
X2.7Y-3.07
X2.7Y-4.295
X2.735Y-4.865
X2.765Y-4.07
X2.775Y-3.63
X2.78Y-2.3643
X2.78Y-3.95
X2.785Y-3.885
X2.785Y-4.8656
X2.795Y-3.44
X2.795Y-3.29
X2.8004Y-2.3472
X2.805Y-5.1006
X2.8143Y-2.275
X2.815Y-3.885
X2.82Y-3.69
X2.82Y-3.72
X2.825Y-3.045
X2.835Y-3.2516
X2.8351Y-3.3024
X2.845Y-4.01
X2.845Y-4.585
X2.875Y-3.69
X2.875Y-3.72
X2.885Y-4.8656
X2.89Y-2.48
X2.895Y-5.0306
X2.905Y-3.8
X2.906Y-3.63
X2.915Y-4.665
X2.92Y-3.075
X2.92Y-4.99
X2.9325Y-3.6175
X2.935Y-2.315
X2.94Y-4.69
X2.945Y-2.4
X2.945Y-3.145
X2.95Y-4.965
X2.9593Y-2.3024
X2.965Y-2.65
X2.965Y-4.41
X2.975Y-4.1177
X2.98Y-2.2867
X2.985Y-4.815
X2.9856Y-4.4363
X2.999Y-4.364
X3.0033Y-2.3333
X3.01Y-4.02
X3.01Y-4.925
X3.02Y-3.27
X3.0233Y-2.3115
X3.03Y-4.885
X3.0384Y-2.2893
X3.04Y-4.925
X3.0473Y-2.3115
X3.0482Y-3.9668
X3.0558Y-3.0208
X3.06Y-4.565
X3.06Y-2.9772
X3.0648Y-2.29
X3.0666Y-3.9484
X3.07Y-4.87
X3.0742Y-3.0392
X3.075Y-2.73
X3.0826Y-3.7606
X3.0853Y-2.33
X3.095Y-4.765
X3.095Y-4.821
X3.1039Y-2.5289
X3.1043Y-2.3
X3.1075Y-2.66
X3.11Y-2.45
X3.11Y-3.84
X3.11Y-3.865
X3.11Y-3.97
X3.111Y-3.91
X3.1259Y-2.2896
X3.13Y-4.205
X3.13Y-4.25
X3.13Y-4.39
X3.138Y-3.7
X3.138Y-3.7426
X3.145Y-2.305
X3.1458Y-2.3508
X3.1491Y-3.915
X3.15Y-2.375
X3.1811Y-2.37
X3.185Y-4.269
X3.19Y-4.595
X3.1951Y-4.1399
X3.2Y-2.445
X3.204Y-4.345
X3.2048Y-2.28
X3.205Y-3.75
X3.205Y-3.865
X3.205Y-4.32
X3.205Y-4.57
X3.205Y-4.62
X3.2078Y-2.5622
X3.22Y-2.535
X3.22Y-4.64
X3.225Y-5.05
X3.227Y-4.297
X3.23Y-4.859
X3.235Y-2.33
X3.2443Y-2.2809
X3.245Y-4.64
X3.249Y-4.175
X3.25Y-2.425
X3.2543Y-4.387
X3.262Y-4.59
X3.265Y-4.2
X3.2664Y-2.33
X3.2678Y-2.29
X3.295Y-3.87
X3.3Y-4.65
X3.304Y-4.57
X3.305Y-4.19
X3.3092Y-4.0283
X3.31Y-4.06
X3.315Y-4.005
X3.32Y-2.405
X3.3207Y-3.7893
X3.325Y-4.235
X3.337Y-4.257
X3.3405Y-3.99
X3.341Y-2.525
X3.35Y-4.88
X3.3512Y-3.791
X3.355Y-2.678
X3.356Y-2.332
X3.36Y-3.675
X3.36Y-5.045
X3.3623Y-2.2763
X3.365Y-2.525
X3.365Y-2.6049
X3.365Y-2.6289
X3.365Y-3.9263
X3.365Y-4.65
X3.37Y-2.745
X3.37Y-3.2467
X3.371Y-4.501
X3.373Y-4.29
X3.3793Y-4.316
X3.38Y-2.88
X3.38Y-4.565
X3.385Y-3.99
X3.39Y-2.78
X3.39Y-4.465
X3.3909Y-3.7309
X3.395Y-3.12
X3.395Y-4.98
X3.3983Y-4.229
X3.4Y-3.925
X3.405Y-2.32
X3.4086Y-2.444
X3.4113Y-4.357
X3.415Y-3.07
X3.425Y-4.4855
X3.426Y-3.7059
X3.426Y-4.25
X3.435Y-2.285
X3.435Y-3.95
X3.435Y-4.88
X3.4394Y-4.5268
X3.4431Y-4.8519
X3.45Y-2.545
X3.4515Y-4.1085
X3.46Y-4.39
X3.4663Y-2.2862
X3.4677Y-4.415
X3.47Y-4.205
X3.4702Y-4.293
X3.475Y-3.705
X3.48Y-2.813
X3.48Y-3.165
X3.4843Y-4.73
X3.485Y-4.8435
X3.485Y-4.995
X3.4861Y-4.4304
X3.49Y-3.05
X3.49Y-3.805
X3.4914Y-2.384
X3.515Y-4.25
X3.53Y-2.8563
X3.535Y-3.77
X3.5365Y-2.545
X3.538Y-2.36
X3.54Y-2.295
X3.55Y-3.27
X3.5506Y-2.755
X3.57Y-3.8
X3.58Y-3.825
X3.58Y-2.64
X3.5895Y-4.43
X3.59Y-4.995
X3.595Y-2.805
X3.6Y-3.845
X3.605Y-3.705
X3.61Y-4.41
X3.615Y-3.185
X3.6325Y-4.3941
X3.635Y-4.985
X3.64Y-3.115
X3.64Y-5.285
X3.6409Y-3.9009
X3.65Y-4.71
X3.659Y-4.3782
X3.6597Y-2.3403
X3.66Y-2.38
X3.66Y-2.41
X3.662Y-4.49
X3.665Y-3.885
X3.67Y-4.985
X3.68Y-2.59
X3.68Y-3.0251
X3.6838Y-3.7823
X3.685Y-4.71
X3.705Y-3.985
X3.7059Y-3.7041
X3.72Y-2.355
X3.72Y-4.225
X3.7372Y-4.2818
X3.749Y-2.385
X3.75Y-3.675
X3.7562Y-4.4743
X3.7598Y-4.3952
X3.765Y-4.525
X3.7666Y-2.585
X3.7666Y-2.845
X3.77Y-3.72
X3.77Y-4.495
X3.775Y-3.855
X3.775Y-4.029
X3.775Y-4.67
X3.7793Y-4.379
X3.795Y-3.8726
X3.795Y-4.22
X3.795Y-4.525
X3.8Y-4.985
X3.805Y-4.67
X3.81Y-5.025
X3.8148Y-4.0348
X3.8178Y-2.6838
X3.825Y-4.185
X3.8275Y-4.1275
X3.829Y-2.8496
X3.83Y-3.89
X3.8357Y-3.9357
X3.8363Y-4.055
X3.84Y-3.265
X3.84Y-3.51
X3.845Y-4.355
X3.8503Y-4.1797
X3.856Y-3.77
X3.8639Y-2.585
X3.865Y-3.055
X3.865Y-3.49
X3.87Y-2.85
X3.87Y-4.985
X3.8725Y-2.8825
X3.8759Y-4.1507
X3.88Y-5.445
X3.88Y-5.775
X3.8915Y-2.83
X3.895Y-4.325
X3.895Y-5.349
X3.9082Y-3.6832
X3.91Y-3.9501
X3.91Y-3.975
X3.915Y-2.275
X3.915Y-2.545
X3.915Y-2.575
X3.9274Y-3.664
X3.93Y-4.22
X3.94Y-5.265
X3.95Y-2.375
X3.96Y-4.19
X3.965Y-3.665
X3.97Y-5.319
X3.98Y-3.89
X3.98Y-4.215
X3.9898Y-5.4207
X3.99Y-5.52
X3.99Y-5.57
X3.9925Y-4.8625
X4.0Y-3.33
X4.0Y-3.825
X4.0Y-4.665
X4.0Y-4.705
X4.0Y-5.345
X4.0Y-5.445
X4.015Y-4.3286
X4.015Y-4.8428
X4.015Y-4.8822
X4.02Y-3.08
X4.02Y-3.11
X4.02Y-3.805
X4.02Y-3.845
X4.02Y-4.645
X4.02Y-4.685
X4.04Y-3.74
X4.04Y-3.825
X4.0425Y-3.41
X4.045Y-5.375
X4.045Y-5.58
X4.05Y-3.355
X4.05Y-4.33
X4.07Y-2.53
X4.07Y-5.51
X4.0724Y-4.4526
X4.0739Y-2.7139
X4.0746Y-2.7401
X4.085Y-3.385
X4.09Y-4.33
X4.1075Y-3.9501
X4.1087Y-2.8642
X4.125Y-5.095
X4.13Y-3.83
X4.13Y-4.66
X4.13Y-4.8375
X4.135Y-2.765
X4.135Y-2.795
X4.135Y-4.145
X4.145Y-2.69
X4.1452Y-2.87
X4.155Y-4.76
X4.16Y-3.935
X4.165Y-4.585
X4.165Y-4.91
X4.17Y-2.765
X4.17Y-2.795
X4.175Y-4.79
X4.1818Y-3.1965
X4.182Y-4.927
X4.185Y-4.74
X4.185Y-5.5
X4.19Y-4.565
X4.2Y-2.275
X4.2Y-2.299
X4.2Y-2.59
X4.2035Y-4.5084
X4.2164Y-2.3165
X4.22Y-4.24
X4.22Y-4.935
X4.22Y-5.535
X4.221Y-4.745
X4.2224Y-4.54
X4.2341Y-2.2975
X4.235Y-4.905
X4.2389Y-4.3
X4.24Y-2.885
X4.25Y-3.561
X4.255Y-3.4816
X4.255Y-3.065
X4.2684Y-4.5084
X4.27Y-4.89
X4.2739Y-4.815
X4.2741Y-4.6831
X4.275Y-4.605
X4.275Y-4.655
X4.275Y-4.8606
X4.28Y-4.4316
X4.285Y-3.64
X4.295Y-4.77
X4.295Y-4.835
X4.3Y-3.47
X4.315Y-2.275
X4.32Y-3.44
X4.325Y-3.37
X4.329Y-3.4041
X4.335Y-3.75
X4.3425Y-4.395
X4.3526Y-5.5909
X4.355Y-2.9325
X4.355Y-3.065
X4.355Y-3.95
X4.355Y-4.165
X4.3576Y-2.2724
X4.3595Y-3.4865
X4.36Y-4.65
X4.3644Y-3.51
X4.365Y-5.235
X4.366Y-4.4572
X4.3818Y-3.1965
X4.385Y-3.985
X4.405Y-4.01
X4.41Y-5.26
X4.415Y-2.52
X4.42Y-3.385
X4.4202Y-3.5
X4.425Y-3.565
X4.425Y-3.925
X4.425Y-4.035
X4.425Y-4.72
X4.425Y-4.77
X4.43Y-4.83
X4.43Y-4.89
X4.435Y-3.605
X4.445Y-3.68
X4.445Y-3.805
X4.455Y-2.715
X4.455Y-2.7401
X4.46Y-4.14
X4.46Y-4.185
X4.46Y-4.7
X4.47Y-2.4807
X4.47Y-2.6357
X4.47Y-5.2948
X4.471Y-4.75
X4.475Y-4.575
X4.475Y-5.57
X4.4836Y-2.285
X4.4894Y-3.5856
X4.4894Y-3.94
X4.49Y-3.735
X4.49Y-3.79
X4.495Y-4.53
X4.5Y-2.69
X4.5Y-4.95
X4.505Y-2.8649
X4.511Y-3.07
X4.525Y-5.615
X4.535Y-2.6977
X4.535Y-2.866
X4.535Y-3.07
X4.535Y-4.175
X4.54Y-3.94
X4.5406Y-3.79
X4.555Y-3.5606
X4.555Y-4.685
X4.5553Y-4.4006
X4.5594Y-4.3494
X4.56Y-4.65
X4.56Y-5.1948
X4.565Y-5.22
X4.575Y-3.59
X4.575Y-3.64
X4.591Y-5.06
X4.5959Y-5.2808
X4.5959Y-5.3089
X4.5969Y-4.7359
X4.5969Y-4.7641
X4.6094Y-5.01
X4.61Y-4.325
X4.61Y-5.59
X4.615Y-2.59
X4.63Y-5.445
X4.635Y-4.185
X4.6451Y-5.1948
X4.646Y-4.65
X4.65Y-3.265
X4.66Y-2.705
X4.6604Y-4.2911
X4.665Y-2.5996
X4.665Y-2.855
X4.665Y-5.2598
X4.665Y-5.2898
X4.666Y-4.715
X4.666Y-4.745
X4.6726Y-2.2874
X4.69Y-2.915
X4.6925Y-2.389
X4.695Y-4.28
X4.7Y-2.53
X4.7Y-3.08
X4.7094Y-4.4214
X4.71Y-3.1066
X4.7127Y-4.216
X4.715Y-4.245
X4.72Y-2.585
X4.72Y-5.4648
X4.721Y-4.9198
X4.73Y-2.37
X4.735Y-2.455
X4.735Y-3.64
X4.7399Y-3.7753
X4.74Y-4.865
X4.74Y-5.4398
X4.741Y-4.8948
X4.7443Y-5.2591
X4.7444Y-4.3214
X4.7444Y-4.3514
X4.745Y-5.6048
X4.7452Y-4.7143
X4.746Y-5.06
X4.7484Y-3.4316
X4.7496Y-4.4214
X4.755Y-2.345
X4.7565Y-4.2445
X4.7649Y-3.64
X4.765Y-3.455
X4.77Y-2.705
X4.77Y-2.8524
X4.77Y-3.945
X4.7744Y-4.3214
X4.7744Y-4.3514
X4.775Y-4.165
X4.7785Y-5.4346
X4.78Y-5.5048
X4.78Y-5.5348
X4.781Y-4.96
X4.781Y-4.99
X4.785Y-4.24
X4.7852Y-5.6048
X4.7861Y-5.065
X4.79Y-2.95
X4.8Y-3.785
X4.8048Y-5.4352
X4.8058Y-4.89
X4.81Y-4.26
X4.81Y-5.5048
X4.81Y-5.5348
X4.811Y-4.96
X4.811Y-4.99
X4.815Y-3.145
X4.82Y-3.24
X4.825Y-5.3598
X4.826Y-4.815
X4.8339Y-2.854
X4.835Y-4.895
X4.835Y-5.44
X4.8388Y-4.2527
X4.8394Y-3.6905
X4.84Y-3.645
X4.84Y-3.7388
X4.845Y-2.93
X4.85Y-3.163
X4.85Y-3.405
X4.8535Y-3.24
X4.86Y-2.7173
X4.86Y-2.7673
X4.8855Y-4.92
X4.895Y-5.47
X4.905Y-2.7173
X4.905Y-2.7673
X4.91Y-3.95
X4.915Y-3.635
X4.9171Y-4.3865
X4.9187Y-4.3581
X4.92Y-3.1538
X4.92Y-3.1988
X4.92Y-4.3325
X4.9204Y-4.2301
X4.9204Y-4.2813
X4.9204Y-4.3069
X4.9217Y-3.485
X4.9434Y-5.4348
X4.9444Y-4.89
X4.9583Y-2.6428
X4.9742Y-2.6635
X4.975Y-5.4348
X4.976Y-4.89
X4.98Y-3.755
X4.9847Y-3.7246
X4.985Y-5.4848
X4.986Y-4.94
X4.9898Y-3.7011
X4.99Y-5.5098
X4.991Y-4.965
X4.9934Y-3.1066
X4.995Y-2.49
X4.9961Y-2.7057
X4.9995Y-2.945
X5.0Y-2.755
X5.0Y-2.78
X5.015Y-3.41
X5.05Y-5.0
X5.0547Y-4.2774
X5.0547Y-4.3364
X5.0568Y-5.56
X5.06Y-3.215
X5.0665Y-3.1582
X5.0669Y-3.1824
X5.07Y-3.68
X5.07Y-3.71
X5.07Y-3.74
X5.08Y-2.32
X5.0941Y-4.2774
X5.0941Y-4.3364
X5.095Y-2.72
X5.0956Y-2.6095
X5.1008Y-5.4248
X5.1018Y-4.88
X5.106Y-2.32
X5.11Y-2.185
X5.11Y-5.5618
X5.111Y-5.0169
X5.135Y-2.945
X5.1363Y-5.4598
X5.1363Y-5.4848
X5.1363Y-5.5098
X5.1373Y-4.915
X5.1373Y-4.94
X5.1373Y-4.965
X5.15Y-3.14
X5.15Y-3.17
X5.15Y-3.2
X5.1543Y-3.7543
X5.1543Y-3.7543
X5.1549Y-3.7034
X5.155Y-3.73
X5.1613Y-5.4598
X5.1613Y-5.5098
X5.1623Y-4.915
X5.1623Y-4.965
X5.1863Y-5.4598
X5.1863Y-5.5098
X5.1873Y-4.915
X5.1873Y-4.965
X5.205Y-2.855
X5.2113Y-5.4598
X5.2113Y-5.5098
X5.2123Y-4.915
X5.2123Y-4.965
X5.2343Y-3.2143
X5.2349Y-3.1634
X5.235Y-3.19
X5.2761Y-5.2239
X5.28Y-2.76
X5.295Y-3.885
X5.325Y-3.885
X5.33Y-5.185
X5.37Y-3.495
X5.37Y-3.52
X5.37Y-3.56
X5.38Y-3.345
X5.395Y-2.79
X5.4Y-2.35
X5.405Y-3.345
X5.405Y-5.2
X5.44Y-2.35
X5.4525Y-2.785
X5.4694Y-2.8875
X5.47Y-5.23
X5.48Y-2.35
X5.495Y-3.5206
T2
X4.9354Y-4.4611
T3
X2.155Y-2.3411
X2.635Y-4.56
X2.635Y-4.61
T4
X2.1324Y-3.3024
X2.1324Y-3.3524
X2.1324Y-3.4024
X2.3133Y-5.3091
X2.3133Y-5.3391
X2.3688Y-4.367
X2.3688Y-4.395
X2.553Y-5.6256
X2.553Y-5.6556
X2.635Y-4.38
X2.635Y-4.51
X2.77Y-5.385
X2.77Y-5.52
X2.77Y-5.58
X2.79Y-4.15
X2.83Y-4.15
X2.8458Y-2.275
X2.8458Y-2.3026
X2.87Y-4.15
X2.8773Y-2.275
X2.8773Y-2.3026
X2.915Y-5.385
X2.915Y-5.525
X2.915Y-5.58
X2.92Y-4.367
X2.92Y-4.395
X2.965Y-3.3524
X2.965Y-3.4024
X2.985Y-5.6994
X2.985Y-5.7294
X2.987Y-5.2306
X2.987Y-5.2606
X3.138Y-5.1506
X3.138Y-5.1806
X3.14Y-5.78
X3.14Y-5.81
X3.3183Y-2.275
X3.3183Y-2.3026
X3.6647Y-2.2874
X3.6962Y-2.275
X3.6962Y-2.3026
X3.7592Y-2.275
X3.7592Y-2.3026
X3.8388Y-5.2291
X3.8388Y-5.2591
X3.915Y-4.99
X3.915Y-5.695
X3.925Y-2.69
X3.925Y-2.725
X3.925Y-2.76
X3.925Y-2.8
X3.925Y-4.72
X3.925Y-4.775
X3.945Y-5.695
X3.9482Y-2.275
X3.9482Y-2.3026
X3.95Y-4.99
X3.955Y-2.705
X3.955Y-2.74
X3.955Y-2.78
X3.9797Y-2.275
X3.985Y-4.99
X4.0112Y-2.275
X4.0112Y-2.3026
X4.015Y-5.225
X4.015Y-5.255
X4.0427Y-2.275
X4.0427Y-2.3026
X4.1687Y-2.275
X4.1687Y-2.3026
X4.18Y-2.43
X4.18Y-2.47
X4.18Y-2.51
X4.215Y-2.41
X4.215Y-2.45
X4.215Y-2.49
X4.215Y-5.71
X4.215Y-5.745
X4.215Y-5.78
X4.25Y-2.43
X4.25Y-2.47
X4.25Y-2.51
X4.4206Y-2.275
X4.4206Y-2.3026
X4.4521Y-2.275
X4.4521Y-2.3026
X4.5151Y-2.275
X4.5151Y-2.3026
X4.5213Y-2.3623
X4.54Y-2.415
X4.5466Y-2.275
X4.5466Y-2.3026
X4.55Y-4.895
X4.55Y-5.3598
X4.55Y-5.3998
X4.551Y-4.815
X4.551Y-4.855
X4.5613Y-2.3623
X4.5781Y-2.275
X4.5781Y-2.3026
X4.58Y-2.415
X4.59Y-4.895
X4.59Y-5.3598
X4.59Y-5.3998
X4.591Y-4.815
X4.591Y-4.855
X4.6013Y-2.3623
X4.615Y-3.405
X4.615Y-3.44
X4.615Y-5.095
X4.615Y-5.135
X4.62Y-2.33
X4.62Y-2.415
X4.63Y-4.895
X4.63Y-5.3598
X4.63Y-5.3998
X4.631Y-4.815
X4.631Y-4.855
X4.64Y-4.465
X4.64Y-4.505
X4.64Y-4.545
X4.6413Y-2.3623
X4.65Y-3.405
X4.65Y-3.44
X4.655Y-5.095
X4.655Y-5.135
X4.655Y-5.6398
X4.655Y-5.6798
X4.655Y-5.7198
X4.66Y-2.33
X4.68Y-4.465
X4.68Y-4.505
X4.68Y-4.545
X4.685Y-3.405
X4.685Y-3.44
X4.695Y-5.095
X4.695Y-5.135
X4.695Y-5.6398
X4.695Y-5.6798
X4.695Y-5.7198
X4.7041Y-2.275
X4.7041Y-2.3026
X4.72Y-4.6
X4.7201Y-4.4637
X4.7201Y-4.5037
X4.7201Y-4.5437
X4.735Y-3.84
X4.735Y-3.875
X4.735Y-3.91
X4.735Y-4.68
X4.735Y-5.135
X4.735Y-5.6398
X4.735Y-5.6798
X4.735Y-5.7198
X4.7356Y-2.275
X4.7356Y-2.3026
X4.736Y-5.095
X4.74Y-5.23
X4.75Y-2.92
X4.75Y-3.535
X4.75Y-3.57
X4.75Y-3.605
X4.765Y-4.6
X4.78Y-3.3
X4.78Y-3.335
X4.78Y-3.37
X4.785Y-2.92
X4.81Y-4.6
X4.815Y-2.995
X4.815Y-3.03
X4.815Y-3.065
X4.815Y-3.3
X4.815Y-3.335
X4.815Y-3.37
X4.815Y-4.05
X4.825Y-2.53
X4.825Y-2.575
X4.825Y-2.627
X4.85Y-4.6
X4.8557Y-4.05
X4.895Y-4.05
X4.895Y-4.6
X4.92Y-2.07
X4.92Y-2.325
X4.92Y-2.3693
X4.93Y-2.445
X4.93Y-2.55
X4.9319Y-4.185
X4.935Y-3.8
X4.935Y-4.05
X4.935Y-4.6
X4.965Y-2.07
X4.965Y-2.445
X4.965Y-2.55
X4.965Y-2.8554
X4.9713Y-4.185
X4.9722Y-2.29
X4.9723Y-4.05
X4.975Y-4.6
X4.976Y-4.675
X5.005Y-2.445
X5.01Y-3.78
X5.0106Y-4.185
X5.0111Y-4.05
X5.0144Y-4.6
X5.015Y-4.43
X5.0153Y-5.2348
X5.0153Y-5.7198
X5.0163Y-4.69
X5.0163Y-5.175
X5.02Y-2.29
X5.02Y-3.27
X5.03Y-2.8554
X5.035Y-4.23
X5.0356Y-4.385
X5.04Y-2.445
X5.04Y-2.6295
X5.05Y-3.645
X5.05Y-3.78
X5.05Y-4.05
X5.05Y-4.185
X5.0547Y-5.2348
X5.0547Y-5.7198
X5.055Y-4.43
X5.055Y-4.6
X5.0557Y-4.69
X5.0557Y-5.175
X5.0744Y-4.23
X5.075Y-4.385
X5.09Y-3.24
X5.09Y-3.645
X5.09Y-3.78
X5.09Y-4.035
X5.0906Y-4.185
X5.0941Y-5.2348
X5.0941Y-5.7198
X5.095Y-4.43
X5.095Y-4.6
X5.095Y-4.69
X5.095Y-5.175
X5.1Y-2.86
X5.1138Y-4.23
X5.1144Y-4.385
X5.13Y-3.24
X5.13Y-3.78
X5.13Y-4.035
X5.13Y-4.185
X5.1301Y-3.1042
X5.1324Y-2.2876
X5.1334Y-5.2348
X5.1334Y-5.7198
X5.1344Y-4.69
X5.1344Y-5.175
X5.135Y-4.43
X5.135Y-4.6
X5.145Y-3.475
X5.145Y-3.515
X5.145Y-3.565
X5.145Y-3.605
X5.15Y-3.805
X5.15Y-3.84
X5.17Y-3.1038
X5.17Y-3.24
X5.17Y-4.1862
X5.1728Y-5.2348
X5.1728Y-5.7198
X5.1737Y-4.43
X5.1738Y-4.69
X5.1738Y-5.175
X5.175Y-4.035
X5.175Y-4.6
X5.21Y-3.24
X5.21Y-4.185
X5.2122Y-5.2348
X5.2122Y-5.7198
X5.2131Y-4.69
X5.2131Y-5.175
X5.2137Y-4.43
X5.215Y-2.28
X5.215Y-4.035
X5.215Y-4.6
X5.23Y-2.94
X5.23Y-2.975
X5.23Y-3.03
X5.23Y-3.065
X5.2333Y-3.265
X5.235Y-3.305
X5.24Y-4.385
X5.245Y-5.6664
X5.245Y-5.7014
X5.25Y-2.28
X5.25Y-4.715
X5.251Y-5.1515
X5.2516Y-5.2759
X5.255Y-4.6
X5.2614Y-5.4848
X5.2624Y-4.94
X5.27Y-4.03
X5.2704Y-4.1494
X5.2712Y-5.6446
X5.28Y-4.745
X5.28Y-5.3
X5.285Y-2.065
X5.285Y-5.125
X5.295Y-2.12
X5.295Y-2.17
X5.295Y-4.6
X5.31Y-4.03
X5.31Y-4.1497
X5.3106Y-5.3198
X5.3106Y-5.6446
X5.3116Y-4.775
X5.3116Y-5.0998
X5.3204Y-5.3766
X5.3204Y-5.4061
X5.3204Y-5.4356
X5.3204Y-5.5341
X5.3204Y-5.5636
X5.3204Y-5.5931
X5.3214Y-4.8317
X5.3214Y-4.8613
X5.3214Y-4.8908
X5.3214Y-4.9892
X5.3214Y-5.0187
X5.3214Y-5.0483
X5.335Y-4.6
X5.35Y-5.3198
X5.35Y-5.6446
X5.3509Y-4.775
X5.3509Y-5.0998
X5.3654Y-5.3766
X5.3654Y-5.4356
X5.3654Y-5.5341
X5.3654Y-5.5931
X5.3657Y-5.4061
X5.3657Y-5.5636
X5.3664Y-4.8317
X5.3664Y-4.8908
X5.3664Y-4.9892
X5.3664Y-5.0483
X5.3667Y-4.8613
X5.3667Y-5.0187
X5.3697Y-4.1494
X5.37Y-4.03
X5.375Y-4.6
X5.3893Y-5.3198
X5.3893Y-5.6446
X5.3903Y-4.775
X5.3903Y-5.0998
X5.41Y-4.03
X5.4104Y-4.1497
X5.415Y-4.6
X5.4287Y-5.3198
X5.4287Y-5.6446
X5.4297Y-4.775
X5.4297Y-5.0998
X5.455Y-4.6
X5.4697Y-4.775
T5
X2.12Y-4.95
X2.12Y-5.05
X2.12Y-5.2
X2.12Y-5.3
X2.12Y-5.45
X2.12Y-5.55
X2.22Y-4.95
X2.22Y-5.05
X2.22Y-5.2
X2.22Y-5.3
X2.22Y-5.45
X2.22Y-5.55
T6
X2.17Y-5.0
X2.17Y-5.25
X2.17Y-5.5
T7
X2.1515Y-4.455
X4.775Y-5.9235
X5.475Y-2.57
X5.475Y-2.935
X5.48Y-4.695
T8
X2.1535Y-2.665
X2.1535Y-2.965
X2.4535Y-2.665
X2.8535Y-2.665
X2.8535Y-2.965
T9
X2.2Y-5.8
X2.35Y-2.425
X5.25Y-2.425
X5.35Y-5.8
T0
M30
